<?xml version="1.0" encoding="UTF-8" standalone="no"?>
<!DOCTYPE svg PUBLIC "-//W3C//DTD SVG 1.1//EN" "http://www.w3.org/Graphics/SVG/1.1/DTD/svg11.dtd">
<svg width="100%" height="100%" viewBox="0 0 1000 567" version="1.1" xmlns="http://www.w3.org/2000/svg" xmlns:xlink="http://www.w3.org/1999/xlink" xml:space="preserve" xmlns:serif="http://www.serif.com/" style="fill-rule:evenodd;clip-rule:evenodd;stroke-linejoin:round;stroke-miterlimit:2;">
    <g transform="matrix(4.16667,0,0,4.16667,0,0)">
        <g id="_7---Sketch---Violet---240" serif:id="7---Sketch---Violet---240">
            <rect id="Background" x="0" y="0" width="240" height="136" style="fill:rgb(155,147,242);"/>
            <path id="Rectangle" d="M23.879,8.364L25.636,10.121C26.121,10.607 26.121,11.393 25.636,11.879L23.879,13.636C23.393,14.121 22.607,14.121 22.121,13.636L20.364,11.879C19.879,11.393 19.879,10.607 20.364,10.121L22.121,8.364C22.607,7.879 23.393,7.879 23.879,8.364Z" style="fill:white;fill-opacity:0.8;"/>
            <g id="Group" transform="matrix(1,0,0,1,164,10)">
                <g opacity="0.6">
                    <path id="Rectangle-Copy-7" d="M12,1C12,0.448 11.552,0 11,0L1,0C0.448,0 0,0.448 0,1C0,1.552 0.448,2 1,2L11,2C11.552,2 12,1.552 12,1Z" style="fill:white;"/>
                    <path id="Rectangle-Copy-8" d="M28,1C28,0.448 27.552,0 27,0L17,0C16.448,0 16,0.448 16,1C16,1.552 16.448,2 17,2L27,2C27.552,2 28,1.552 28,1Z" style="fill:white;"/>
                </g>
            </g>
            <g id="Phone" transform="matrix(1,0,0,1,57.5,39.7926)">
                <g id="Rectangle-Copy-9">
                    <path id="path-1" d="M38.75,5.625C38.75,2.52 36.23,0 33.125,0L5.625,0C2.52,0 0,2.52 0,5.625L0,72.197C0,75.302 2.52,77.822 5.625,77.822L33.125,77.822C36.23,77.822 38.75,75.302 38.75,72.197L38.75,5.625Z" style="fill:rgb(155,147,242);"/>
                    <path id="path-11" serif:id="path-1" d="M38.75,5.625C38.75,2.52 36.23,0 33.125,0L5.625,0C2.52,0 0,2.52 0,5.625L0,72.197C0,75.302 2.52,77.822 5.625,77.822L33.125,77.822C36.23,77.822 38.75,75.302 38.75,72.197L38.75,5.625Z" style="fill:white;fill-opacity:0.4;"/>
                </g>
                <path id="Mask" d="M9.323,2.267C9.62,2.267 9.861,2.509 9.861,2.808C9.889,3.315 9.987,3.636 10.143,3.929C10.327,4.275 10.597,4.547 10.94,4.732C11.284,4.917 11.67,5.016 12.34,5.016L26.41,5.016C27.08,5.016 27.466,4.917 27.81,4.732C28.153,4.547 28.423,4.275 28.607,3.929C28.763,3.636 28.858,3.312 28.889,2.808C28.889,2.509 29.13,2.267 29.427,2.267L32.099,2.267C33.629,2.267 34.184,2.427 34.744,2.728C35.303,3.03 35.742,3.472 36.041,4.035C36.341,4.599 36.5,5.158 36.5,6.699L36.5,71.123C36.5,72.664 36.341,73.223 36.041,73.787C35.742,74.35 35.303,74.792 34.744,75.094C34.184,75.395 33.629,75.556 32.099,75.556L6.651,75.556C5.121,75.556 4.566,75.395 4.006,75.094C3.447,74.792 3.008,74.35 2.709,73.787C2.409,73.223 2.25,72.664 2.25,71.123L2.25,6.699C2.25,5.158 2.409,4.599 2.709,4.035C3.008,3.472 3.447,3.03 4.006,2.728C4.566,2.427 5.121,2.267 6.651,2.267L9.323,2.267Z" style="fill:white;"/>
            </g>
            <g id="Group-3" transform="matrix(1,0,0,1,130,93)">
                <path id="Rectangle-Copy-5" d="M22,3.5C22,1.568 20.432,0 18.5,0L3.5,0C1.568,0 0,1.568 0,3.5C0,5.432 1.568,7 3.5,7L18.5,7C20.432,7 22,5.432 22,3.5Z" style="fill:white;"/>
                <path id="Rectangle-Copy-6" d="M48,3.5C48,1.568 46.432,0 44.5,0L29.5,0C27.568,0 26,1.568 26,3.5C26,5.432 27.568,7 29.5,7L44.5,7C46.432,7 48,5.432 48,3.5Z" style="fill:white;"/>
            </g>
            <g id="Group-7" transform="matrix(1,0,0,1,130,79)">
                <g opacity="0.8">
                    <path id="Rectangle-Copy-2" d="M1,0L16,0C16.552,-0 17,0.448 17,1C17,1.552 16.552,2 16,2L1,2C0.448,2 0,1.552 0,1C-0,0.448 0.448,0 1,0Z" style="fill:white;"/>
                    <path id="Rectangle-Copy-14" d="M21,0L50,0C50.552,-0 51,0.448 51,1C51,1.552 50.552,2 50,2L21,2C20.448,2 20,1.552 20,1C20,0.448 20.448,0 21,0Z" style="fill:white;"/>
                    <path id="Rectangle-Copy-3" d="M1,5L42,5C42.552,5 43,5.448 43,6C43,6.552 42.552,7 42,7L1,7C0.448,7 0,6.552 0,6C-0,5.448 0.448,5 1,5Z" style="fill:white;"/>
                </g>
            </g>
            <g id="Group-2" transform="matrix(1,0,0,1,130,69)">
                <path id="Rectangle-Copy-15" d="M42,0L51,0C52.105,-0 53,0.895 53,2C53,3.105 52.105,4 51,4L42,4C40.895,4 40,3.105 40,2C40,0.895 40.895,0 42,0Z" style="fill:white;"/>
                <path id="Rectangle-Copy-16" d="M2,0L34,0C35.105,-0 36,0.895 36,2C36,3.105 35.105,4 34,4L2,4C0.895,4 0,3.105 0,2C-0,0.895 0.895,0 2,0Z" style="fill:white;"/>
            </g>
            <g id="Rectangle-Copy-10" transform="matrix(1,0,0,1,130,62)">
                <path d="M1.5,0L22.5,0C23.328,-0 24,0.672 24,1.5C24,2.328 23.328,3 22.5,3L1.5,3C0.672,3 0,2.328 0,1.5C-0,0.672 0.672,0 1.5,0Z" style="fill:white;fill-opacity:0.8;"/>
            </g>
            <g id="Group-6" transform="matrix(1,0,0,1,202,9)">
                <g opacity="0.6">
                    <circle id="Oval" cx="2" cy="2" r="2" style="fill:white;"/>
                    <circle id="Oval-Copy" cx="9" cy="2" r="2" style="fill:white;"/>
                    <circle id="Oval-Copy-2" cx="16" cy="2" r="2" style="fill:white;"/>
                </g>
            </g>
        </g>
    </g>
</svg>
