<?xml version="1.0" encoding="UTF-8"?>
<svg width="6px" height="6px" viewBox="0 0 6 6" version="1.1" xmlns="http://www.w3.org/2000/svg" xmlns:xlink="http://www.w3.org/1999/xlink">
    <!-- Generator: Sketch 52.2 (67145) - http://www.bohemiancoding.com/sketch -->
    <title>icon</title>
    <desc>Created with Sketch.</desc>
    <g id="KIT---1280x800" stroke="none" stroke-width="1" fill="none" fill-rule="evenodd">
        <g id="Style-Guide---KIT-Desktop-(1280x800)" transform="translate(-636.000000, -4983.000000)" fill="#AEB2BA">
            <g id="3-(States)" transform="translate(174.000000, 4888.000000)">
                <g id="Hover" transform="translate(424.000000, 0.000000)">
                    <g id="Delete" transform="translate(31.000000, 88.000000)">
                        <path d="M9.98282875,9.07793038 L11.8668775,7.19361971 C12.1265416,6.9354601 12.545909,6.9354601 12.8055731,7.19361971 C13.0636968,7.45331997 13.0636968,7.87274561 12.8055731,8.13244587 L10.9215244,10.0167565 L12.8055731,11.9010672 C13.0317767,12.1652438 13.0165681,12.5590406 12.7706638,12.8049792 C12.5247594,13.0509177 12.1310173,13.0661284 11.8668775,12.8398934 L9.98282875,10.9555827 L8.09878003,12.8398934 C7.8346402,13.0661284 7.44089806,13.0509177 7.19499372,12.8049792 C6.94908938,12.5590406 6.93388083,12.1652438 7.16008437,11.9010672 L9.04413309,10.0167565 L7.16008437,8.13244587 C6.93388083,7.86826933 6.94908938,7.47447244 7.19499372,7.22853391 C7.44089806,6.98259538 7.8346402,6.96738471 8.09878003,7.19361971 L9.98282875,9.07793038 Z" id="icon"></path>
                    </g>
                </g>
            </g>
        </g>
    </g>
</svg>