<?xml version="1.0" encoding="UTF-8"?>
<svg width="10px" height="10px" viewBox="0 0 10 10" version="1.1" xmlns="http://www.w3.org/2000/svg" xmlns:xlink="http://www.w3.org/1999/xlink">
    <!-- Generator: Sketch 52.2 (67145) - http://www.bohemiancoding.com/sketch -->
    <title>icon</title>
    <desc>Created with Sketch.</desc>
    <g id="KIT---1280x800" stroke="none" stroke-width="1" fill="none" fill-rule="evenodd">
        <g id="Style-Guide---KIT-Desktop-(1280x800)" transform="translate(-634.000000, -5323.000000)" fill="#C8CBD0">
            <g id="5-Without-Screen-(States)" transform="translate(174.000000, 5255.000000)">
                <g id="Hover" transform="translate(424.000000, 0.000000)">
                    <path d="M45.6125903,74.663939 L44.8460579,74.663939 C44.740845,74.6583944 44.6384306,74.7012594 44.5645833,74.7817486 C44.490736,74.8622379 44.4524865,74.9726883 44.4594589,75.0853092 L44.4594589,76.1208799 C44.4641798,76.177844 44.4455788,76.2341969 44.4084829,76.2753145 C44.371387,76.3164322 44.3194534,76.3382609 44.2661594,76.3351359 L37.7273045,76.3351359 C37.6749517,76.3368527 37.6244473,76.3143151 37.5887093,76.2732878 C37.5529713,76.2322605 37.5354658,76.1767227 37.5406705,76.1208799 L37.5406705,75.0853092 C37.5465736,74.9729889 37.5079747,74.863213 37.4343696,74.7829878 C37.3607645,74.7027626 37.2589855,74.6595348 37.1540715,74.663939 L36.3808736,74.663939 C36.2766112,74.6597983 36.1756258,74.7033668 36.1031333,74.7837656 C36.0306408,74.8641643 35.9934837,74.9738045 36.0009401,75.0853092 L36.0009401,77.5849627 C35.9937365,77.6957501 36.0312076,77.8045305 36.103858,77.8837387 C36.1765085,77.962947 36.2773662,78.0049816 36.3808736,77.999191 L45.6125903,77.999191 C45.7170422,78.006407 45.819337,77.9650879 45.8933489,77.8857865 C45.9673609,77.806485 46.005924,77.6968795 45.9991893,77.5849627 L45.9991893,75.0853092 C46.0061617,74.9726883 45.9679122,74.8622379 45.8940649,74.7817486 C45.8202176,74.7012594 45.7178031,74.6583944 45.6125903,74.663939 Z M40.7267792,74.5425273 C40.8021209,74.6154874 40.8986443,74.6583696 41.0000647,74.663939 C41.0994609,74.6581505 41.1938124,74.6151853 41.2666847,74.5425273 L43.5729475,72.0428738 C43.650677,71.9685275 43.6944543,71.8616862 43.6929265,71.7500572 C43.6958285,71.6381355 43.6518082,71.5307011 43.5729475,71.4572406 L43.0397075,70.8716075 C42.9685739,70.7918017 42.8693901,70.7477376 42.7664221,70.7501958 C42.665403,70.7477801 42.568288,70.7920038 42.4998021,70.8716075 L42.1132031,71.2929777 C42.0512209,71.3515546 41.96281,71.3654062 41.8877696,71.328297 C41.8127292,71.2911877 41.7652076,71.2101143 41.7665971,71.1215729 L41.7665971,68.4148052 C41.7738007,68.3040178 41.7363297,68.1952374 41.6636792,68.1160292 C41.5910288,68.0368209 41.4901711,67.9947863 41.3866637,68.0005769 L40.6134657,68.0005769 C40.5093057,67.9945308 40.4076599,68.0362274 40.3338996,68.1152592 C40.2601393,68.1942909 40.2212239,68.3032011 40.2268668,68.4148052 L40.2268668,71.1644241 C40.2255247,71.2499181 40.1789247,71.3271543 40.1067176,71.3635625 C40.0345106,71.3999708 39.9492641,71.3892142 39.8869263,71.3358289 L39.5003273,70.9144587 C39.4291937,70.8346529 39.3300099,70.7905888 39.2270419,70.793047 C39.1262849,70.7920677 39.029691,70.836054 38.9604219,70.9144587 L38.4205164,71.5000918 C38.3460337,71.5763092 38.3049087,71.6825815 38.3072029,71.7929084 C38.3061916,71.9029731 38.3471133,72.0087202 38.4205164,72.085725 L40.7267792,74.5425273 Z" id="icon"></path>
                </g>
            </g>
        </g>
    </g>
</svg>