<?xml version="1.0" encoding="UTF-8" standalone="no"?>
<!DOCTYPE svg PUBLIC "-//W3C//DTD SVG 1.1//EN" "http://www.w3.org/Graphics/SVG/1.1/DTD/svg11.dtd">
<svg width="100%" height="100%" viewBox="0 0 5396 11071" version="1.1" xmlns="http://www.w3.org/2000/svg" xmlns:xlink="http://www.w3.org/1999/xlink" xml:space="preserve" xmlns:serif="http://www.serif.com/" style="fill-rule:evenodd;clip-rule:evenodd;">
    <g transform="matrix(4.16667,0,0,4.16667,0,0)">
        <g id="Page-1">
            <g id="iPhone-11-Pro---Concept---Line" serif:id="iPhone-11-Pro---Concept-/-Line">
                <g id="Flat">
                    <g id="Apple-iPhone-11-Pro---Space-Grey">
                        <g id="Shadow" transform="matrix(1,0,0,1,85,2573)">
                            <g style="filter:url(#_Effect1);">
                                <g id="Outer-Shadow" opacity="0.12">
                                    <path id="path-1" d="M562.5,36.649C873.16,36.649 1125,27.547 1125,16.318C1125,5.09 780.057,0 562.5,0C344.943,-0 0,5.09 0,16.318C0,27.547 251.84,36.649 562.5,36.649Z"/>
                                </g>
                            </g>
                            <g style="filter:url(#_Effect2);">
                                <g id="Middle-Shadow" opacity="0.08">
                                    <path id="path-3" d="M562.348,31.589C862.653,31.589 1106.1,24.307 1106.1,15.324C1106.1,6.342 772.654,2.27 562.348,2.27C352.043,2.27 18.598,6.342 18.598,15.324C18.598,24.307 262.044,31.589 562.348,31.589Z"/>
                                </g>
                            </g>
                            <g style="filter:url(#_Effect3);">
                                <g id="Inner-Shadow" opacity="0.24">
                                    <path id="path-5" d="M563.25,22.514C842.844,22.514 1069.5,18.873 1069.5,14.381C1069.5,9.89 759.052,7.854 563.25,7.854C367.448,7.854 57,9.89 57,14.381C57,18.873 283.656,22.514 563.25,22.514Z"/>
                                </g>
                            </g>
                        </g>
                        <g id="Device">
                            <g id="Body">
                                <g id="Phone-Shape">
                                    <path id="Combined-Shape" d="M1060,0C1218.59,0 1287,78.409 1287,227L1287,595L1288.02,595C1290.29,595.559 1293.01,596.99 1294.46,599.023C1294.76,599.441 1295,600.766 1295,601.149L1295,888.771C1295,889.18 1294.67,891.246 1294.46,891.746C1293.29,894.633 1291.24,895.331 1288.02,897L1287,897L1287,2363C1287,2506.59 1213.59,2590 1060,2590L235,2590C76.409,2590 8,2511.59 8,2363L8,960L6.981,960C3.868,958.389 1.856,957.682 0.662,955.037L0.537,954.746C0.333,954.246 0,952.18 0,951.771L0,776.149C0,775.766 0.237,774.441 0.536,774.023C1.989,771.99 4.711,770.559 6.981,770L8,770L8,723L6.981,723C3.868,721.389 1.856,720.682 0.662,718.037L0.537,717.746C0.333,717.246 0,715.18 0,714.771L0,539.149C0,538.766 0.237,537.441 0.536,537.023C1.989,534.99 4.711,533.559 6.981,533L8,533L8,450L6.981,450C3.206,450 0.131,446.995 0.004,443.241L0,443L0,357C0,353.134 3.125,350 6.981,350L8,350L8,227C8,78.409 76.409,0 235,0L1060,0ZM1057,22L238,22C94.575,22 30,87.098 30,230L30,2360C30,2502.9 94.575,2568 238,2568L1057,2568C1195.45,2568 1265,2497.87 1265,2360L1265,230C1265,87.098 1200.42,22 1057,22Z" style="fill:rgb(29,30,30);"/>
                                </g>
                                <g id="Plug" transform="matrix(1,0,0,1,573,2586)">
                                    <g opacity="0.4">
                                        <path d="M20,0L130,0C140,0 146.667,1.333 150,4L0,4C3.333,1.333 10,0 20,0Z"/>
                                    </g>
                                </g>
                                <g id="Antenna-Bands" transform="matrix(1,0,0,1,8,0)">
                                    <g opacity="0.2">
                                        <rect id="Antenna-Band" x="0" y="248" width="22" height="18"/>
                                        <rect id="Antenna-Band1" serif:id="Antenna-Band" x="1257" y="248" width="22" height="18"/>
                                        <g id="Antenna-Band2" serif:id="Antenna-Band" transform="matrix(-3.82857e-16,-1,1,-3.82857e-16,1011,1033)">
                                            <rect x="1011" y="2" width="22" height="18"/>
                                        </g>
                                        <g id="Antenna-Band3" serif:id="Antenna-Band" transform="matrix(-3.82857e-16,-1,1,-3.82857e-16,-2322,2836)">
                                            <rect x="246" y="2570" width="22" height="18"/>
                                        </g>
                                        <rect id="Antenna-Band4" serif:id="Antenna-Band" x="0" y="2324" width="22" height="18"/>
                                        <rect id="Antenna-Band5" serif:id="Antenna-Band" x="1257" y="2324" width="22" height="18"/>
                                    </g>
                                </g>
                            </g>
                            <g id="Front" transform="matrix(1,0,0,1,570,84)">
                                <g id="Speaker" transform="matrix(1,0,0,1,0,9)">
                                    <path id="Mask" d="M156,10.5C156,4.705 151.295,0 145.5,0L10.5,0C4.705,0 0,4.705 0,10.5C0,16.295 4.705,21 10.5,21L145.5,21C151.295,21 156,16.295 156,10.5Z" style="fill:rgb(29,30,30);"/>
                                </g>
                                <g id="Camera" transform="matrix(1,0,0,1,196,0)">
                                    <circle id="Oval-" cx="19" cy="19" r="19" style="fill:rgb(29,30,30);"/>
                                    <circle id="Mask1" serif:id="Mask" cx="19" cy="19" r="10" style="fill-opacity:0.2;"/>
                                </g>
                            </g>
                        </g>
                        <g id="Screen" transform="matrix(1,0,0,1,85,77)">
                            <g opacity="0.2">
                                <path d="M130,3.5C90.559,3.5 58.862,15.289 37.075,37.075C15.289,58.862 3.5,90.559 3.5,130L3.5,2306C3.5,2345.44 15.289,2377.14 37.075,2398.93C58.862,2420.71 90.559,2432.5 130,2432.5L995,2432.5C1034.44,2432.5 1066.14,2420.71 1087.92,2398.93C1109.71,2377.14 1121.5,2345.44 1121.5,2306L1121.5,130C1121.5,90.559 1109.71,58.862 1087.92,37.075C1066.14,15.289 1034.44,3.5 995,3.5L899,3.5C890.964,3.5 886.039,5.113 883.224,8.154C879.356,12.332 879.511,18.675 879.501,24.848L879.5,27.001C879.5,43.276 872.63,61.964 857.714,75.388C845.824,86.09 828.808,93.5 806,93.5L320,93.5C297.192,93.5 280.176,86.09 268.286,75.388C253.37,61.964 246.5,43.276 246.5,27L246.5,26C246.5,22.69 246.764,19.206 243.235,16.166C240.237,13.584 234.986,11.362 226.045,9.425C209.25,5.786 180.207,3.5 130,3.5Z" style="fill:none;stroke:rgb(29,33,41);stroke-width:7px;"/>
                            </g>
                        </g>
                    </g>
                </g>
            </g>
        </g>
    </g>
    <defs>
        <filter id="_Effect1" filterUnits="userSpaceOnUse" x="-132" y="-132" width="1389" height="300.649">
            <feGaussianBlur in="SourceGraphic" stdDeviation="22"/>
        </filter>
        <filter id="_Effect2" filterUnits="userSpaceOnUse" x="-35.4015" y="-51.7302" width="1195.5" height="137.319">
            <feGaussianBlur in="SourceGraphic" stdDeviation="9"/>
        </filter>
        <filter id="_Effect3" filterUnits="userSpaceOnUse" x="21" y="-28.146" width="1084.5" height="86.6597">
            <feGaussianBlur in="SourceGraphic" stdDeviation="6"/>
        </filter>
    </defs>
</svg>
