<?xml version="1.0" encoding="UTF-8"?>
<svg width="11px" height="17px" viewBox="0 0 11 17" version="1.1" xmlns="http://www.w3.org/2000/svg" xmlns:xlink="http://www.w3.org/1999/xlink">
    <!-- Generator: Sketch 52.2 (67145) - http://www.bohemiancoding.com/sketch -->
    <title>icon</title>
    <desc>Created with Sketch.</desc>
    <g id="KIT---1280x800" stroke="none" stroke-width="1" fill="none" fill-rule="evenodd">
        <g id="Style-Guide---KIT-Desktop-(1280x800)" transform="translate(-293.000000, -2241.000000)" fill="#BFBFC7">
            <g id="Device-Selection---1280x800" transform="translate(64.000000, 2241.000000)">
                <g id="Static">
                    <g id="Mobile" transform="translate(229.100000, 0.000000)">
                        <g id="Static">
                            <g id="mobile">
                                <path d="M8.0155,17 L2.1845,17 C0.994606925,17.0160727 0.0167842206,16.0648833 2.27373675e-13,14.875 L2.27373675e-13,2.125 C0.0167842206,0.935116749 0.994606925,-0.0160726517 2.1845,-5.59564873e-15 L8.0155,-5.59564873e-15 C9.20539308,-0.0160726517 10.1832158,0.935116749 10.2,2.125 L10.2,14.875 C10.1832158,16.0648833 9.20539308,17.0160727 8.0155,17 Z M1.4535,2.125 L1.4535,14.875 C1.46186872,15.2710997 1.78835285,15.5861948 2.1845,15.5805 L8.0155,15.5805 C8.20493501,15.5829946 8.38757744,15.5100103 8.52312502,15.3776521 C8.65867259,15.2452939 8.73598417,15.0644407 8.738,14.875 L8.738,2.125 C8.73598417,1.93555929 8.65867259,1.7547061 8.52312502,1.62234788 C8.38757744,1.48998965 8.20493501,1.41700541 8.0155,1.4195 L2.1845,1.4195 C1.78835285,1.41380517 1.46186872,1.72890031 1.4535,2.125 Z M4.369,4.5445 C3.9770159,4.5445 3.65925,4.2267341 3.65925,3.83475 C3.65925,3.4427659 3.9770159,3.125 4.369,3.125 L5.831,3.125 C6.08456925,3.125 6.3188769,3.26027759 6.44566153,3.479875 C6.57244616,3.69947241 6.57244616,3.97002759 6.44566153,4.189625 C6.3188769,4.40922241 6.08456925,4.5445 5.831,4.5445 L4.369,4.5445 Z M4.40725,13.50225 C4.40725,13.1102659 4.7250159,12.7925 5.117,12.7925 C5.37056937,12.7924998 5.6048772,12.9277774 5.73166193,13.1473749 C5.85844666,13.3669723 5.85844666,13.6375277 5.73166193,13.8571251 C5.6048772,14.0767226 5.37056937,14.2120002 5.117,14.212 C4.7250159,14.212 4.40725,13.8942341 4.40725,13.50225 Z" id="icon"></path>
                            </g>
                        </g>
                    </g>
                </g>
            </g>
        </g>
    </g>
</svg>