<?xml version="1.0" encoding="UTF-8" standalone="no"?>
<!DOCTYPE svg PUBLIC "-//W3C//DTD SVG 1.1//EN" "http://www.w3.org/Graphics/SVG/1.1/DTD/svg11.dtd">
<svg width="100%" height="100%" viewBox="0 0 4142 8275" version="1.1" xmlns="http://www.w3.org/2000/svg" xmlns:xlink="http://www.w3.org/1999/xlink" xml:space="preserve" xmlns:serif="http://www.serif.com/" style="fill-rule:evenodd;clip-rule:evenodd;">
    <g transform="matrix(4.16667,0,0,4.16667,0,0)">
        <g transform="matrix(1,0,0,1,6,0)">
            <g id="Page-1">
                <g id="iPhone-11---Concept---Line" serif:id="iPhone-11---Concept-/-Line">
                    <g id="Line">
                        <g id="Apple-iPhone-11---Black">
                            <g id="Shadow" transform="matrix(1,0,0,1,23,1920)">
                                <g style="filter:url(#_Effect1);">
                                    <g id="Outer-Shadow" opacity="0.12">
                                        <path id="path-1" d="M468,30C726.469,30 936,22.549 936,13.358C936,4.166 649.008,0 468,0C286.992,-0 0,4.166 0,13.358C0,22.549 209.531,30 468,30Z"/>
                                    </g>
                                </g>
                                <g style="filter:url(#_Effect2);">
                                    <g id="Middle-Shadow" opacity="0.08">
                                        <path id="path-3" d="M468.5,26C718.409,26 921,20.039 921,12.686C921,5.333 643.513,2 468.5,2C293.487,2 16,5.333 16,12.686C16,20.039 218.591,26 468.5,26Z"/>
                                    </g>
                                </g>
                                <g style="filter:url(#_Effect3);">
                                    <g id="Inner-Shadow" opacity="0.24">
                                        <path id="path-5" d="M469.5,19C702.288,19 891,16.02 891,12.343C891,8.667 632.523,7 469.5,7C306.477,7 48,8.667 48,12.343C48,16.02 236.712,19 469.5,19Z"/>
                                    </g>
                                </g>
                            </g>
                            <g id="Device">
                                <g id="Body">
                                    <g id="Phone-Shape">
                                        <path id="Combined-Shape" d="M796.599,0C841.049,0 866.959,5.003 894.023,19.477C919.922,33.328 940.672,54.078 954.523,79.977C968.997,107.041 974,132.951 974,177.401L974,441.02L974.201,441.072C975.791,441.51 977.612,442.49 978.61,443.85C978.828,444.147 979,445.086 979,445.357L979,649.169C979,649.459 978.758,650.922 978.609,651.277C977.763,653.3 976.301,653.806 974.002,654.96L974,1756.6C974,1801.05 968.997,1826.96 954.523,1854.02C940.672,1879.92 919.922,1900.67 894.023,1914.52C866.959,1929 841.049,1934 796.599,1934L181.401,1934C136.951,1934 111.041,1929 83.977,1914.52C58.078,1900.67 37.328,1879.92 23.477,1854.02C9.003,1826.96 4,1801.05 4,1756.6L4,698.462C2.265,697.601 1.107,696.97 0.391,695.24C0.242,694.881 0,693.403 0,693.11L0,567.401C0,567.127 0.172,566.179 0.39,565.879C1.224,564.731 2.633,563.851 4.001,563.335L4,530.462C2.265,529.601 1.107,528.97 0.391,527.24C0.242,526.881 0,525.403 0,525.11L0,399.401C0,399.127 0.172,398.179 0.39,397.879C1.224,396.731 2.633,395.851 4.001,395.335L4,336.885C1.714,336.388 0,334.34 0,331.89L0,269.11C0,266.66 1.714,264.612 4,264.115L4,177.401C4,132.951 9.003,107.041 23.477,79.977C37.328,54.078 58.078,33.328 83.977,19.477C111.041,5.003 136.951,0 181.401,0L796.599,0ZM796.599,20L181.401,20C140.051,20 117.23,24.374 93.409,37.114C70.996,49.1 53.1,66.996 41.114,89.409C28.502,112.991 24.088,135.595 24.001,176.166L24,177.401L24,1756.6C24,1797.95 28.374,1820.77 41.114,1844.59C53.1,1867 70.996,1884.9 93.409,1896.89C116.991,1909.5 139.595,1913.91 180.166,1914L181.401,1914L796.599,1914C837.949,1914 860.77,1909.63 884.591,1896.89C907.004,1884.9 924.9,1867 936.886,1844.59C949.498,1821.01 953.912,1798.4 953.999,1757.83L954,1756.6L954,177.401C954,136.051 949.626,113.23 936.886,89.409C924.9,66.996 907.004,49.1 884.591,37.114C860.77,24.374 837.949,20 796.599,20Z" style="fill:rgb(205,199,222);fill-rule:nonzero;"/>
                                    </g>
                                    <g id="Plug" transform="matrix(1,0,0,1,436,1931)">
                                        <g opacity="0.4">
                                            <path d="M14.4,0L93.6,0C100.8,0 105.6,1 108,3L0,3C2.4,1 7.2,0 14.4,0Z"/>
                                        </g>
                                    </g>
                                    <g id="Antenna-Bands" transform="matrix(1,0,0,1,4,190)">
                                        <g opacity="0.2">
                                            <rect id="Antenna-Band" x="0" y="0" width="20" height="19"/>
                                            <rect id="Antenna-Band1" serif:id="Antenna-Band" x="950" y="0" width="20" height="19"/>
                                            <rect id="Antenna-Band2" serif:id="Antenna-Band" x="0" y="1535" width="20" height="19"/>
                                            <rect id="Antenna-Band3" serif:id="Antenna-Band" x="950" y="1535" width="20" height="19"/>
                                        </g>
                                    </g>
                                </g>
                                <g id="Front" transform="matrix(1,0,0,1,433,73)">
                                    <g id="Speaker" transform="matrix(1,0,0,1,0,4)">
                                        <path id="Mask" d="M112,9C112,4.033 107.967,0 103,0L9,0C4.033,0 0,4.033 0,9C0,13.967 4.033,18 9,18L103,18C107.967,18 112,13.967 112,9Z" style="fill:rgb(205,199,222);"/>
                                    </g>
                                    <g id="Camera" transform="matrix(1,0,0,1,140,0)">
                                        <circle id="Oval-" cx="12.5" cy="12.5" r="12.5" style="fill:rgb(205,199,222);"/>
                                        <circle id="Mask1" serif:id="Mask" cx="12.5" cy="12.5" r="7.5" style="fill-opacity:0.2;"/>
                                    </g>
                                </g>
                            </g>
                            <g id="Screen" transform="matrix(1,0,0,1,75,71)">
                                <g opacity="0.2">
                                    <path d="M171,2.5L106.401,2.5C70.111,2.5 56.916,6.19 43.64,13.291C30.556,20.288 20.288,30.556 13.291,43.64C6.19,56.916 2.5,70.111 2.5,106.401L2.5,1685.6C2.5,1721.89 6.19,1735.08 13.291,1748.36C20.288,1761.44 30.556,1771.71 43.64,1778.71C56.916,1785.81 70.111,1789.5 106.401,1789.5L721.599,1789.5C757.889,1789.5 771.084,1785.81 784.36,1778.71C797.444,1771.71 807.712,1761.44 814.709,1748.36C821.81,1735.08 825.5,1721.89 825.5,1685.6L825.5,106.401C825.5,70.111 821.81,56.916 814.709,43.64C807.712,30.556 797.444,20.288 784.36,13.291C771.084,6.19 757.889,2.5 721.599,2.5L657,2.5C654.101,2.5 651.476,3.675 649.575,5.575C647.675,7.476 646.5,10.101 646.495,13.156C645.709,25.704 643.298,33.786 639.393,41.089C634.711,49.842 627.842,56.711 619.089,61.393C610.488,65.992 600.842,68.5 584.074,68.5L243.926,68.5C227.158,68.5 217.512,65.992 208.911,61.393C200.158,56.711 193.289,49.842 188.607,41.089C184.699,33.78 182.201,25.777 181.5,13C181.5,10.101 180.325,7.476 178.425,5.575C176.524,3.675 173.899,2.5 171,2.5Z" style="fill:none;stroke:rgb(29,33,41);stroke-width:5px;"/>
                                </g>
                            </g>
                        </g>
                    </g>
                </g>
            </g>
        </g>
    </g>
    <defs>
        <filter id="_Effect1" filterUnits="userSpaceOnUse" x="-102" y="-102" width="1140" height="234">
            <feGaussianBlur in="SourceGraphic" stdDeviation="17"/>
        </filter>
        <filter id="_Effect2" filterUnits="userSpaceOnUse" x="-26" y="-40" width="989" height="108">
            <feGaussianBlur in="SourceGraphic" stdDeviation="7"/>
        </filter>
        <filter id="_Effect3" filterUnits="userSpaceOnUse" x="24" y="-17" width="891" height="60">
            <feGaussianBlur in="SourceGraphic" stdDeviation="4"/>
        </filter>
    </defs>
</svg>
