<?xml version="1.0" encoding="UTF-8"?>
<svg width="8px" height="6px" viewBox="0 0 8 6" version="1.1" xmlns="http://www.w3.org/2000/svg" xmlns:xlink="http://www.w3.org/1999/xlink">
    <!-- Generator: Sketch 52.2 (67145) - http://www.bohemiancoding.com/sketch -->
    <title>icon</title>
    <desc>Created with Sketch.</desc>
    <g id="KIT---1280x800" stroke="none" stroke-width="1" fill="none" fill-rule="evenodd">
        <g id="Style-Guide---KIT-Desktop-(1280x800)" transform="translate(-635.000000, -3064.000000)" fill="#AEB2BA">
            <g id="4-(States)" transform="translate(130.000000, 2991.000000)">
                <g id="Hover" transform="translate(421.000000, 0.000000)">
                    <g id="Check" transform="translate(78.000000, 66.000000)">
                        <path d="M14,8.17205881 C13.9985614,8.04186924 13.9458746,7.91747777 13.8533347,7.82578746 L13.1533413,7.13990381 C12.957377,6.9533654 12.6493122,6.9533654 12.4533479,7.13990381 L9.06671315,10.456118 L7.54672747,8.97114656 C7.4544742,8.87735779 7.32836255,8.82452774 7.19673076,8.82452774 C7.06509898,8.82452774 6.93898732,8.87735779 6.84673406,8.97114656 L6.14007405,9.65703021 C6.04844356,9.74605571 5.99776987,9.86898121 6.00007537,9.9966425 C5.99901816,10.1260257 6.04936332,10.2505489 6.14007405,10.3429139 L8.01338974,12.1674975 L8.71338314,12.8533812 C8.8056364,12.94717 8.93174806,13 9.06337984,13 C9.19501163,13 9.32112328,12.94717 9.41337655,12.8533812 L10.1200366,12.1674975 L13.8533347,8.51833017 C13.9458746,8.42663986 13.9985614,8.30224838 14,8.17205881 Z" id="icon"></path>
                    </g>
                </g>
            </g>
        </g>
    </g>
</svg>