<?xml version="1.0" encoding="UTF-8"?>
<svg width="5px" height="6px" viewBox="0 0 5 6" version="1.1" xmlns="http://www.w3.org/2000/svg" xmlns:xlink="http://www.w3.org/1999/xlink">
    <!-- Generator: Sketch 52.2 (67145) - http://www.bohemiancoding.com/sketch -->
    <title>icon</title>
    <desc>Created with Sketch.</desc>
    <g id="KIT---1280x800" stroke="none" stroke-width="1" fill="none" fill-rule="evenodd">
        <g id="Style-Guide---KIT-Desktop-(1280x800)" transform="translate(-209.000000, -4534.000000)" fill="#D8D8D8">
            <g id="+-(States)" transform="translate(203.000000, 4528.000000)">
                <g id="Static">
                    <path d="M9.07471264,8.08528736 L10.6149425,8.08528736 C10.8276039,8.08528736 11,8.25768346 11,8.47034483 L11,8.8554023 C10.9974777,9.06607976 10.8256341,9.23535856 10.6149425,9.23471264 L9.07471264,9.23471264 L9.07471264,10.7749425 C9.07471264,10.9876039 8.90231654,11.16 8.68965517,11.16 L8.31034483,11.16 C8.09768346,11.16 7.92528736,10.9876039 7.92528736,10.7749425 L7.92528736,9.23471264 L6.38505747,9.23471264 C6.1743659,9.23535856 6.00252227,9.06607976 6,8.8554023 L6,8.47034483 C6,8.25768346 6.1723961,8.08528736 6.38505747,8.08528736 L7.92528736,8.08528736 L7.92528736,6.54505747 C7.92528736,6.3323961 8.09768346,6.16 8.31034483,6.16 L8.68965517,6.16 C8.90231654,6.16 9.07471264,6.3323961 9.07471264,6.54505747 L9.07471264,8.08528736 Z" id="icon"></path>
                </g>
            </g>
        </g>
    </g>
</svg>