<?xml version="1.0" encoding="UTF-8"?>
<svg width="9px" height="11px" viewBox="0 0 9 11" version="1.1" xmlns="http://www.w3.org/2000/svg" xmlns:xlink="http://www.w3.org/1999/xlink">
    <!-- Generator: Sketch 52.5 (67469) - http://www.bohemiancoding.com/sketch -->
    <title>icon</title>
    <desc>Created with Sketch.</desc>
    <g id="KIT---1280x800" stroke="none" stroke-width="1" fill="none" fill-rule="evenodd">
        <g id="Style-Guide---KIT-Desktop-(1280x800)" transform="translate(-207.000000, -4772.000000)" fill="#AEB2BA">
            <g id="Replace-(States)" transform="translate(201.000000, 4767.000000)">
                <g id="Static">
                    <path d="M6.46356354,10.8687174 C6.40754549,10.3850385 6.45169141,9.89431319 6.59296097,9.43033776 C7.14052344,7.83562676 8.58731988,6.78194758 10.1966793,6.80580616 L10.1966793,5.82416317 C10.2007804,5.79744045 10.2180043,5.77500363 10.2419489,5.76519227 C10.2658935,5.75538091 10.2929787,5.75966205 10.313137,5.77644442 L12.4158452,7.25572586 C12.4310581,7.26783648 12.44,7.28676338 12.44,7.3068531 C12.44,7.32694282 12.4310581,7.34586973 12.4158452,7.35798034 L10.313137,8.83726179 C10.2929787,8.85404416 10.2658935,8.85832529 10.2419489,8.84851393 C10.2180043,8.83870257 10.2007804,8.81626575 10.1966793,8.78954303 L10.1966793,7.80790004 C9.14091133,7.80485299 8.17514374,8.43390172 7.70577884,9.43033776 C7.54605842,9.79011418 7.47273793,10.1857481 7.49227309,10.5824049 C7.52713432,11.1393684 7.73910509,11.6677056 8.09397112,12.0821372 C8.1830208,12.1869861 8.22361551,12.3278986 8.20490516,12.4672117 C8.1861948,12.6065249 8.11008674,12.7300369 7.99692305,12.8047355 C7.76610912,12.9656238 7.4584226,12.9250997 7.27229746,12.709298 C6.83408395,12.1947976 6.5523728,11.5536571 6.46356354,10.8687174 Z M12.7911422,9.43069274 C13.1448757,9.84872332 13.3565717,10.3789264 13.3928685,10.9377457 C13.4124046,11.3345351 13.3390807,11.7303012 13.1793527,12.0901979 C12.7112252,13.0872771 11.7438299,13.7149187 10.6883353,13.7063587 L10.6883353,12.7312068 C10.684234,12.7044752 10.6670094,12.6820309 10.6430636,12.6722162 C10.6191179,12.6624016 10.5920315,12.6666842 10.5718722,12.6834721 L8.4690653,14.1632481 C8.45135502,14.1718018 8.44,14.1904505 8.44,14.2109828 C8.44,14.2315151 8.45135502,14.2501638 8.4690653,14.2587175 L10.565402,15.7453127 C10.5866864,15.761491 10.6145236,15.7645323 10.638504,15.7532993 C10.6624844,15.7420664 10.6789963,15.7182509 10.6818652,15.6907588 L10.6818652,14.7156069 C12.2919013,14.7415581 13.7398024,13.6867714 14.2857527,12.0901979 C14.6364246,10.9488115 14.3795951,9.69689065 13.6128545,8.81014153 C13.42632,8.59508258 13.1192176,8.55462373 12.8881949,8.71467211 C12.7753188,8.78798082 12.6991987,8.91037484 12.6804482,9.04870952 C12.6616977,9.18704421 12.7022569,9.32700595 12.7911422,9.43069274 Z" id="icon"></path>
                </g>
            </g>
        </g>
    </g>
</svg>