<?xml version="1.0" encoding="UTF-8"?>
<svg id="trash" viewBox="0 0 15 15" width="100%" height="100%" version="1.1" xmlns="http://www.w3.org/2000/svg" xmlns:xlink="http://www.w3.org/1999/xlink">
  <path data-name="-e-Trash (24x24)" class="cls-1" d="M14.042 3.75h-.917v8.75a2.294 2.294 0 0 1-2.5 2.5h-6.25a2.294 2.294 0 0 1-2.5-2.5V3.75H.958a.94.94 0 1 1 0-1.88H5A1.874 1.874 0 0 1 6.875 0h1.25A1.875 1.875 0 0 1 10 1.87h4.042a.94.94 0 1 1 0 1.88zm-2.792 0v8.75a.624.624 0 0 1-.625.62h-6.25a.624.624 0 0 1-.625-.62V3.75h7.5zM5.625 5h.625a.624.624 0 0 1 .625.62v5.63a.624.624 0 0 1-.625.62h-.625A.624.624 0 0 1 5 11.25V5.62A.624.624 0 0 1 5.625 5zM8.75 5h.625a.624.624 0 0 1 .625.62v5.63a.624.624 0 0 1-.625.62H8.75a.624.624 0 0 1-.625-.62V5.62A.624.624 0 0 1 8.75 5z" fill-rule="evenodd"></path>
</svg>
