<?xml version="1.0" encoding="UTF-8" standalone="no"?>
<!DOCTYPE svg PUBLIC "-//W3C//DTD SVG 1.1//EN" "http://www.w3.org/Graphics/SVG/1.1/DTD/svg11.dtd">
<svg width="100%" height="100%" viewBox="0 0 1000 567" version="1.1" xmlns="http://www.w3.org/2000/svg" xmlns:xlink="http://www.w3.org/1999/xlink" xml:space="preserve" xmlns:serif="http://www.serif.com/" style="fill-rule:evenodd;clip-rule:evenodd;stroke-linejoin:round;stroke-miterlimit:2;">
    <g transform="matrix(4.16667,0,0,4.16667,0,0)">
        <g id="_1---Scetch---Violet---240" serif:id="1---Scetch---Violet---240">
            <rect id="Background" x="0" y="0" width="240" height="136" style="fill:rgb(155,147,242);"/>
            <path id="Rectangle" d="M23.879,8.364L25.636,10.121C26.121,10.607 26.121,11.393 25.636,11.879L23.879,13.636C23.393,14.121 22.607,14.121 22.121,13.636L20.364,11.879C19.879,11.393 19.879,10.607 20.364,10.121L22.121,8.364C22.607,7.879 23.393,7.879 23.879,8.364Z" style="fill:white;fill-opacity:0.8;"/>
            <g transform="matrix(1,0,0,1,127,31)">
                <path id="Rectangle-Copy-9" d="M43,6.238C43,2.795 40.205,0 36.762,0L6.238,0C2.795,0 0,2.795 0,6.238L0,79.762C0,83.205 2.795,86 6.238,86L36.762,86C40.205,86 43,83.205 43,79.762L43,6.238Z" style="fill:white;"/>
                <path id="Mask" d="M10.348,2.5C10.677,2.5 10.944,2.768 10.944,3.099C10.975,3.658 11.084,4.014 11.257,4.337C11.461,4.72 11.76,5.02 12.142,5.225C12.523,5.43 12.952,5.539 13.695,5.539L29.305,5.539C30.048,5.539 30.477,5.43 30.858,5.225C31.24,5.02 31.539,4.72 31.743,4.337C31.916,4.014 32.021,3.655 32.056,3.099C32.056,2.768 32.323,2.5 32.652,2.5L35.617,2.5C37.315,2.5 37.931,2.677 38.551,3.01C39.172,3.343 39.659,3.832 39.991,4.455C40.323,5.078 40.5,5.695 40.5,7.399L40.5,78.601C40.5,80.305 40.323,80.922 39.991,81.545C39.659,82.168 39.172,82.657 38.551,82.99C37.931,83.323 37.315,83.5 35.617,83.5L7.383,83.5C5.685,83.5 5.069,83.323 4.449,82.99C3.828,82.657 3.341,82.168 3.009,81.545C2.677,80.922 2.5,80.305 2.5,78.601L2.5,7.399C2.5,5.695 2.677,5.078 3.009,4.455C3.341,3.832 3.828,3.343 4.449,3.01C5.069,2.677 5.685,2.5 7.383,2.5L10.348,2.5Z" style="fill:rgb(155,147,242);"/>
            </g>
            <path id="Rectangle-Copy-10" d="M211,45.743C211,43.677 209.323,42 207.257,42L184.743,42C182.677,42 181,43.677 181,45.743L181,103.257C181,105.323 182.677,107 184.743,107L207.257,107C209.323,107 211,105.323 211,103.257L211,45.743Z" style="fill:white;fill-opacity:0.6;"/>
            <path id="Rectangle-Copy-11" d="M223.743,42L240,42L240,107L223.743,107C221.676,107 220,105.324 220,103.257L220,45.743C220,43.676 221.676,42 223.743,42Z" style="fill:white;fill-opacity:0.6;"/>
            <path id="Rectangle-Copy-7" d="M32,125C32,124.448 31.552,124 31,124L21,124C20.448,124 20,124.448 20,125C20,125.552 20.448,126 21,126L31,126C31.552,126 32,125.552 32,125Z" style="fill:white;fill-opacity:0.6;"/>
            <path id="Rectangle-Copy-12" d="M220,125C220,124.448 219.552,124 219,124L199,124C198.448,124 198,124.448 198,125C198,125.552 198.448,126 199,126L219,126C219.552,126 220,125.552 220,125Z" style="fill:white;fill-opacity:0.6;"/>
            <path id="Rectangle-Copy-8" d="M48,125C48,124.448 47.552,124 47,124L37,124C36.448,124 36,124.448 36,125C36,125.552 36.448,126 37,126L47,126C47.552,126 48,125.552 48,125Z" style="fill:white;fill-opacity:0.6;"/>
            <g id="Text-Buttons-Copy-4" serif:id="Text+Buttons-Copy-4">
                <g id="Group" transform="matrix(1,0,0,1,36,55)">
                    <path id="Rectangle1" serif:id="Rectangle" d="M50,2C50,0.896 49.104,0 48,0L2,0C0.896,0 0,0.896 0,2C0,3.104 0.896,4 2,4L48,4C49.104,4 50,3.104 50,2Z" style="fill:white;"/>
                    <path id="Rectangle-Copy" d="M25,10C25,8.896 24.104,8 23,8L2,8C0.896,8 0,8.896 0,10C0,11.104 0.896,12 2,12L23,12C24.104,12 25,11.104 25,10Z" style="fill:white;"/>
                    <path id="Rectangle-Copy-13" d="M66,10C66,8.896 65.104,8 64,8L31,8C29.896,8 29,8.896 29,10C29,11.104 29.896,12 31,12L64,12C65.104,12 66,11.104 66,10Z" style="fill:white;"/>
                </g>
                <g id="Group-2" transform="matrix(1,0,0,1,36,74)">
                    <g opacity="0.8">
                        <path id="Rectangle-Copy-2" d="M53,1C53,0.448 52.552,0 52,0L1,0C0.448,0 0,0.448 0,1C0,1.552 0.448,2 1,2L52,2C52.552,2 53,1.552 53,1Z" style="fill:white;"/>
                        <path id="Rectangle-Copy-3" d="M18,6C18,5.448 17.552,5 17,5L1,5C0.448,5 0,5.448 0,6C0,6.552 0.448,7 1,7L17,7C17.552,7 18,6.552 18,6Z" style="fill:white;"/>
                        <path id="Rectangle-Copy-14" d="M46,6C46,5.448 45.552,5 45,5L22,5C21.448,5 21,5.448 21,6C21,6.552 21.448,7 22,7L45,7C45.552,7 46,6.552 46,6Z" style="fill:white;"/>
                        <path id="Rectangle-Copy-4" d="M35,11C35,10.448 34.552,10 34,10L1,10C0.448,10 0,10.448 0,11C0,11.552 0.448,12 1,12L34,12C34.552,12 35,11.552 35,11Z" style="fill:white;"/>
                    </g>
                </g>
                <g id="Group-3" transform="matrix(1,0,0,1,36,93)">
                    <path id="Rectangle-Copy-5" d="M22,1.248C22,0.559 21.441,0 20.752,0L1.248,0C0.559,0 0,0.559 0,1.248L0,5.752C0,6.441 0.559,7 1.248,7L20.752,7C21.441,7 22,6.441 22,5.752L22,1.248Z" style="fill:white;"/>
                    <path id="Rectangle-Copy-6" d="M48,1.248C48,0.559 47.441,0 46.752,0L27.248,0C26.559,0 26,0.559 26,1.248L26,5.752C26,6.441 26.559,7 27.248,7L46.752,7C47.441,7 48,6.441 48,5.752L48,1.248Z" style="fill:white;"/>
                </g>
            </g>
            <g transform="matrix(1,0,0,1,202,9)">
                <g opacity="0.6">
                    <circle id="Oval" cx="2" cy="2" r="2" style="fill:white;"/>
                    <circle id="Oval-Copy" cx="9" cy="2" r="2" style="fill:white;"/>
                    <circle id="Oval-Copy-2" cx="16" cy="2" r="2" style="fill:white;"/>
                </g>
            </g>
        </g>
    </g>
</svg>
