<?xml version="1.0" encoding="UTF-8" standalone="no"?>
<!DOCTYPE svg PUBLIC "-//W3C//DTD SVG 1.1//EN" "http://www.w3.org/Graphics/SVG/1.1/DTD/svg11.dtd">
<svg width="100%" height="100%" viewBox="0 0 27780 59655" version="1.1" xmlns="http://www.w3.org/2000/svg" xmlns:xlink="http://www.w3.org/1999/xlink" xml:space="preserve" xmlns:serif="http://www.serif.com/" style="fill-rule:evenodd;clip-rule:evenodd;">
    <g transform="matrix(4.16667,0,0,4.16667,0,0)">
        <g transform="matrix(4.16667,0,0,4.16667,150,0)">
            <g>
                <g id="Page-1">
                    <g id="Galaxy-S20---Black">
                        <g id="Shadow" transform="matrix(1,0,0,1,7,3282)">
                            <g style="filter:url(#_Effect1);">
                                <g id="_3" serif:id="3" opacity="0.06">
                                    <ellipse id="path-1" cx="757" cy="47.5" rx="750" ry="47.5"/>
                                </g>
                            </g>
                            <g style="filter:url(#_Effect2);">
                                <g id="_2" serif:id="2" opacity="0.1">
                                    <ellipse id="path-3" cx="756.5" cy="48" rx="756.5" ry="22"/>
                                </g>
                            </g>
                            <g style="filter:url(#_Effect3);">
                                <g id="_1" serif:id="1" opacity="0.1">
                                    <ellipse id="path-5" cx="757" cy="48" rx="740" ry="17"/>
                                </g>
                            </g>
                        </g>
                        <g id="Device">
                            <g id="Base-Copy">
                                <path id="Combined-Shape" d="M1292.12,-0C1374.14,-0 1403.88,8.54 1433.87,24.576C1463.86,40.612 1487.39,64.145 1503.42,94.13C1519.46,124.115 1528,153.858 1528,235.877L1528,662.224C1533.05,662.727 1537,666.99 1537,672.175L1537,1075.17C1537,1080.36 1533.05,1084.62 1528,1085.13L1528,1303.05C1533.05,1303.55 1537,1307.82 1537,1313L1537,1517C1537,1522.18 1533.05,1526.45 1528,1526.95L1528,3100.41C1528,3181.98 1519.51,3211.56 1503.56,3241.38C1487.61,3271.2 1464.2,3294.61 1434.38,3310.56C1404.56,3326.51 1374.98,3335 1293.4,3335L234.595,3335C153.022,3335 123.441,3326.51 93.619,3310.56C63.796,3294.61 40.392,3271.2 24.443,3241.38C8.494,3211.56 -0,3181.98 -0,3100.41L-0,235.877C-0,153.858 8.54,124.115 24.576,94.13C40.612,64.145 64.145,40.612 94.13,24.576C124.115,8.54 153.858,-0 235.877,-0L1292.12,-0ZM1296.92,17.174L231.084,17.174C156.643,17.174 129.648,24.925 102.433,39.48C75.219,54.034 53.86,75.393 39.306,102.607C24.896,129.55 17.156,156.277 17.002,229.039L17,231.258L17,3105.2C17,3179.19 24.705,3206.03 39.172,3233.08C53.64,3260.13 74.87,3281.36 101.922,3295.83C128.703,3310.15 155.27,3317.85 227.597,3318L1298.2,3318C1372.19,3318 1399.03,3310.3 1426.08,3295.83C1453.13,3281.36 1474.36,3260.13 1488.83,3233.08C1503.15,3206.3 1510.85,3179.73 1511,3107.4L1511,231.258C1511,156.817 1503.25,129.822 1488.69,102.607C1474.14,75.393 1452.78,54.034 1425.57,39.48C1398.35,24.925 1371.36,17.174 1296.92,17.174Z" style="fill:white;"/>
                            </g>
                            <g id="Antenna-Bands" transform="matrix(1,0,0,1,279,0)">
                                <g opacity="0.2">
                                    <rect id="Top-Antenna-Band-Copy-3" x="0" y="3318" width="22" height="17"/>
                                    <rect id="Top-Antenna-Band-Copy-4" x="948" y="3318" width="22" height="17"/>
                                    <rect id="Top-Antenna-Band-Copy" x="255" y="0" width="22" height="17.023"/>
                                </g>
                            </g>
                        </g>
                        <g id="Screen" transform="matrix(1,0,0,1,44,57)">
                            <g opacity="0.2">
                                <path d="M1251.55,3.5L188.446,3.5C123.91,3.5 100.459,10.096 76.852,22.721C53.516,35.201 35.201,53.516 22.721,76.852C10.096,100.459 3.5,123.91 3.5,188.446L3.5,3006.43C3.5,3072.74 10.281,3096.84 23.255,3121.1C36.084,3145.09 54.91,3163.92 78.899,3176.74C103.157,3189.72 127.255,3196.5 193.573,3196.5L1246.43,3196.5C1312.75,3196.5 1336.84,3189.72 1361.1,3176.74C1385.09,3163.92 1403.92,3145.09 1416.75,3121.1C1429.72,3096.84 1436.5,3072.74 1436.5,3006.43L1436.5,188.446C1436.5,123.91 1429.9,100.459 1417.28,76.852C1404.8,53.516 1386.48,35.201 1363.15,22.721C1339.54,10.096 1316.09,3.5 1251.55,3.5Z" style="fill:none;stroke:rgb(29,33,41);stroke-width:7px;"/>
                            </g>
                        </g>
                        <g id="Camera" transform="matrix(1,0,0,1,724,88)">
                            <circle id="Base" cx="40" cy="40" r="40" style="fill:white;"/>
                            <circle id="Base1" serif:id="Base" cx="40" cy="40" r="25" style="fill-opacity:0.2;"/>
                        </g>
                    </g>
                </g>
            </g>
        </g>
    </g>
    <defs>
        <filter id="_Effect1" filterUnits="userSpaceOnUse" x="-33.32" y="-40.32" width="1580.64" height="175.64">
            <feGaussianBlur in="SourceGraphic" stdDeviation="6.71999"/>
        </filter>
        <filter id="_Effect2" filterUnits="userSpaceOnUse" x="-17.28" y="8.72001" width="1547.56" height="78.56">
            <feGaussianBlur in="SourceGraphic" stdDeviation="2.88"/>
        </filter>
        <filter id="_Effect3" filterUnits="userSpaceOnUse" x="5.48001" y="19.48" width="1503.04" height="57.04">
            <feGaussianBlur in="SourceGraphic" stdDeviation="1.92"/>
        </filter>
    </defs>
</svg>
