<?xml version="1.0" encoding="UTF-8"?>
<svg width="21px" height="17px" viewBox="0 0 21 17" version="1.1" xmlns="http://www.w3.org/2000/svg" xmlns:xlink="http://www.w3.org/1999/xlink">
    <!-- Generator: Sketch 52.2 (67145) - http://www.bohemiancoding.com/sketch -->
    <title>icon</title>
    <desc>Created with Sketch.</desc>
    <g id="KIT---1280x800" stroke="none" stroke-width="1" fill="none" fill-rule="evenodd">
        <g id="Style-Guide---KIT-Desktop-(1280x800)" transform="translate(-64.000000, -2241.000000)" fill="#BFBFC7">
            <g id="Device-Selection---1280x800" transform="translate(64.000000, 2241.000000)">
                <g id="Static">
                    <g id="Desktop">
                        <g id="Static">
                            <g id="desktop">
                                <path d="M19.00345,9.2055 C19.0251182,9.58417119 18.885757,9.95436584 18.6197526,10.2247416 C18.3537482,10.4951173 17.985874,10.6404936 17.6069,10.625 L3.64225,10.625 C3.26205535,10.6448679 2.89156855,10.5008846 2.62456632,10.2294946 C2.3575641,9.95810462 2.21963816,9.58532033 2.2457,9.2055 L2.2457,2.8305 C2.21994229,2.45151994 2.35826764,2.07974243 2.62547928,1.80976598 C2.89269091,1.53978953 3.26302489,1.39764465 3.64225,1.4195 L17.6069,1.4195 C17.9837197,1.40629945 18.3489033,1.55121244 18.6141428,1.81919632 C18.8793823,2.08718019 19.0205286,2.45383615 19.00345,2.8305 L19.00345,9.2055 Z M20.4017,1.6405 C20.4017237,0.739103834 19.6744725,0.00653862473 18.7731,0 L2.47435,0 C1.57250707,0.00607147086 0.844496607,0.738636744 0.84405,1.6405 L0.84405,12.7415 C0.800327671,13.127273 0.932868889,13.512197 1.20482978,13.7892706 C1.47679067,14.0663441 1.85917964,14.2060307 2.2457,14.1695 L7.8319,14.1695 C7.73018344,14.9026915 7.5736278,15.627223 7.36355,16.337 C7.36585046,16.6965212 7.65599054,16.9877961 8.0155,16.9915 L13.2311,16.9915 C13.5906095,16.9877961 13.8807495,16.6965212 13.88305,16.337 C13.6740835,15.6270925 13.5183845,14.9025808 13.41725,14.1695 L19.00345,14.1695 C19.3896516,14.2059073 19.7716532,14.0660476 20.0430473,13.7888791 C20.3144415,13.5117107 20.4462289,13.1268496 20.4017,12.7415 L20.4017,1.6405 Z" id="icon"></path>
                            </g>
                        </g>
                    </g>
                </g>
            </g>
        </g>
    </g>
</svg>