<?xml version="1.0" encoding="UTF-8"?>
<svg width="14px" height="17px" viewBox="0 0 14 17" version="1.1" xmlns="http://www.w3.org/2000/svg" xmlns:xlink="http://www.w3.org/1999/xlink">
    <!-- Generator: Sketch 52.2 (67145) - http://www.bohemiancoding.com/sketch -->
    <title>icon</title>
    <desc>Created with Sketch.</desc>
    <g id="KIT---1280x800" stroke="none" stroke-width="1" fill="none" fill-rule="evenodd">
        <g id="Style-Guide---KIT-Desktop-(1280x800)" transform="translate(-187.000000, -2241.000000)" fill="#BFBFC7">
            <g id="Device-Selection---1280x800" transform="translate(64.000000, 2241.000000)">
                <g id="Static">
                    <g id="Tablet" transform="translate(123.900000, 0.000000)">
                        <g id="Static">
                            <g id="tablet">
                                <path d="M10.625,17 L2.125,17 C0.951394907,17 0,16.0486051 0,14.875 L0,2.125 C0,0.951394907 0.951394907,0 2.125,0 L10.625,0 C11.7986051,0 12.75,0.951394907 12.75,2.125 L12.75,14.875 C12.75,16.0486051 11.7986051,17 10.625,17 Z M1.62563619,1.62563619 C1.49323098,1.7580414 1.41904716,1.93775131 1.4195,2.125 L1.4195,14.875 C1.41904716,15.0622487 1.49323098,15.2419586 1.62563619,15.3743638 C1.7580414,15.506769 1.93775131,15.5809528 2.125,15.5805 L10.625,15.5805 C10.8122487,15.5809528 10.9919586,15.506769 11.1243638,15.3743638 C11.256769,15.2419586 11.3309528,15.0622487 11.3305,14.875 L11.3305,2.125 C11.3309528,1.93775131 11.256769,1.7580414 11.1243638,1.62563619 C10.9919586,1.49323098 10.8122487,1.41904716 10.625,1.4195 L2.125,1.4195 C1.93775131,1.41904716 1.7580414,1.49323098 1.62563619,1.62563619 Z M7.0805,4.5445 L5.6695,4.5445 C5.27613401,4.5421792 4.9578208,4.22386599 4.9555,3.8305 C4.95877253,3.43890633 5.27789522,3.12358272 5.6695,3.125 L7.0805,3.125 C7.47210478,3.12358272 7.79122747,3.43890633 7.7945,3.8305 C7.7921792,4.22386599 7.47386599,4.5421792 7.0805,4.5445 Z M6.392,14.1695 C6.00040633,14.1662275 5.68508272,13.8471048 5.6865,13.4555 C5.68604716,13.2682513 5.76023098,13.0885414 5.89263619,12.9561362 C6.0250414,12.823731 6.20475131,12.7495472 6.392,12.75 C6.78360478,12.7485827 7.10272747,13.0639063 7.106,13.4555 C7.1036792,13.848866 6.78536599,14.1671792 6.392,14.1695 Z" id="icon"></path>
                            </g>
                        </g>
                    </g>
                </g>
            </g>
        </g>
    </g>
</svg>