<?xml version="1.0" encoding="UTF-8"?>
<svg width="16px" height="18px" viewBox="0 0 16 18" version="1.1" xmlns="http://www.w3.org/2000/svg" xmlns:xlink="http://www.w3.org/1999/xlink">
    <!-- Generator: Sketch 52.1 (67048) - http://www.bohemiancoding.com/sketch -->
    <title>icon</title>
    <desc>Created with Sketch.</desc>
    <g id="KIT---1280x800" stroke="none" stroke-width="1" fill="none" fill-rule="evenodd">
        <g id="Style-Guide---KIT-Desktop-(1280x800)" transform="translate(-156.000000, -2016.000000)" fill="#BFBFC7">
            <g id="Toolbar-(States)" transform="translate(117.000000, 1710.000000)">
                <g id="Static">
                    <g id="Background" transform="translate(0.000000, 297.000000)">
                        <g id="Static" transform="translate(39.850000, 8.650000)">
                            <g id="icon">
                                <path d="M13.8159,4.4455 L10.88085,1.4875 C10.456941,1.09998432 9.91164864,0.87165252 9.3381,0.8415 L0.90865,0.8415 C0.408282428,0.843841683 0.00415749239,1.25062784 0.0051,1.751 L0.0051,16.949 C0.00415749239,17.4493722 0.408282428,17.8561583 0.90865,17.8585 L13.5524,17.8585 C14.0529631,17.8566254 14.4573609,17.4495646 14.45595,16.949 L14.45595,6.0095 C14.4243781,5.43106249 14.1989091,4.88011563 13.8159,4.4455 Z M9.639,2.1335 C9.77878875,2.17789702 9.90948848,2.24698939 10.0249,2.3375 L12.96845,5.3125 C13.0607532,5.42915763 13.1310337,5.56165369 13.17585,5.7035 L9.639,5.7035 L9.639,2.1335 Z M13.2515,16.643 L1.20955,16.643 L1.20955,2.057 L8.43455,2.057 L8.43455,6.0095 C8.43313909,6.51006464 8.83753688,6.91712545 9.3381,6.919 L13.2481,6.919 L13.2481,16.643 L13.2515,16.643 Z M12.04705,12.3845 L9.0372,9.35 L5.42385,12.9965 L4.22025,11.781 L2.414,13.6 L2.414,15.4275 L12.04705,15.4275 L12.04705,12.3845 Z M4.22025,10.5655 C4.95880647,10.5723845 5.62855492,10.1330161 5.91636783,9.45281258 C6.20418074,8.77260909 6.05319244,7.98596421 5.5339945,7.46065806 C5.01479656,6.9353519 4.22997136,6.77517372 3.54644828,7.05501162 C2.8629252,7.33484952 2.41575374,7.99941353 2.414,8.738 C2.41083462,9.21996942 2.59943976,9.683419 2.93825212,10.0262174 C3.27706447,10.3690158 3.73827652,10.5630283 4.22025,10.5655 Z"></path>
                            </g>
                        </g>
                    </g>
                </g>
            </g>
        </g>
    </g>
</svg>