<?xml version="1.0" encoding="UTF-8"?>
<svg width="17px" height="18px" viewBox="0 0 17 18" version="1.1" xmlns="http://www.w3.org/2000/svg" xmlns:xlink="http://www.w3.org/1999/xlink">
    <!-- Generator: Sketch 52.1 (67048) - http://www.bohemiancoding.com/sketch -->
    <title>icon</title>
    <desc>Created with Sketch.</desc>
    <g id="KIT---1280x800" stroke="none" stroke-width="1" fill="none" fill-rule="evenodd">
        <g id="Style-Guide---KIT-Desktop-(1280x800)" transform="translate(-156.000000, -2115.000000)" fill="#BFBFC7">
            <g id="Toolbar-(States)" transform="translate(117.000000, 1710.000000)">
                <g id="Static">
                    <g id="Domain" transform="translate(0.000000, 396.000000)">
                        <g id="Static" transform="translate(38.150000, 9.500000)">
                            <g id="icon">
                                <path d="M15.36035,2.4905 C18.2273068,5.35832279 18.6692288,9.85197336 16.4158575,13.223348 C14.1624862,16.5947225 9.8414069,17.9048614 6.09518686,16.3525456 C2.34896681,14.8002299 0.220963881,10.8177942 1.01256381,6.8407075 C1.80416374,2.86362083 5.29489845,-0.000460467715 9.35,7.75207941e-15 C11.6060389,-0.00776138511 13.7710013,0.889330965 15.36035,2.4905 Z M14.60895,13.7615 C15.6420348,12.7304143 16.3483396,11.417734 16.6396,9.9875 C16.41605,10.319 16.20185,10.438 16.06925,9.6985 C15.93325,8.5 14.8291,9.265 14.13465,8.84 C13.4045,9.333 11.76145,7.888 12.04025,9.52 C12.4712,10.2595 14.365,8.534 13.4215,10.0895 C12.81885,11.186 11.21915,13.5915 11.42655,14.8495 C11.4529,16.6685 9.56505,15.2235 8.91395,14.62 C8.4762,13.413 8.7652,11.2965 7.6211,10.7015 C6.3784,10.6505 5.3125,10.5315 4.8314,9.146 C4.54155,8.1515 5.1391,6.6725 6.20415,6.443 C7.7622,5.4655 8.31895,7.5905 9.78095,7.633 C10.23485,7.157 11.4716,7.004 11.5736,6.477 C10.6148,6.307 12.7908,5.6695 11.48265,5.304 C11.1644672,5.29161464 10.8643837,5.45196573 10.6978429,5.72336554 C10.5313021,5.99476535 10.5242502,6.33493125 10.6794,6.613 C9.2803,6.9445 9.2344,4.59 7.89055,5.3295 C7.85655,6.5025 5.695,5.712 7.14255,5.474 C7.6398,5.2615 6.33165,4.624 7.038,4.743 C7.38565,4.726 8.55525,4.318 8.2382,4.0375 C8.89015,3.638 9.4367,5.0065 10.0742,4.0035 C10.53405,3.2385 9.88125,3.094 9.3092,3.485 C8.98365,3.1195 9.88295,2.3375 10.676,1.9975 C10.8974081,1.8909208 11.1400253,1.83571449 11.38575,1.836 C11.78525,2.3035 12.5239,2.38 12.563,1.785 C10.0716518,0.602429995 7.13170518,0.886624834 4.913,2.5245 C5.253,2.686 5.45105,2.8815 5.1204,3.128 C4.8654,3.893 3.8233,4.9215 2.9104,4.777 C2.43453739,5.59602709 2.12192322,6.49951958 1.98985,7.4375 C2.75485,7.6925 2.9325,8.194 2.7676,8.364 C2.38116776,8.72446968 2.11773412,9.19722306 2.0145,9.7155 C2.47325236,12.4625965 4.42740328,14.7236725 7.07906992,15.5755274 C9.73073657,16.4273822 12.6361209,15.7274446 14.60895,13.7615 Z"></path>
                            </g>
                        </g>
                    </g>
                </g>
            </g>
        </g>
    </g>
</svg>