<?xml version="1.0" encoding="UTF-8"?>
<svg width="17px" height="18px" viewBox="0 0 17 18" version="1.1" xmlns="http://www.w3.org/2000/svg" xmlns:xlink="http://www.w3.org/1999/xlink">
    <!-- Generator: Sketch 52.1 (67048) - http://www.bohemiancoding.com/sketch -->
    <title>Icon</title>
    <desc>Created with Sketch.</desc>
    <g id="KIT---1280x800" stroke="none" stroke-width="1" fill="none" fill-rule="evenodd">
        <g id="Style-Guide---KIT-Desktop-(1280x800)" transform="translate(-156.000000, -1818.000000)" fill="#BFBFC7">
            <g id="Toolbar-(States)" transform="translate(117.000000, 1710.000000)">
                <g id="Static">
                    <g id="Icon" transform="translate(0.000000, 99.000000)">
                        <g id="Static" transform="translate(39.000000, 9.500000)">
                            <g id="Icon">
                                <path d="M8.5,17 C17,17 17,15.759 17,8.5 C17,1.241 17,0 8.5,0 C0,0 0,0.901 0,8.5 C0,16.099 0,17 8.5,17 Z M8.5,1.7 C15.26855,1.7 15.3,1.734 15.3,8.5 C15.3,15.266 15.351,15.3 8.5,15.3 C1.649,15.3 1.7,15.3085 1.7,8.5 C1.7,1.6915 1.7306,1.7 8.5,1.7 Z M10.3592244,4.25 C11.6816305,4.25263738 12.7517602,5.32593202 12.7499978,6.64784442 L12.7499978,10.3601218 C12.7499978,11.6800151 11.6796121,12.75 10.3592244,12.75 L6.64077469,12.75 C5.32038697,12.75 4.25000123,11.6800151 4.25000123,10.3601218 L4.25000123,6.64784442 C4.24867771,5.32642354 5.31806586,4.25351493 6.63997777,4.25 L10.3592244,4.25 Z" id="icon"></path>
                            </g>
                        </g>
                    </g>
                </g>
            </g>
        </g>
    </g>
</svg>