<?xml version="1.0" encoding="UTF-8"?>
<svg width="10px" height="18px" viewBox="0 0 10 18" version="1.1" xmlns="http://www.w3.org/2000/svg" xmlns:xlink="http://www.w3.org/1999/xlink">
    <!-- Generator: Sketch 52.1 (67048) - http://www.bohemiancoding.com/sketch -->
    <title>icon</title>
    <desc>Created with Sketch.</desc>
    <g id="KIT---1280x800" stroke="none" stroke-width="1" fill="none" fill-rule="evenodd">
        <g id="Style-Guide---KIT-Desktop-(1280x800)" transform="translate(-160.000000, -1917.000000)" fill="#BFBFC7">
            <g id="Toolbar-(States)" transform="translate(117.000000, 1710.000000)">
                <g id="Static">
                    <g id="Smartphone" transform="translate(0.000000, 198.000000)">
                        <g id="Static" transform="translate(42.400000, 9.500000)">
                            <g id="icon" transform="translate(0.000000, 0.000000)">
                                <path d="M9.53955,-3.41060513e-14 L1.50875,-3.41060513e-14 C1.33066198,0.00155290223 1.16060521,0.0743254855 1.03652305,0.202080607 C0.912440889,0.329835729 0.844658642,0.501942441 0.8483,0.68 L0.8483,16.32 C0.84450139,16.6895175 1.13927889,16.9930207 1.50875,17 L9.53955,17 C9.90895344,16.993481 10.2035084,16.6894242 10.1983,16.32 L10.1983,0.68 C10.2035084,0.310575761 9.90895344,0.00651899324 9.53955,-2.27373675e-13 Z M5.52415,0.5695 C5.65782514,0.570141531 5.7856121,0.624578007 5.87868555,0.720530018 C5.971759,0.816482029 6.02227915,0.945867307 6.01885,1.0795 C6.01091743,1.35138281 5.78532054,1.56605539 5.5133789,1.56049417 C5.24143725,1.55493296 5.02480543,1.33121679 5.02799486,1.05923699 C5.03118429,0.787257187 5.25300273,0.568682598 5.525,0.5695 L5.52415,0.5695 Z M5.54965,16.4305 C5.26055061,16.4384617 4.99553395,16.2702131 4.87973653,16.0051983 C4.76393911,15.7401836 4.82052331,15.4314124 5.022771,15.2246814 C5.2250187,15.0179504 5.53247527,14.9546109 5.7999648,15.0645709 C6.06745432,15.1745309 6.24147218,15.4357956 6.23985,15.725 C6.24234452,15.9102181 6.17091904,16.0887931 6.0413818,16.2212018 C5.91184457,16.3536106 5.73487829,16.4289336 5.54965,16.4305 Z M9.37465,13.8805 C9.37940769,14.0679763 9.23146734,14.2239031 9.044,14.229 L2.00345,14.229 C1.81598266,14.2239031 1.66804231,14.0679763 1.6728,13.8805 L1.6728,2.4905 C1.67273034,2.3063148 1.81933445,2.15556508 2.00345,2.1505 L9.044,2.1505 C9.22811555,2.15556508 9.37471966,2.3063148 9.37465,2.4905 L9.37465,13.8805 Z"></path>
                            </g>
                        </g>
                    </g>
                </g>
            </g>
        </g>
    </g>
</svg>