<?xml version="1.0" encoding="UTF-8"?>
<svg width="17px" height="17px" viewBox="0 0 17 17" version="1.1" xmlns="http://www.w3.org/2000/svg" xmlns:xlink="http://www.w3.org/1999/xlink">
    <!-- Generator: Sketch 52.1 (67048) - http://www.bohemiancoding.com/sketch -->
    <title>icon</title>
    <desc>Created with Sketch.</desc>
    <g id="KIT---1280x800" stroke="none" stroke-width="1" fill="none" fill-rule="evenodd">
        <g id="Style-Guide---KIT-Desktop-(1280x800)" transform="translate(-156.000000, -2066.000000)" fill="#BFBFC7">
            <g id="Toolbar-(States)" transform="translate(117.000000, 1710.000000)">
                <g id="Static">
                    <g id="Social-Networks" transform="translate(0.000000, 347.500000)">
                        <g id="Static" transform="translate(38.150000, 8.500000)">
                            <g id="icon">
                                <path d="M15.99445,3.08175341e-14 C15.3408173,-0.000619853653 14.7352072,0.343172954 14.4007129,0.904732872 C14.0662185,1.46629279 14.0523248,2.16254279 14.36415,2.737 L11.32625,5.7715 C10.4359234,5.07866642 9.18887665,5.07866642 8.29855,5.7715 L5.92875,3.4085 C6.03993504,3.21751073 6.09858782,3.00049545 6.09875,2.7795 C6.09640416,2.09690941 5.54148534,1.54528528 4.85889288,1.54700421 C4.17630042,1.54872314 3.62416687,2.1031351 3.62525889,2.78572885 C3.62635091,3.4683226 4.18025554,4.02096511 4.86285,4.0205 C5.08347635,4.01905159 5.29951054,3.95732753 5.4876,3.842 L7.8574,6.2135 C7.16149344,7.10213545 7.16149344,8.35086455 7.8574,9.2395 L3.94315,13.158 C3.60500698,12.8442067 3.16005308,12.6709664 2.69875,12.6735 C1.67558818,12.6744387 0.846824703,13.5044702 0.847450346,14.5276323 C0.84807599,15.5507944 1.67785394,16.3798117 2.70101615,16.3794991 C3.72417835,16.3791865 4.55344957,15.5496622 4.55345,14.5265 C4.55445137,14.2176176 4.47725409,13.9135071 4.32905,13.6425 L8.2943,9.673 C8.64090808,9.95019221 9.05866502,10.1240121 9.4996,10.1745 L9.4996,13.3195 C8.54885295,13.4801298 7.87976869,14.3424663 7.96036566,15.3033128 C8.04096263,16.2641594 8.84435413,17.0029828 9.808575,17.0029828 C10.7727959,17.0029828 11.5761874,16.2641594 11.6567843,15.3033128 C11.7373813,14.3424663 11.068297,13.4801298 10.11755,13.3195 L10.11755,10.1745 C10.5585201,10.1241472 10.976313,9.95031234 11.32285,9.673 L13.6935,12.0445 C13.4126309,12.52698 13.4914127,13.1380369 13.8854724,13.5335003 C14.2795322,13.9289636 14.8903052,14.0099176 15.3737808,13.7307657 C15.8572563,13.4516138 16.0925044,12.8821794 15.9470243,12.3431897 C15.8015442,11.8042 15.3117244,11.4304705 14.75345,11.4325 C14.5330942,11.4339737 14.3173402,11.4957017 14.12955,11.611 L11.7589,9.2395 C12.4548066,8.35086455 12.4548066,7.10213545 11.7589,6.2135 L14.74665,3.2215 C15.0845323,3.53516565 15.5291742,3.70840274 15.9902,3.706 C17.0135836,3.70717361 17.8441514,2.87850864 17.845325,1.855125 C17.8464986,0.831741359 17.0178336,0.00117360509 15.99445,3.08175341e-14 Z"></path>
                            </g>
                        </g>
                    </g>
                </g>
            </g>
        </g>
    </g>
</svg>