<?xml version="1.0" encoding="UTF-8"?>
<svg width="16px" height="15px" viewBox="0 0 16 15" version="1.1" xmlns="http://www.w3.org/2000/svg" xmlns:xlink="http://www.w3.org/1999/xlink">
    <!-- Generator: Sketch 52.1 (67048) - http://www.bohemiancoding.com/sketch -->
    <title>icon</title>
    <desc>Created with Sketch.</desc>
    <g id="KIT---1280x800" stroke="none" stroke-width="1" fill="none" fill-rule="evenodd">
        <g id="Style-Guide---KIT-Desktop-(1280x800)" transform="translate(-156.000000, -1968.000000)">
            <g id="Toolbar-(States)" transform="translate(117.000000, 1710.000000)">
                <g id="Static">
                    <g id="Store" transform="translate(0.000000, 248.500000)">
                        <g id="Static" transform="translate(39.850000, 10.200000)">
                            <g id="icon">
                                <path d="M13.5579932,3.4085 L11.7492961,3.4085 C11.7492961,1.411 9.62141721,0 7.22457442,0 C4.82773164,0 2.7058108,1.411 2.7058108,3.4085 L0.897113742,3.4085 L0,13.6 L14.45,13.6 L13.5579932,3.4085 Z M3.4,3.4 C3.4,2.465 5.7508,1.7 7.225,1.7 C8.6713,1.7 11.05,2.4395 11.05,3.4 L3.4,3.4 Z" id="Forma_1_копия_3" fill="#BFBFC7"></path>
                                <path d="M8.61416999,8.2705 L7.65465771,9.367 L7.65465771,5.95 L6.8055318,5.95 L6.79449316,9.3755 L5.83498089,8.2705 C5.76101943,8.17789924 5.6490073,8.12398846 5.53056925,8.12398846 C5.4121312,8.12398846 5.30011908,8.17789924 5.22615761,8.2705 C5.05794746,8.47232443 5.05794746,8.76567557 5.22615761,8.9675 L6.9167673,10.9055 C6.99257543,10.9952473 7.10336385,11.0479105 7.22075437,11.05 C7.33821305,11.0471757 7.44897797,10.9946704 7.52559057,10.9055 L9.22384239,8.959 C9.39205254,8.75717557 9.39205254,8.46382443 9.22384239,8.262 C9.14757762,8.17183081 9.03501614,8.12054183 8.9170018,8.12218717 C8.79898747,8.12383252 8.68789656,8.17823964 8.61416999,8.2705 Z" id="Shape_1_копия_3" fill="#F9F9F9"></path>
                            </g>
                        </g>
                    </g>
                </g>
            </g>
        </g>
    </g>
</svg>