<?xml version="1.0" encoding="UTF-8"?>
<svg width="17px" height="18px" viewBox="0 0 17 18" version="1.1" xmlns="http://www.w3.org/2000/svg" xmlns:xlink="http://www.w3.org/1999/xlink">
    <!-- Generator: Sketch 52.1 (67048) - http://www.bohemiancoding.com/sketch -->
    <title>icon</title>
    <desc>Created with Sketch.</desc>
    <g id="KIT---1280x800" stroke="none" stroke-width="1" fill="none" fill-rule="evenodd">
        <g id="Style-Guide---KIT-Desktop-(1280x800)" transform="translate(-156.000000, -1719.000000)" fill="#BFBFC7">
            <g id="Toolbar-(States)" transform="translate(117.000000, 1710.000000)">
                <g id="Static">
                    <g id="Templates" transform="translate(0.000000, -0.000000)">
                        <g id="Static" transform="translate(39.000000, 9.500000)">
                            <g id="icon">
                                <path d="M15.1575383,0 L1.84246087,0 C0.824209914,0.00234573697 -2.70300665e-06,0.828296498 0,1.84634635 L0,15.1536537 C0.00279152644,16.170546 0.82537412,16.9948633 1.84246087,17 L15.1575383,17 C16.1746251,16.9948633 16.9972077,16.170546 16.9999992,15.1536537 L16.9999992,1.84634635 C17.0009399,0.82790894 16.1761791,0.0014088432 15.1575383,0 Z M14.4516667,1.7 C14.9208906,1.70092005 15.3006123,2.08188482 15.2999993,2.55110975 C15.2993862,3.02033468 14.9186703,3.4003059 14.4494455,3.39999982 C13.9802207,3.39969373 13.6000009,3.01922615 13.6,2.55000082 C13.6018325,2.08066923 13.9823328,1.70091309 14.4516667,1.7 Z M11.8983391,1.70000161 C12.2426535,1.69933387 12.5533583,1.9064519 12.6851968,2.22452662 C12.8170354,2.54260134 12.7439609,2.90879189 12.5001361,3.15190172 C12.2563113,3.39501154 11.8899079,3.46701032 11.5722218,3.33423814 C11.2545358,3.20146596 11.0483312,2.89015413 11.0500102,2.54584304 C11.0518356,2.07848507 11.4309779,1.70045445 11.8983391,1.70000161 Z M15.3,15.3 L1.7,15.3 L1.7,4.25 L15.3,4.25 L15.3,15.3 Z M4.25,11.05 L6.8,11.05 L6.8,13.6 L4.25,13.6 L4.25,11.05 Z M10.2,11.05 L12.75,11.05 L12.75,13.6 L10.2,13.6 L10.2,11.05 Z M4.25,6.8 L6.8,6.8 L6.8,9.35 L4.25,9.35 L4.25,6.8 Z M10.2,6.8 L12.75,6.8 L12.75,9.35 L10.2,9.35 L10.2,6.8 Z"></path>
                            </g>
                        </g>
                    </g>
                </g>
            </g>
        </g>
    </g>
</svg>