<?xml version="1.0" encoding="UTF-8"?>
<svg width="17px" height="17px" viewBox="0 0 17 17" version="1.1" xmlns="http://www.w3.org/2000/svg" xmlns:xlink="http://www.w3.org/1999/xlink">
    <!-- Generator: Sketch 52.1 (67048) - http://www.bohemiancoding.com/sketch -->
    <title>icon</title>
    <desc>Created with Sketch.</desc>
    <g id="KIT---1280x800" stroke="none" stroke-width="1" fill="none" fill-rule="evenodd">
        <g id="Style-Guide---KIT-Desktop-(1280x800)" transform="translate(-156.000000, -1769.000000)" fill="#BFBFC7">
            <g id="Toolbar-(States)" transform="translate(117.000000, 1710.000000)">
                <g id="Static">
                    <g id="Text" transform="translate(0.000000, 50.500000)">
                        <g id="Static" transform="translate(39.000000, 8.500000)">
                            <g id="icon">
                                <path d="M4.08,15.5635 L2.88065,15.5635 L2.88065,14.127 L1.445,14.127 L1.445,12.9285 L2.465,11.9085 L5.1,14.5435 L4.08,15.5635 Z M9.945,5.151 C9.94535327,5.22402047 9.9169573,5.29424706 9.86595,5.3465 L3.78675,11.424 C3.73487028,11.4726145 3.6665953,11.4999245 3.5955,11.5005 C3.52934107,11.503445 3.46500072,11.478392 3.41825391,11.4314834 C3.37150711,11.3845749 3.34667648,11.3201484 3.34985,11.254 C3.34778652,11.1833167 3.3762832,11.1151725 3.42805,11.067 L9.50725,4.9895 C9.55570322,4.93532753 9.62497014,4.9044048 9.69765,4.9045 C9.76402372,4.9013274 9.82866584,4.92624789 9.87573354,4.97315384 C9.92280124,5.0200598 9.9479441,5.08461575 9.945,5.151 Z M9.33895,3.0005 L0.0068,12.3335 L0.0068,17 L4.675,17 L14.00715,7.667 L9.33895,3.0005 Z M17,4.08 C16.998205,3.69911402 16.8492816,3.33365782 16.58435,3.06 L13.94935,0.4335 C13.6790832,0.162294076 13.3122285,0.00943795177 12.92935,0.0085 C12.5491479,0.00664567507 12.1846854,0.160168225 11.9204,0.4335 L10.05805,2.2865 L14.72455,6.9445 L16.58605,5.083 C16.8513338,4.8166242 17.0001921,4.45594087 17,4.08 Z"></path>
                            </g>
                        </g>
                    </g>
                </g>
            </g>
        </g>
    </g>
</svg>