<?xml version="1.0" encoding="UTF-8"?>
<svg width="35px" height="35px" viewBox="0 0 35 35" version="1.1" xmlns="http://www.w3.org/2000/svg" xmlns:xlink="http://www.w3.org/1999/xlink">
    <title>S-Logo-Violet</title>
    <defs>
        <linearGradient x1="13.1621565%" y1="96.3931499%" x2="100%" y2="7.6383829%" id="linearGradient-1">
            <stop stop-color="#8359C1" offset="0%"></stop>
            <stop stop-color="#5E7ADB" offset="100%"></stop>
        </linearGradient>
        <linearGradient x1="13.1621565%" y1="96.3936881%" x2="100%" y2="7.63789148%" id="linearGradient-2">
            <stop stop-color="#5E7ADB" offset="0%"></stop>
            <stop stop-color="#8359C1" offset="100%"></stop>
        </linearGradient>
        <linearGradient x1="9.99721662%" y1="79.0291872%" x2="58.4271705%" y2="37.6822101%" id="linearGradient-3">
            <stop stop-color="#000000" offset="0%"></stop>
            <stop stop-color="#000000" stop-opacity="0" offset="100%"></stop>
        </linearGradient>
        <linearGradient x1="41.4172401%" y1="100%" x2="60.2255318%" y2="21.5041905%" id="linearGradient-4">
            <stop stop-color="#000000" stop-opacity="0" offset="0%"></stop>
            <stop stop-color="#000000" offset="100%"></stop>
        </linearGradient>
        <linearGradient x1="0%" y1="100%" x2="94.0861029%" y2="100%" id="linearGradient-5">
            <stop stop-color="#000000" offset="0%"></stop>
            <stop stop-color="#000000" stop-opacity="0.5" offset="100%"></stop>
        </linearGradient>
        <linearGradient x1="0%" y1="100%" x2="94.0861029%" y2="100%" id="linearGradient-6">
            <stop stop-color="#000000" offset="0%"></stop>
            <stop stop-color="#000000" stop-opacity="0.5" offset="100%"></stop>
        </linearGradient>
        <linearGradient x1="0%" y1="67.708499%" x2="59.8770089%" y2="67.708499%" id="linearGradient-7">
            <stop stop-color="#BBA2FF" offset="0%"></stop>
            <stop stop-color="#AAA2FF" offset="100%"></stop>
        </linearGradient>
        <path d="M5.24763978,10.2196567 C1.49146836,10.2196567 -1.3339007,5.66739547 1.93017176,1.94814017 C-0.397599133,4.35919443 -0.297331887,7.49227514 0.55368211,9.14434827 C1.93017176,11.8165271 3.34966618,12.3946886 4.96529899,12.935631 C6.83999061,13.5633107 9.4621473,13.1636567 11.4351464,11.1855401 C14.3019602,8.31129042 18.4639231,4.14915645 19.5061354,3.10666223 C20.226157,2.37014666 20.1821639,1.08280947 19.3541393,0.415296285 C18.4153409,-0.341517306 17.3474078,0.0961214032 16.9658719,0.471166539 C15.9032603,1.5569756 11.4431243,6.04408413 8.9444806,8.57875953 C7.54711154,9.99627933 6.26514633,10.2196567 5.24763978,10.2196567 Z" id="path-8"></path>
        <path d="M5.24763978,10.2196567 C1.49146836,10.2196567 -1.3339007,5.66739547 1.93017176,1.94814017 C-0.397599133,4.35919443 -0.297331887,7.49227514 0.55368211,9.14434827 C1.93017176,11.8165271 3.34966618,12.3946886 4.96529899,12.935631 C6.83999061,13.5633107 9.4621473,13.1636567 11.4351464,11.1855401 C14.3019602,8.31129042 18.4639231,4.14915645 19.5061354,3.10666223 C20.226157,2.37014666 20.1821639,1.08280947 19.3541393,0.415296285 C18.4153409,-0.341517306 17.3474078,0.0961214032 16.9658719,0.471166539 C15.9032603,1.5569756 11.4431243,6.04408413 8.9444806,8.57875953 C7.54711154,9.99627933 6.26514633,10.2196567 5.24763978,10.2196567 Z" id="path-10"></path>
        <linearGradient x1="-2.42548865%" y1="76.0633899%" x2="-1.77635684e-13%" y2="23.9366101%" id="linearGradient-12">
            <stop stop-color="#908FEE" offset="0%"></stop>
            <stop stop-color="#A385E7" offset="100%"></stop>
        </linearGradient>
        <path d="M17.0179823,0.93889115 C18.2335914,2.15496227 18.2835742,4.18863885 17.0686454,5.40538924 C14.358662,8.11810911 12.6485043,9.82743531 11.9381724,10.5333678 C10.8207763,11.6438435 9.93352443,12.5176136 8.09072736,12.8564499 C5.63184556,13.3085661 2.98798175,12.285727 1.65577182,10.5770244 C-0.00743347119,8.4437846 -0.432648492,6.41564759 0.448194404,4.31825465 C0.0331455277,5.85686659 0.788033505,7.5279315 2.43911349,8.1985939 C3.45957897,8.61310308 4.99722887,8.41085374 5.85604345,7.50927359 L7.64641233,5.77744061 C8.54142559,4.8891389 10.1734251,3.25812131 12.542411,0.884387836 C13.7602932,-0.329408019 15.8023732,-0.277179965 17.0179823,0.93889115 Z" id="path-13"></path>
        <linearGradient x1="-2.42548865%" y1="100%" x2="-2.42548865%" y2="-1.9826625%" id="linearGradient-15">
            <stop stop-color="#908FEE" offset="0%"></stop>
            <stop stop-color="#A385E7" offset="100%"></stop>
        </linearGradient>
        <path d="M17.0179823,0.93889115 C18.2335914,2.15496227 18.2835742,4.18863885 17.0686454,5.40538924 C14.358662,8.11810911 12.6485043,9.82743531 11.9381724,10.5333678 C10.8207763,11.6438435 9.93352443,12.5176136 8.09072736,12.8564499 C5.63184556,13.3085661 2.98798175,12.285727 1.65577182,10.5770244 C-0.00743347119,8.4437846 -0.432648492,6.41564759 0.448194404,4.31825465 C0.0331455277,5.85686659 0.788033505,7.5279315 2.43911349,8.1985939 C3.45957897,8.61310308 4.99722887,8.41085374 5.85604345,7.50927359 L7.64641233,5.77744061 C8.54142559,4.8891389 10.1734251,3.25812131 12.542411,0.884387836 C13.7602932,-0.329408019 15.8023732,-0.277179965 17.0179823,0.93889115 Z" id="path-16"></path>
        <linearGradient x1="50%" y1="0%" x2="50%" y2="100%" id="linearGradient-18">
            <stop stop-color="#FFFFFF" offset="0%"></stop>
            <stop stop-color="#FFFFFF" stop-opacity="0.5" offset="100%"></stop>
        </linearGradient>
        <path d="M0.610553806,13.8414736 C0.610553806,14.4423326 1.12618041,15.1039953 1.92652125,15.1039953 C2.33294293,15.1039953 2.63281869,14.9221903 2.83646412,14.719948 C3.04010954,14.5177056 4.40342587,13.1323913 6.46177691,11.087703 C8.52012795,9.04301471 8.74931701,5.73972817 7.29880379,3.24690118 C5.84829058,0.754074195 2.88011879,-0.525239084 8.18545232e-15,0.203260105 C3.55570576,-0.396065684 5.68808976,2.09251081 6.17030186,4.10769411 C6.65251395,6.1228774 5.9391198,7.93276093 4.75882869,9.10558488 C3.57853759,10.2784088 1.61040013,12.2763513 1.21123399,12.6568237 C0.812067837,13.0372961 0.610553806,13.2406146 0.610553806,13.8414736 Z" id="path-19"></path>
        <path d="M0.610553806,13.8721498 C0.610553806,14.4730088 1.12618041,15.1346715 1.92652125,15.1346715 C2.33294293,15.1346715 2.63281869,14.9528665 2.83646412,14.7506241 C3.04010954,14.5483818 4.40342587,13.1630675 6.46177691,11.1183792 C8.52012795,9.07369088 8.74931701,5.77040434 7.29880379,3.27757735 C5.84829058,0.784750358 2.88011879,-0.494562921 8.18545232e-15,0.233936268 C3.55570576,-0.365389521 5.68808976,2.12318697 6.17030186,4.13837027 C6.65251395,6.15355357 5.9391198,7.9634371 4.75882869,9.13626104 C3.57853759,10.309085 1.61040013,12.3070275 1.21123399,12.6874999 C0.812067837,13.0679723 0.610553806,13.2712907 0.610553806,13.8721498 Z" id="path-21"></path>
    </defs>
    <g id="Logo" stroke="none" stroke-width="1" fill="none" fill-rule="evenodd">
        <g id="Logo-Copy-2" transform="translate(-813.000000, -1853.000000)">
            <g id="2" transform="translate(0.000000, 1100.000000)">
                <g id="S-Logo-Violet" transform="translate(813.000000, 754.000000)">
                    <g id="Group" transform="translate(16.864000, 16.000000) scale(-1, 1) rotate(90.000000) translate(-16.864000, -16.000000) translate(0.864000, 0.000000)">
                        <path d="M20.6720239,11.3196239 L11.3053679,20.6736519 C8.71481482,23.2425056 4.52996874,23.2351315 1.94852114,20.6571643 C-0.632926464,18.0791971 -0.637599897,13.9027001 1.93807187,11.3189852 L11.3047279,1.96495726 C13.8952809,-0.603896441 18.080127,-0.596522392 20.6615746,1.98144481 C23.2430222,4.55941201 23.2476956,8.73590901 20.6720239,11.3196239 Z" id="12" fill="url(#linearGradient-1)"></path>
                        <path d="M30.0070977,20.7034342 L20.6404417,30.0574622 C18.0480955,32.6154034 13.8722207,32.6029104 11.2952874,30.0295042 C8.71835413,27.4560979 8.70846014,23.2885512 11.2731457,20.7029871 L20.6398017,11.3487037 C23.2291222,8.77251204 27.4199922,8.77642367 30.0044798,11.3574444 C32.5889674,13.9384651 32.590139,18.1209718 30.0070977,20.7034342 Z" id="11" fill="url(#linearGradient-2)"></path>
                        <path d="M3.49853634,18.4472912 C2.24221845,16.8438174 2.3439267,14.5628774 3.776,13.1302704 C4.21769322,12.6884126 5.31628612,11.5881623 7.0717787,9.82951953 L6.41727852,6.84316963 C3.81321621,9.39317799 2.29288503,10.9007971 1.85628497,11.366027 C-0.471485922,13.7770812 -0.371218675,16.9101619 0.479795321,18.5622351 C1.85628497,21.2344139 3.27577939,21.8125754 4.8914122,22.3535178 C6.76610382,22.9811975 9.38826051,22.5815435 11.3612596,20.6034269 C13.2724688,18.6872604 15.2347206,16.7311622 17.2480151,14.7351322 L15.3731109,12.9899478 C13.1731953,15.1499632 11.2403563,17.0748627 9.57459381,18.7646463 C7.9096077,20.4536423 5.07050762,20.4536423 3.49853634,18.4472912 Z" id="10" fill="url(#linearGradient-3)" opacity="0.200000003"></path>
                        <path d="M28.6637558,24.5118399 C27.7233094,22.9489724 27.9192772,20.9262117 29.23043,19.6145704 C29.504531,19.3403672 30.0316079,18.8126133 30.8116606,18.0313087 C29.7676447,16.5037154 30.3802829,14.644122 31.2317085,13.9674696 C29.9594359,15.2425338 27.7983567,17.3633885 27.3107149,17.850327 C25.6074125,19.6145704 25.6726592,23.1274625 28.6637558,24.5118399 Z" id="9" fill="url(#linearGradient-4)" opacity="0.200000003" transform="translate(28.708930, 19.239655) scale(-1, -1) translate(-28.708930, -19.239655) "></path>
                        <path d="M5.95682758,12.2639892 C6.73438801,13.1853971 7.84988679,13.632 8.896,13.632 C9.94211321,13.632 10.8385502,13.2793807 11.6335458,12.4946642 C12.4285414,11.7099478 17.3409506,6.8091431 17.9168533,6.22777134 C18.492756,5.64639959 19.2203508,5.46277847 19.7559206,5.46277847 C21.595956,5.46277847 22.8095271,7.28940702 22.1924905,8.94421611 C21.7403593,10.156771 23.6906641,9.16862544 23.2980239,7.31570196 C22.9053837,5.46277847 21.7893613,3.65562197 19.3055555,3.51942505 C16.8217497,3.38322813 13.392757,7.32136221 11.9581132,8.78769858 C10.5576513,10.219098 9.35609077,12.7223095 5.95682758,12.2639892 Z" id="8" fill="url(#linearGradient-5)" opacity="0.300000012"></path>
                        <path d="M12.4287579,21.8889307 C13.9091997,23.7734462 16,22.9986746 16.748322,22.2401612 C17.496644,21.4816477 23.1961144,15.8154492 24.1682197,14.8319909 C25.4966196,13.4880768 27.994031,13.0185265 29.8846596,14.7027832 C31.7752882,16.3870399 31.4746462,19.1343355 30.247801,20.4473082 C31.7752882,19.86582 32.229278,16.1552281 31.4746462,14.976 C30.7200145,13.7967719 29.3641533,11.9923718 27.1522507,11.9923718 C24.9403481,11.9923718 24.1532352,11.9243414 21.248,14.9857656 C18.3427648,18.0471899 15.634165,20.7682033 14.9498519,21.4034488 C14.2655389,22.0386942 13.5905804,22.2401612 12.4287579,21.8889307 Z" id="7-copy-2" fill="url(#linearGradient-6)" opacity="0.300000012"></path>
                        <g id="Group-3-Copy" transform="translate(-0.105766, -0.022234)">
                            <g id="2-copy-7" transform="translate(0.031879, 9.440121)">
                                <mask id="mask-9" fill="white">
                                    <use xlink:href="#path-8"></use>
                                </mask>
                                <use id="6-copy" fill="url(#linearGradient-7)" xlink:href="#path-8"></use>
                            </g>
                            <g id="2-copy-5" transform="translate(12.127879, 9.376121)">
                                <mask id="mask-11" fill="white">
                                    <use xlink:href="#path-10"></use>
                                </mask>
                                <use id="5-copy" fill="url(#linearGradient-7)" transform="translate(10.006491, 6.604604) scale(-1, -1) translate(-10.006491, -6.604604) " xlink:href="#path-10"></use>
                            </g>
                            <g id="Group-4" transform="translate(4.841766, 0.022234)">
                                <g id="Path-Copy-9" transform="translate(0.045095, 0.026526)">
                                    <mask id="mask-14" fill="white">
                                        <use xlink:href="#path-13"></use>
                                    </mask>
                                    <use id="4-copy" fill="url(#linearGradient-12)" transform="translate(8.977578, 6.481711) scale(-1, -1) translate(-8.977578, -6.481711) " xlink:href="#path-13"></use>
                                </g>
                                <g id="Group-3-Copy-2" transform="translate(4.461095, 19.034526)">
                                    <mask id="mask-17" fill="white">
                                        <use xlink:href="#path-16"></use>
                                    </mask>
                                    <use id="3-copy" fill="url(#linearGradient-15)" xlink:href="#path-16"></use>
                                </g>
                            </g>
                        </g>
                    </g>
                    <g id="2-copy" transform="translate(24.637446, 9.344000)">
                        <mask id="mask-20" fill="white">
                            <use xlink:href="#path-19"></use>
                        </mask>
                        <use id="2-copy-6" fill="url(#linearGradient-18)" opacity="0.400000006" xlink:href="#path-19"></use>
                    </g>
                    <g id="2-copy-9" transform="translate(4.556000, 14.656000) scale(-1, -1) translate(-4.556000, -14.656000) translate(0.056000, 6.656000)">
                        <mask id="mask-22" fill="white">
                            <use xlink:href="#path-21"></use>
                        </mask>
                        <use id="1-copy-2" fill="url(#linearGradient-18)" opacity="0.400000006" xlink:href="#path-21"></use>
                    </g>
                </g>
            </g>
        </g>
    </g>
</svg>