<?xml version="1.0" encoding="UTF-8"?>
<svg width="28px" height="28px" viewBox="0 0 28 28" version="1.1" xmlns="http://www.w3.org/2000/svg" xmlns:xlink="http://www.w3.org/1999/xlink">
    <!-- Generator: Sketch 52.2 (67145) - http://www.bohemiancoding.com/sketch -->
    <title>Logo</title>
    <desc>Created with Sketch.</desc>
    <defs>
        <path d="M17.7698804,9.69778251 L9.71455611,17.7422467 C7.48668045,19.9514609 3.88771276,19.9451192 1.66766779,17.7280674 C-0.55237719,15.5110156 -0.556396342,11.9192281 1.65868141,9.69723321 L9.71400571,1.65276904 C11.9418814,-0.556445178 15.540849,-0.550103496 17.760894,1.66694833 C19.980939,3.88400016 19.9849582,7.47578764 17.7698804,9.69778251 Z" id="path-1"></path>
        <filter x="-16.9%" y="-70.8%" width="133.5%" height="244.1%" filterUnits="objectBoundingBox" id="filter-3">
            <feGaussianBlur stdDeviation="1.10080002" in="SourceGraphic"></feGaussianBlur>
        </filter>
        <path d="M25.8148612,17.7846767 L17.7595369,25.8291409 C15.5301191,28.0289704 11.9388667,28.0182264 9.72270409,25.805097 C7.50654145,23.5919676 7.49803261,20.0078773 9.70366224,17.7842922 L17.7589865,9.73960831 C19.9858022,7.52408344 23.5899504,7.52744744 25.8126098,9.74712531 C28.0352692,11.9668032 28.0362768,15.563759 25.8148612,17.7846767 Z" id="path-4"></path>
        <filter x="-17.5%" y="-32.2%" width="135.0%" height="164.5%" filterUnits="objectBoundingBox" id="filter-6">
            <feGaussianBlur stdDeviation="1.21088002" in="SourceGraphic"></feGaussianBlur>
        </filter>
        <linearGradient x1="50%" y1="0%" x2="50%" y2="100%" id="linearGradient-7">
            <stop stop-color="#7E5DC6" offset="0%"></stop>
            <stop stop-color="#5E7ADB" offset="99.9282526%"></stop>
        </linearGradient>
        <linearGradient x1="50%" y1="0%" x2="50%" y2="100%" id="linearGradient-8">
            <stop stop-color="#FFFFFF" offset="0%"></stop>
            <stop stop-color="#FFFFFF" stop-opacity="0" offset="100%"></stop>
        </linearGradient>
    </defs>
    <g id="KIT---1280x800" stroke="none" stroke-width="1" fill="none" fill-rule="evenodd">
        <g id="Style-Guide---KIT-Desktop-(1280x800)" transform="translate(-30.000000, -315.000000)">
            <g id="Header-(1280x800)">
                <g id="Hover" transform="translate(0.000000, 286.000000)">
                    <g id="Logo" transform="translate(30.000000, 29.000000)">
                        <mask id="mask-2" fill="white">
                            <use xlink:href="#path-1"></use>
                        </mask>
                        <use id="1" fill="#7E5DC6" xlink:href="#path-1"></use>
                        <path d="M9.8951464,1.37325352 C10.8613736,0.494371266 11.8853378,0 13.6929065,0 C15.5858972,0 16.6100265,0.714091828 16.6100265,0.714091828 C16.6100265,0.714091828 17.8446288,1.53084809 18.4263465,2.36199605 C19.135647,3.37540221 19.3069866,4.50427153 19.3069866,4.50427153 L18.4468214,4.73865844 L10.0133173,6.99106886 C9.04439711,7.25149533 8.0224826,6.81835537 7.5374578,5.94167219 C7.05243301,5.06498901 7.22953927,3.97113654 7.96654477,3.29152389 C8.21835278,3.05916939 9.40875792,1.82587787 9.8951464,1.37325352 Z" id="Glare-1" fill-opacity="0.04" fill="#FFFFFF" mask="url(#mask-2)"></path>
                        <path d="M25.8264196,9.73471952 C20.6096183,4.52492526 9.29240335,13.3339071 5.68838409,9.73471952 C4.54668936,8.5943698 4.54085512,6.85835764 5.68838409,5.71235011" id="Shadow-1" stroke="#000000" stroke-width="0.5" filter="url(#filter-3)" mask="url(#mask-2)"></path>
                        <mask id="mask-5" fill="white">
                            <use xlink:href="#path-4"></use>
                        </mask>
                        <use id="2" fill="#6276D5" xlink:href="#path-4"></use>
                        <path d="M8.95054991,22.7053736 L17.384054,20.4532379 C18.3249424,20.2002829 19.3197841,20.6010839 19.8210243,21.4350423 C20.3222646,22.2690008 20.2082045,23.3336353 19.5416221,24.0429775 C19.2724765,24.3293832 17.2275203,26.3441659 17.2275203,26.3441659 C17.2275203,26.3441659 16.0457564,27.4427687 13.7600002,27.4427687 C11.8602946,27.4427687 10.7836021,26.7206021 10.7836021,26.7206021 C10.7836021,26.7206021 9.5668328,26.0627588 8.86144015,24.8610521 C8.46980766,24.2878159 8.22420158,23.6278886 8.14592014,22.9384971 L8.95054991,22.7053736 Z" id="Glare-3" fill-opacity="0.04" fill="#FFFFFF" mask="url(#mask-5)"></path>
                        <path d="M1.59010563,9.80508503 C-0.360732166,11.7533473 -0.713483532,15.4083439 1.66044675,17.7791837 C6.83095947,22.9426169 18.1893443,14.1743932 21.7988125,17.7791837 C22.9590557,18.9378801 22.8561309,20.7454113 21.7988125,21.8013883" id="Shadow-2" stroke="#000000" stroke-width="0.660480011" filter="url(#filter-6)" mask="url(#mask-5)"></path>
                        <path d="M5.68838409,5.65741997 L1.59010563,9.75015489 C-0.360732166,11.6984171 -0.713483532,15.4083439 1.66044675,17.7791837 C6.83095947,22.9426169 18.1893443,14.1743932 21.7988125,17.7791837 C22.9590557,18.9378801 22.8561309,20.7454113 21.7988125,21.8013883 L25.8801387,17.7255719 C28.2083307,15.4007635 27.8542584,11.759829 25.8264196,9.73471952 C20.6096183,4.52492526 9.29240335,13.3339071 5.68838409,9.73471952 C4.54668936,8.5943698 4.54085512,6.8034275 5.68838409,5.65741997 Z" id="3" fill="url(#linearGradient-7)"></path>
                        <path d="M22.0160004,21.5326151 C22.0160004,21.5326151 26.3797368,17.3664935 26.4742404,16.9734135 C25.828346,15.228228 23.5615786,12.5240721 19.8694403,12.5240721 C17.1938358,12.5240721 9.32416144,14.8860681 6.76992011,14.8860681 C3.3514407,14.8860681 1.49290498,12.0387093 1.37600002,9.9972856 C0.494836441,11.0225691 0.007186786,12.3268616 0,13.677605 C0,17.2118652 2.73449733,19.4452698 6.0544001,19.4452698 C10.4455464,19.4452698 15.6250857,16.8635532 19.1539203,16.8635532 C21.9423568,16.8635532 22.6214404,18.7514472 22.6214404,19.7199205 C22.6214404,20.6883938 22.0160004,21.5326151 22.0160004,21.5326151 Z" id="Glare-2" fill-opacity="0.08" fill="url(#linearGradient-8)"></path>
                    </g>
                </g>
            </g>
        </g>
    </g>
</svg>