<?xml version="1.0" encoding="UTF-8"?>
<svg width="8px" height="9px" viewBox="0 0 8 9" version="1.1" xmlns="http://www.w3.org/2000/svg" xmlns:xlink="http://www.w3.org/1999/xlink">
    <!-- Generator: Sketch 52.2 (67145) - http://www.bohemiancoding.com/sketch -->
    <title>icon</title>
    <desc>Created with Sketch.</desc>
    <g id="KIT---1280x800" stroke="none" stroke-width="1" fill="none" fill-rule="evenodd">
        <g id="Style-Guide---KIT-Desktop-(1280x800)" transform="translate(-150.000000, -1550.000000)" fill="#AEB2BA">
            <g id="Pop-Up" transform="translate(132.000000, 1423.000000)">
                <g id="Static">
                    <g id="Change-Password-(States)" transform="translate(18.700000, 124.950000)">
                        <g id="Static">
                            <g id="icon" transform="translate(0.000000, 1.700000)">
                                <path d="M6.2305,5.1 L1.887,5.1 L1.887,3.332 C1.94041414,2.53569876 2.60190932,1.91708872 3.4,1.91708872 C4.19809068,1.91708872 4.85958586,2.53569876 4.913,3.332 C4.92306355,3.53012021 5.08866328,3.68442905 5.287,3.6805 L5.6695,3.6805 C5.86783672,3.68442905 6.03343645,3.53012021 6.0435,3.332 C5.9567246,1.9357062 4.79898762,0.847685453 3.4,0.847685453 C2.00101238,0.847685453 0.843275396,1.9357062 0.7565,3.332 L0.7565,5.1 L0.5695,5.1 C0.267151004,5.08945416 0.0128885455,5.32474181 -4.54747351e-13,5.627 L-4.54747351e-13,8.8145 C0.00443995999,8.9610555 0.0669525929,9.09983597 0.173770066,9.20027628 C0.280587538,9.30071659 0.422948767,9.35457871 0.5695,9.35 L6.2305,9.35 C6.37705123,9.35457871 6.51941246,9.30071659 6.62622993,9.20027628 C6.73304741,9.09983597 6.79556004,8.9610555 6.8,8.8145 L6.8,5.627 C6.78711145,5.32474181 6.532849,5.08945416 6.2305,5.1 Z"></path>
                            </g>
                        </g>
                    </g>
                </g>
            </g>
        </g>
    </g>
</svg>