<?xml version="1.0" encoding="UTF-8"?>
<svg width="10px" height="8px" viewBox="0 0 10 8" version="1.1" xmlns="http://www.w3.org/2000/svg" xmlns:xlink="http://www.w3.org/1999/xlink">
    <!-- Generator: Sketch 52.2 (67145) - http://www.bohemiancoding.com/sketch -->
    <title>icon</title>
    <desc>Created with Sketch.</desc>
    <g id="KIT---1280x800" stroke="none" stroke-width="1" fill="none" fill-rule="evenodd">
        <g id="Style-Guide---KIT-Desktop-(1280x800)" transform="translate(-149.000000, -1524.000000)" fill="#AEB2BA">
            <g id="Pop-Up" transform="translate(132.000000, 1423.000000)">
                <g id="Static">
                    <g id="Profile-(States)" transform="translate(17.000000, 98.600000)">
                        <g id="Static">
                            <g id="icon" transform="translate(0.000000, 2.550000)">
                                <path d="M9.3245,2.89 C9.27139292,2.72972962 9.1340071,2.61197035 8.9675,2.584 L6.647,2.1675 L5.508,0.2295 C5.42443092,0.0839137524 5.26781433,-0.00418308036 5.1,3.92314002e-13 C4.93042003,-0.00225862897 4.77217776,0.0849360906 4.6835,0.2295 L3.5445,2.1675 L1.2325,2.584 C1.06507114,2.61407033 0.926041619,2.73046713 0.867,2.89 C0.816763851,3.04901738 0.85938402,3.22277654 0.9775,3.3405 L2.584,4.947 L2.295,7.14 C2.27390382,7.30535309 2.34583824,7.4688404 2.482,7.565 C2.56594435,7.618502 2.66297748,7.64790598 2.7625,7.65 C2.82985179,7.64903845 2.89632769,7.63458717 2.958,7.6075 L5.1,6.664 L7.2335,7.6075 C7.29840192,7.63378297 7.36750188,7.6481788 7.4375,7.65 C7.53682755,7.64670293 7.63355003,7.61739309 7.718,7.565 C7.85097422,7.46626661 7.9220451,7.30474189 7.905,7.14 L7.6075,4.947 L9.2225,3.3405 C9.34225729,3.22352744 9.38219187,3.04714973 9.3245,2.89 Z"></path>
                            </g>
                        </g>
                    </g>
                </g>
            </g>
        </g>
    </g>
</svg>