<?xml version="1.0" encoding="UTF-8"?>
<svg width="10px" height="10px" viewBox="0 0 10 10" version="1.1" xmlns="http://www.w3.org/2000/svg" xmlns:xlink="http://www.w3.org/1999/xlink">
    <!-- Generator: Sketch 52.2 (67145) - http://www.bohemiancoding.com/sketch -->
    <title>icon</title>
    <desc>Created with Sketch.</desc>
    <g id="KIT---1280x800" stroke="none" stroke-width="1" fill="none" fill-rule="evenodd">
        <g id="Style-Guide---KIT-Desktop-(1280x800)" transform="translate(-149.000000, -1497.000000)" fill="#AEB2BA">
            <g id="Pop-Up" transform="translate(132.000000, 1423.000000)">
                <g id="Static">
                    <g id="Plans-(States)" transform="translate(17.000000, 72.250000)">
                        <g id="Static">
                            <g id="icon" transform="translate(0.000000, 1.700000)">
                                <path d="M2.703,2.856 C2.52577087,3.90050269 3.04513851,4.93955366 3.98696023,5.42470093 C4.92878195,5.9098482 6.07631118,5.72944218 6.82383683,4.97870826 C7.57136249,4.22797434 7.74685241,3.07968302 7.25767611,2.13994764 C6.76849981,1.20021227 5.7272341,0.685299274 4.6835,0.867 C3.66896758,1.04413304 2.87578655,1.84071828 2.703,2.856 Z M0.8585,8.721 L0.867,8.6785 C1.17363282,7.57114015 1.7555322,6.55939551 2.5585,5.7375 C2.65995434,5.64263045 2.81867566,5.64640953 2.9155,5.746 C3.48548791,6.3427379 4.27478346,6.68032468 5.1,6.68032468 C5.92521654,6.68032468 6.71451209,6.3427379 7.2845,5.746 C7.32926011,5.69713364 7.39248244,5.66930773 7.45875,5.66930773 C7.52501756,5.66930773 7.58823989,5.69713364 7.633,5.746 C8.43869679,6.56248754 9.02114341,7.57225681 9.3245,8.6785 L9.3415,8.721 C9.37782327,8.86832945 9.34340481,9.02417094 9.24840982,9.14249803 C9.15341483,9.26082512 9.00869794,9.32811714 8.857,9.3245 L1.3345,9.3245 C1.18356168,9.32752431 1.0399273,9.25964683 0.9464346,9.14111144 C0.852941903,9.02257606 0.820394728,8.86708049 0.8585,8.721 Z"></path>
                            </g>
                        </g>
                    </g>
                </g>
            </g>
        </g>
    </g>
</svg>