<?xml version="1.0" encoding="UTF-8"?>
<svg width="132px" height="109px" viewBox="0 0 132 109" version="1.1" xmlns="http://www.w3.org/2000/svg" xmlns:xlink="http://www.w3.org/1999/xlink">
    <!-- Generator: Sketch 53.2 (72643) - https://sketchapp.com -->
    <title>Icon</title>
    <desc>Created with Sketch.</desc>
    <defs>
        <linearGradient x1="100%" y1="50%" x2="-2.22044605e-14%" y2="50%" id="linearGradient-1">
            <stop stop-color="#5E7ADB" offset="0%"></stop>
            <stop stop-color="#8359C1" offset="100%"></stop>
        </linearGradient>
        <linearGradient x1="-3.02676345%" y1="50%" x2="100%" y2="50%" id="linearGradient-2">
            <stop stop-color="#000000" stop-opacity="0.4" offset="0%"></stop>
            <stop stop-color="#000000" stop-opacity="0" offset="74.2734511%"></stop>
            <stop stop-color="#000000" stop-opacity="0.25" offset="100%"></stop>
        </linearGradient>
        <linearGradient x1="21.420126%" y1="39.3747117%" x2="81.641085%" y2="59.2079473%" id="linearGradient-3">
            <stop stop-color="#D2D4D9" offset="0%"></stop>
            <stop stop-color="#EDF0F3" offset="100%"></stop>
        </linearGradient>
        <path d="M43.6642377,71.9095931 L8.32843625,51.3630728 C-4.00802906,44.1902833 -2.46100508,31.6604649 11.7837182,23.3781214 L40.206646,6.85158254 C54.4513693,-1.43076096 75.9993023,-2.3304999 88.3357676,4.84228964 L123.671569,25.3888099 C136.008034,32.5615995 134.46101,45.0914179 120.216287,53.3737614 L91.7933592,69.9003002 C77.5490979,78.1826437 56.000703,79.0823826 43.6642377,71.9095931" id="path-4"></path>
        <filter x="-30.0%" y="-51.6%" width="160.0%" height="203.2%" filterUnits="objectBoundingBox" id="filter-6">
            <feGaussianBlur stdDeviation="6.60000026" in="SourceGraphic"></feGaussianBlur>
        </filter>
        <linearGradient x1="100%" y1="50%" x2="0%" y2="50%" id="linearGradient-7">
            <stop stop-color="#5E7ADB" offset="0%"></stop>
            <stop stop-color="#8359C1" offset="100%"></stop>
        </linearGradient>
        <path d="M4.16421812,38.9146196 C1.34814544,37.2772708 -0.021039418,35.0816316 0.000244315348,32.7846787 C0.000477219208,32.7595436 0.00087662487,19.5013131 0.00144245841,19.4761544 C0.0624284142,16.764522 2.05675495,13.9189145 5.89185911,11.6890607 L20.103323,3.42579127 C27.2256847,-0.71538048 37.9996511,-1.16524995 44.1678838,2.42114482 L61.8357845,12.694405 C64.5817734,14.291005 65.9519959,16.4184528 65.9987629,18.6530479 C65.9989803,18.6634365 65.9991691,31.9069106 65.9993293,31.9173038 C66.0421189,34.6930498 64.045014,37.6309399 60.1081435,39.9199639 L45.8966796,48.1832333 C38.7745489,52.3244051 28.0003515,52.7742746 21.8321188,49.1878798 L4.16421812,38.9146196 Z" id="path-8"></path>
        <linearGradient x1="50%" y1="100%" x2="50%" y2="4.21003801%" id="linearGradient-10">
            <stop stop-color="#E9ECF1" offset="0%"></stop>
            <stop stop-color="#F4F6F8" offset="100%"></stop>
        </linearGradient>
        <linearGradient x1="-3.02676345%" y1="50%" x2="100%" y2="50%" id="linearGradient-11">
            <stop stop-color="#000000" stop-opacity="0.4" offset="0%"></stop>
            <stop stop-color="#000000" stop-opacity="0" offset="74.2734511%"></stop>
            <stop stop-color="#000000" stop-opacity="0.25" offset="100%"></stop>
        </linearGradient>
        <linearGradient x1="21.420126%" y1="39.3747117%" x2="81.641085%" y2="59.2079473%" id="linearGradient-12">
            <stop stop-color="#D2D4D9" offset="0%"></stop>
            <stop stop-color="#EDF0F3" offset="100%"></stop>
        </linearGradient>
        <path d="M21.8321188,35.9547966 L4.16421812,25.6815364 C-2.00401453,22.0951416 -1.23050254,15.8302324 5.89185911,11.6890607 L20.103323,3.42579127 C27.2256847,-0.71538048 37.9996511,-1.16524995 44.1678838,2.42114482 L61.8357845,12.694405 C68.0040172,16.2807997 67.2305052,22.5457089 60.1081435,26.6868807 L45.8966796,34.9501501 C38.7745489,39.0913219 28.0003515,39.5411913 21.8321188,35.9547966" id="path-13"></path>
        <filter x="-37.5%" y="-64.4%" width="175.0%" height="228.7%" filterUnits="objectBoundingBox" id="filter-15">
            <feGaussianBlur stdDeviation="6.60000026" in="SourceGraphic"></feGaussianBlur>
        </filter>
        <linearGradient x1="49.4582569%" y1="49.155013%" x2="50%" y2="66.9044164%" id="linearGradient-16">
            <stop stop-color="#FFFFFF" stop-opacity="0" offset="0%"></stop>
            <stop stop-color="#FFFFFF" offset="100%"></stop>
        </linearGradient>
        <linearGradient x1="50%" y1="0%" x2="50%" y2="100%" id="linearGradient-17">
            <stop stop-color="#5E7ADB" offset="0%"></stop>
            <stop stop-color="#8359C1" offset="100%"></stop>
        </linearGradient>
        <filter x="-25.0%" y="-43.4%" width="150.0%" height="186.7%" filterUnits="objectBoundingBox" id="filter-18">
            <feGaussianBlur stdDeviation="3.30000013" in="SourceGraphic"></feGaussianBlur>
        </filter>
        <linearGradient x1="82.012952%" y1="61.1539598%" x2="20.7544219%" y2="38.1369493%" id="linearGradient-19">
            <stop stop-color="#5E7ADB" offset="0%"></stop>
            <stop stop-color="#8359C1" offset="100%"></stop>
        </linearGradient>
        <linearGradient x1="50%" y1="114.916414%" x2="50%" y2="3.061617e-15%" id="linearGradient-20">
            <stop stop-color="#5E7ADB" offset="0%"></stop>
            <stop stop-color="#8359C1" stop-opacity="0" offset="100%"></stop>
        </linearGradient>
        <linearGradient x1="50%" y1="100%" x2="50%" y2="3.061617e-15%" id="linearGradient-21">
            <stop stop-color="#000000" stop-opacity="0.02" offset="0%"></stop>
            <stop stop-color="#000000" stop-opacity="0.06" offset="100%"></stop>
        </linearGradient>
        <linearGradient x1="50%" y1="41.5242029%" x2="50%" y2="100%" id="linearGradient-22">
            <stop stop-color="#FFFFFF" offset="0%"></stop>
            <stop stop-color="#FFFFFF" offset="100%"></stop>
        </linearGradient>
        <linearGradient x1="50%" y1="-2.48949813e-15%" x2="50%" y2="100%" id="linearGradient-23">
            <stop stop-color="#FFFFFF" offset="0%"></stop>
            <stop stop-color="#FFFFFF" stop-opacity="0" offset="100%"></stop>
        </linearGradient>
        <filter x="-300.0%" y="-15.0%" width="700.0%" height="129.9%" filterUnits="objectBoundingBox" id="filter-24">
            <feGaussianBlur stdDeviation="0.660000026" in="SourceGraphic"></feGaussianBlur>
        </filter>
        <filter x="-600.0%" y="-29.9%" width="1300.0%" height="159.8%" filterUnits="objectBoundingBox" id="filter-25">
            <feGaussianBlur stdDeviation="1.32000005" in="SourceGraphic"></feGaussianBlur>
        </filter>
        <linearGradient x1="50%" y1="98.2681539%" x2="50%" y2="9.64385142%" id="linearGradient-26">
            <stop stop-color="#FFFFFF" stop-opacity="0.2" offset="0%"></stop>
            <stop stop-color="#FFFFFF" offset="100%"></stop>
        </linearGradient>
        <filter x="-200.0%" y="-19.9%" width="500.0%" height="139.9%" filterUnits="objectBoundingBox" id="filter-27">
            <feGaussianBlur stdDeviation="1.32000005" in="SourceGraphic"></feGaussianBlur>
        </filter>
        <linearGradient x1="50%" y1="100%" x2="50%" y2="20.6381795%" id="linearGradient-28">
            <stop stop-color="#FFFFFF" offset="0%"></stop>
            <stop stop-color="#FFFFFF" stop-opacity="0" offset="100%"></stop>
        </linearGradient>
        <filter x="-15.0%" y="-29.9%" width="130.0%" height="159.9%" filterUnits="objectBoundingBox" id="filter-29">
            <feGaussianBlur stdDeviation="0.330000013" in="SourceGraphic"></feGaussianBlur>
        </filter>
        <linearGradient x1="50%" y1="100%" x2="50%" y2="20.6381795%" id="linearGradient-30">
            <stop stop-color="#FFFFFF" offset="0%"></stop>
            <stop stop-color="#FFFFFF" stop-opacity="0" offset="100%"></stop>
        </linearGradient>
        <filter x="-296.1%" y="-14.8%" width="692.1%" height="129.5%" filterUnits="objectBoundingBox" id="filter-31">
            <feGaussianBlur stdDeviation="0.651315815" in="SourceGraphic"></feGaussianBlur>
        </filter>
        <filter x="-592.1%" y="-29.5%" width="1284.2%" height="159.1%" filterUnits="objectBoundingBox" id="filter-32">
            <feGaussianBlur stdDeviation="1.30263163" in="SourceGraphic"></feGaussianBlur>
        </filter>
        <filter x="-197.4%" y="-19.7%" width="494.7%" height="139.4%" filterUnits="objectBoundingBox" id="filter-33">
            <feGaussianBlur stdDeviation="1.30263163" in="SourceGraphic"></feGaussianBlur>
        </filter>
        <filter x="-14.8%" y="-29.5%" width="129.6%" height="159.1%" filterUnits="objectBoundingBox" id="filter-34">
            <feGaussianBlur stdDeviation="0.325657908" in="SourceGraphic"></feGaussianBlur>
        </filter>
        <linearGradient x1="50%" y1="100%" x2="50%" y2="20.6381795%" id="linearGradient-35">
            <stop stop-color="#FFFFFF" offset="0%"></stop>
            <stop stop-color="#FFFFFF" stop-opacity="0" offset="100%"></stop>
        </linearGradient>
        <linearGradient x1="50%" y1="100%" x2="50%" y2="3.061617e-15%" id="linearGradient-36">
            <stop stop-color="#000000" stop-opacity="0.02" offset="0%"></stop>
            <stop stop-color="#000000" stop-opacity="0.06" offset="100%"></stop>
        </linearGradient>
        <linearGradient x1="50%" y1="41.5242029%" x2="50%" y2="100%" id="linearGradient-37">
            <stop stop-color="#FFFFFF" offset="0%"></stop>
            <stop stop-color="#FFFFFF" offset="100%"></stop>
        </linearGradient>
        <linearGradient x1="50%" y1="-2.48949813e-15%" x2="50%" y2="100%" id="linearGradient-38">
            <stop stop-color="#FFFFFF" offset="0%"></stop>
            <stop stop-color="#FFFFFF" stop-opacity="0" offset="100%"></stop>
        </linearGradient>
        <filter x="-300.0%" y="-15.0%" width="700.0%" height="130.0%" filterUnits="objectBoundingBox" id="filter-39">
            <feGaussianBlur stdDeviation="0.651315815" in="SourceGraphic"></feGaussianBlur>
        </filter>
        <filter x="-600.0%" y="-30.0%" width="1300.0%" height="159.9%" filterUnits="objectBoundingBox" id="filter-40">
            <feGaussianBlur stdDeviation="1.30263163" in="SourceGraphic"></feGaussianBlur>
        </filter>
        <linearGradient x1="50%" y1="98.2681539%" x2="50%" y2="9.64385142%" id="linearGradient-41">
            <stop stop-color="#FFFFFF" stop-opacity="0.2" offset="0%"></stop>
            <stop stop-color="#FFFFFF" offset="100%"></stop>
        </linearGradient>
        <filter x="-200.0%" y="-20.0%" width="500.0%" height="140.0%" filterUnits="objectBoundingBox" id="filter-42">
            <feGaussianBlur stdDeviation="1.30263163" in="SourceGraphic"></feGaussianBlur>
        </filter>
        <linearGradient x1="50%" y1="100%" x2="50%" y2="20.6381795%" id="linearGradient-43">
            <stop stop-color="#FFFFFF" offset="0%"></stop>
            <stop stop-color="#FFFFFF" stop-opacity="0" offset="100%"></stop>
        </linearGradient>
        <filter x="-15.0%" y="-30.0%" width="130.0%" height="159.9%" filterUnits="objectBoundingBox" id="filter-44">
            <feGaussianBlur stdDeviation="0.325657908" in="SourceGraphic"></feGaussianBlur>
        </filter>
        <linearGradient x1="50%" y1="100%" x2="50%" y2="20.6381795%" id="linearGradient-45">
            <stop stop-color="#FFFFFF" offset="0%"></stop>
            <stop stop-color="#FFFFFF" stop-opacity="0" offset="100%"></stop>
        </linearGradient>
        <linearGradient x1="50%" y1="100%" x2="50%" y2="4.21003801%" id="linearGradient-46">
            <stop stop-color="#E9ECF1" offset="0%"></stop>
            <stop stop-color="#F4F6F8" offset="100%"></stop>
        </linearGradient>
        <linearGradient x1="0%" y1="50.000006%" x2="100%" y2="50%" id="linearGradient-47">
            <stop stop-color="#000000" stop-opacity="0.5" offset="0%"></stop>
            <stop stop-color="#000000" offset="50.3366418%"></stop>
            <stop stop-color="#000000" stop-opacity="0" offset="100%"></stop>
        </linearGradient>
        <linearGradient x1="50%" y1="100%" x2="50%" y2="4.21003801%" id="linearGradient-48">
            <stop stop-color="#E9ECF1" offset="0%"></stop>
            <stop stop-color="#F4F6F8" offset="100%"></stop>
        </linearGradient>
        <linearGradient x1="100%" y1="50%" x2="0%" y2="50%" id="linearGradient-49">
            <stop stop-color="#5E7ADB" offset="0%"></stop>
            <stop stop-color="#8359C1" offset="100%"></stop>
        </linearGradient>
        <linearGradient x1="-3.02676345%" y1="50%" x2="100%" y2="50%" id="linearGradient-50">
            <stop stop-color="#000000" stop-opacity="0.4" offset="0%"></stop>
            <stop stop-color="#000000" stop-opacity="0" offset="74.2734511%"></stop>
            <stop stop-color="#000000" stop-opacity="0.25" offset="100%"></stop>
        </linearGradient>
        <linearGradient x1="50%" y1="100%" x2="50%" y2="4.21003801%" id="linearGradient-51">
            <stop stop-color="#E9ECF1" offset="0%"></stop>
            <stop stop-color="#F4F6F8" offset="100%"></stop>
        </linearGradient>
        <linearGradient x1="0%" y1="50.000006%" x2="100%" y2="50%" id="linearGradient-52">
            <stop stop-color="#000000" stop-opacity="0.5" offset="0%"></stop>
            <stop stop-color="#000000" offset="50.3366418%"></stop>
            <stop stop-color="#000000" stop-opacity="0" offset="100%"></stop>
        </linearGradient>
        <path d="M21.8321188,35.9547966 L4.16421812,25.6815364 C-2.00401453,22.0951416 -1.23050254,15.8302324 5.89185911,11.6890607 L20.103323,3.42579127 C27.2256847,-0.71538048 37.9996511,-1.16524995 44.1678838,2.42114482 L61.8357845,12.694405 C68.0040172,16.2807997 67.2305052,22.5457089 60.1081435,26.6868807 L45.8966796,34.9501501 C38.7745489,39.0913219 28.0003515,39.5411913 21.8321188,35.9547966" id="path-53"></path>
        <path d="M13.0992713,21.3869048 L2.49853087,15.2760863 C-1.20240872,13.1427998 -0.738301524,9.41625894 3.53511547,6.95297575 L12.0619938,2.03775515 C16.3354108,-0.425528044 22.7997907,-0.693122814 26.5007303,1.44016373 L37.1014707,7.55098226 C40.8024103,9.68426881 40.3383031,13.4108096 36.0648861,15.8740928 L27.5380078,20.7893134 C23.2647294,23.2525966 16.8002109,23.5201914 13.0992713,21.3869048" id="path-55"></path>
        <linearGradient x1="50%" y1="100%" x2="50%" y2="4.21003801%" id="linearGradient-57">
            <stop stop-color="#E9ECF1" offset="0%"></stop>
            <stop stop-color="#F4F6F8" offset="100%"></stop>
        </linearGradient>
        <linearGradient x1="0%" y1="50.000006%" x2="100%" y2="50%" id="linearGradient-58">
            <stop stop-color="#000000" stop-opacity="0.5" offset="0%"></stop>
            <stop stop-color="#000000" offset="50.3366418%"></stop>
            <stop stop-color="#000000" stop-opacity="0" offset="100%"></stop>
        </linearGradient>
        <filter x="-15.0%" y="-26.0%" width="130.0%" height="152.0%" filterUnits="objectBoundingBox" id="filter-59">
            <feGaussianBlur stdDeviation="1.98000008" in="SourceGraphic"></feGaussianBlur>
        </filter>
        <linearGradient x1="21.420126%" y1="38.629299%" x2="81.641085%" y2="59.8539269%" id="linearGradient-60">
            <stop stop-color="#D2D4D9" offset="0%"></stop>
            <stop stop-color="#EDF0F3" offset="100%"></stop>
        </linearGradient>
    </defs>
    <g id="KIT---Other-page---Desktop-(1280x800)" stroke="none" stroke-width="1" fill="none" fill-rule="evenodd">
        <g id="Style-Guide---KIT-Other-Page-(1280x800)" transform="translate(-146.000000, -3956.000000)">
            <g id="Pricing-&amp;-Plans" transform="translate(105.000000, 3218.000000)">
                <g id="Icons---Step-1" transform="translate(26.000000, 285.000000)">
                    <g id="Average-Price-(States)" transform="translate(2.040010, 418.000000)">
                        <g id="Static" transform="translate(0.000000, 35.000000)">
                            <g id="Icon" transform="translate(12.959990, 0.339999)">
                                <g id="Background" transform="translate(0.000000, 28.781956)">
                                    <path d="M43.6642377,74.5562098 L8.32843625,54.0096895 C-4.00802906,46.8368999 -2.46100508,34.3070815 11.7837182,26.024738 L40.206646,9.49819919 C54.4513693,1.21585569 75.9993023,0.316116748 88.3357676,7.48890628 L123.671569,28.0354266 C136.008034,35.2082161 134.46101,47.7380345 120.216287,56.020378 L91.7933592,72.5469169 C77.5490979,80.8292604 56.000703,81.7289993 43.6642377,74.5562098" id="Fill-3" fill="#F5F6FA"></path>
                                    <path d="M43.6642377,74.5562098 L8.32843625,54.0096895 C-4.00802906,46.8368999 -2.46100508,34.3070815 11.7837182,26.024738 L40.206646,9.49819919 C54.4513693,1.21585569 75.9993023,0.316116748 88.3357676,7.48890628 L123.671569,28.0354266 C136.008034,35.2082161 134.46101,47.7380345 120.216287,56.020378 L91.7933592,72.5469169 C77.5490979,80.8292604 56.000703,81.7289993 43.6642377,74.5562098" id="Fill-2" fill="url(#linearGradient-1)" opacity="0.800000012"></path>
                                    <path d="M8.32843625,54.0096895 C2.82310047,50.8087227 0.0826986994,46.5408894 0.00184396116,42.0597889 C0.00135122259,42.0324805 0.000957255101,39.3585476 0.000662034855,39.3312236 C-0.0591523335,33.7951235 3.93465981,27.9418181 11.7837182,23.3781214 L40.206646,6.85158254 C54.4513693,-1.43076096 75.9993023,-2.3304999 88.3357676,4.84228964 L123.671569,25.3888099 C129.285028,28.6526426 132.023881,33.0256593 131.999848,37.602973 C131.999628,37.6448863 131.999177,40.3334333 131.998493,40.3753802 C131.909806,45.8198819 127.919885,51.5412564 120.216287,56.020378 L91.7933592,72.5469169 C77.5490979,80.8292604 56.000703,81.7289993 43.6642377,74.5562098 L8.32843625,54.0096895 Z" id="Gradient" fill="url(#linearGradient-2)" fill-rule="nonzero" opacity="0.200000003"></path>
                                    <mask id="mask-5" fill="white">
                                        <use xlink:href="#path-4"></use>
                                    </mask>
                                    <use id="Fill-1" fill="url(#linearGradient-3)" fill-rule="nonzero" xlink:href="#path-4"></use>
                                    <path d="M37.6721195,41.5788569 L20.0042188,31.3055968 C13.8359861,27.719202 14.6094981,21.4542928 21.7318597,17.3131211 L35.9433236,9.04985164 C43.0656853,4.90867989 53.8396518,4.45881042 60.0078844,8.04520519 L77.6757851,18.3184653 C83.8440178,21.9048601 83.0705058,28.1697693 75.9481441,32.3109411 L61.7366802,40.5742105 C54.6145496,44.7153822 43.8403521,45.1652517 37.6721195,41.5788569" id="Shadow" fill="#000000" opacity="0.100000001" filter="url(#filter-6)" mask="url(#mask-5)"></path>
                                </g>
                                <g id="Part-3" transform="translate(33.000001, 31.759400)">
                                    <g id="Shape-2">
                                        <mask id="mask-9" fill="white">
                                            <use xlink:href="#path-8"></use>
                                        </mask>
                                        <use fill="url(#linearGradient-7)" fill-rule="nonzero" opacity="0.600000024" xlink:href="#path-8"></use>
                                        <path d="M4.16421812,38.2529655 C1.34814544,36.6156167 -0.021039418,34.4199774 0.000244315348,32.1230246 C0.000477219208,32.0978895 0.00087662487,18.839659 0.00144245841,18.8145002 C0.0624284142,16.1028679 2.05675495,13.2572603 5.89185911,11.0274065 L20.103323,2.76413711 C27.2256847,-1.37703464 37.9996511,-1.82690411 44.1678838,1.75949066 L61.8357845,12.0327508 C64.5817734,13.6293508 65.9519959,15.7567986 65.9987629,17.9913938 C65.9989803,18.0017823 65.9991691,31.2452565 65.9993293,31.2556496 C66.0421189,34.0313956 64.045014,36.9692857 60.1081435,39.2583098 L45.8966796,47.5215792 C38.7745489,51.6627509 28.0003515,52.1126204 21.8321188,48.5262256 L4.16421812,38.2529655 Z" id="Shape-1" fill="url(#linearGradient-10)" fill-rule="nonzero" mask="url(#mask-9)"></path>
                                        <path d="M4.16421812,38.9146196 C1.34814544,37.2772708 -0.021039418,35.0816316 0.000244315348,32.7846787 C0.000477219208,32.7595436 0.00087662487,19.5013131 0.00144245841,19.4761544 C0.0624284142,16.764522 2.05675495,13.9189145 5.89185911,11.6890607 L20.103323,3.42579127 C27.2256847,-0.71538048 37.9996511,-1.16524995 44.1678838,2.42114482 L61.8357845,12.694405 C64.5817734,14.291005 65.9519959,16.4184528 65.9987629,18.6530479 C65.9989803,18.6634365 65.9991691,31.9069106 65.9993293,31.9173038 C66.0421189,34.6930498 64.045014,37.6309399 60.1081435,39.9199639 L45.8966796,48.1832333 C38.7745489,52.3244051 28.0003515,52.7742746 21.8321188,49.1878798 L4.16421812,38.9146196 Z" id="Gradient" fill="url(#linearGradient-11)" fill-rule="nonzero" opacity="0.400000006" mask="url(#mask-9)"></path>
                                    </g>
                                    <g id="Shape-1">
                                        <mask id="mask-14" fill="white">
                                            <use xlink:href="#path-13"></use>
                                        </mask>
                                        <use id="Fill" fill="url(#linearGradient-12)" fill-rule="nonzero" xlink:href="#path-13"></use>
                                        <path d="M24.0656953,33.7882345 L9.93137476,25.5519139 C4.99678864,22.6766146 5.61559823,17.6538857 11.3134876,14.3338083 L22.6826587,7.70894577 C28.380548,4.38886841 36.9997212,4.0281972 41.9343073,6.90349645 L56.0686279,15.1398171 C61.003214,18.0151163 60.3844044,23.0378453 54.6865151,26.3579226 L43.3173439,32.9827852 C37.6196394,36.3028625 29.0002815,36.6635337 24.0656953,33.7882345" id="Shadow-2" fill="#000000" fill-rule="nonzero" opacity="0.100000001" filter="url(#filter-15)" mask="url(#mask-14)"></path>
                                        <path d="M21.9577795,35.738673 C28.0446082,39.2777371 38.723354,38.8319001 45.7710155,34.7340285 L59.9824824,26.4707574 C66.9522537,22.4183066 67.6964202,16.3911401 61.7101182,12.9105252 L44.0422231,2.63726837 C37.9553994,-0.901792817 27.2768837,-0.455962518 20.2289871,3.64191284 L6.01752021,11.905184 C-0.952251125,15.9576348 -1.69641753,21.9848013 4.28988443,25.4654161 L21.9577852,35.7386763 Z" id="Border" stroke="url(#linearGradient-16)" stroke-width="0.5" fill-rule="nonzero" mask="url(#mask-14)"></path>
                                        <path d="M13.0992713,23.7026944 L2.49853087,17.5918759 C-1.20240872,15.4585893 -0.738301524,11.7320485 3.53511547,9.26876531 L12.0619938,4.35354472 C16.3354108,1.89026152 22.7997907,1.62266675 26.5007303,3.75595329 L37.1014707,9.86677183 C40.8024103,12.0000584 40.3383031,15.7265992 36.0648861,18.1898824 L27.5380078,23.105103 C23.2647294,25.5683862 16.8002109,25.835981 13.0992713,23.7026944" id="Shadow-1" fill="url(#linearGradient-17)" fill-rule="nonzero" opacity="0.400000006" filter="url(#filter-18)" mask="url(#mask-14)"></path>
                                    </g>
                                </g>
                                <g id="Part-2" transform="translate(42.900002, 31.097746)">
                                    <path d="M15.2824832,31.412953 L2.91495269,24.327946 C-1.40281017,21.8545703 -0.861351778,17.5339433 4.12430138,14.6779628 L14.0723261,8.97915629 C19.0579793,6.12317577 26.5997558,5.81292096 30.9175186,8.28629666 L43.2850491,15.3713037 C47.602812,17.8446794 47.0613536,22.1653064 42.0757005,25.0212869 L32.1276757,30.7200934 C27.1421842,33.5760739 19.600246,33.8863287 15.2824832,31.412953" id="Shape" fill="url(#linearGradient-19)" fill-rule="nonzero" opacity="0.800000012"></path>
                                    <path d="M2.91481058,24.3689903 C0.986839937,23.2697581 0.0277013707,21.8039486 0.000446291619,20.2650271 C0.00031437091,20.2575784 0.000165607037,16.8122557 0,9.92905908 L46.1995261,9.26315826 C46.199818,16.1552083 46.1999746,19.6071776 46.1999958,19.6190662 C46.2033637,21.5086828 44.8058764,23.5024568 42.0756869,25.0590806 L32.1276295,30.7311699 C27.1421217,33.5737609 19.6001587,33.8825612 15.2823817,31.4207812 L2.91481058,24.3689903 Z" id="Light" fill="url(#linearGradient-20)" fill-rule="nonzero"></path>
                                    <g id="Objects" transform="translate(4.950000, 0.000000)">
                                        <g id="3" transform="translate(26.400001, 0.000000)">
                                            <path d="M1.44986604,21.7694904 C-0.483245835,20.8005095 -0.483302961,19.2294929 1.44978035,18.2605368 C3.3828351,17.2915808 6.51697963,17.2916056 8.45012007,18.2605864 C10.3832605,19.2295673 10.3832891,20.8005839 8.45023432,21.76954 C6.51715101,22.738496 3.38300648,22.7384712 1.44986604,21.7694904 Z" id="Shape-2" fill="url(#linearGradient-21)"></path>
                                            <path d="M1.44986604,21.764107 C1.26371371,21.6701062 1.29251915e-05,21.0012209 1.29251915e-05,20.00369 C1.29251912e-05,13.1157366 0.00233447501,3.01984132 1.29251926e-05,2.50524264 C-0.00288156148,1.86364581 0.480370645,1.22159951 1.44978035,0.732084507 C3.3828351,-0.244048987 6.51697963,-0.244024005 8.45012007,0.732134472 C9.4188431,1.22130079 9.90213298,1.86276711 9.89999332,2.50389108 C9.89827498,3.01877054 9.89827498,17.640319 9.89999332,20.001023 C9.89999332,21.0051308 8.63667288,21.6700112 8.45023432,21.764157 C6.51715101,22.7402905 3.38300648,22.7402655 1.44986604,21.764107 Z" id="Shape-1" fill="url(#linearGradient-22)" opacity="0.200000003"></path>
                                            <g id="Line" transform="translate(3.960000, 2.646617)">
                                                <rect fill="url(#linearGradient-23)" opacity="0.200000003" x="0.660000026" y="6.61654162" width="1" height="13.2330832" rx="0.5"></rect>
                                                <rect id="Blur-3" fill="url(#linearGradient-23)" filter="url(#filter-24)" x="0.660000026" y="6.61654162" width="1" height="13.2330832" rx="0.5"></rect>
                                                <rect id="Blur-2" fill="url(#linearGradient-23)" filter="url(#filter-25)" x="0.660000026" y="6.61654162" width="1" height="13.2330832" rx="0.5"></rect>
                                                <path d="M0,19.8496248 L0,0.223384557 C5.11022025e-18,0.0915665513 0.497383243,0 0.994673025,0 C1.49196281,0 1.98000008,0.0873025899 1.98000008,0.223384557 L1.98000008,19.544276 C1.80794877,19.5958239 1.48521809,19.6583342 1.01180806,19.7318067 C0.538398024,19.8052793 0.201128671,19.844552 0,19.8496248 Z" id="Blur-1" fill="url(#linearGradient-26)" opacity="0.800000012" filter="url(#filter-27)"></path>
                                            </g>
                                            <g id="Ovals" transform="translate(1.650000, 15.879700)" stroke-width="0.5">
                                                <path d="M1.07860366,4.25441025 C2.29686208,4.86505863 4.30324623,4.86507336 5.52146157,4.25444416 C6.62620327,3.70068532 6.62618121,2.91590611 5.52138708,2.36213136 C4.30312888,1.7514831 2.29674533,1.75146837 1.07854689,2.36209812 C-0.0262030103,2.91585289 -0.0261809472,3.7006321 1.07860499,4.25441091 Z" id="Shape-3" stroke="url(#linearGradient-28)" opacity="0.400000006"></path>
                                                <path d="M1.07860366,4.25441025 C2.29686208,4.86505863 4.30324623,4.86507336 5.52146157,4.25444416 C6.62620327,3.70068532 6.62618121,2.91590611 5.52138708,2.36213136 C4.30312888,1.7514831 2.29674533,1.75146837 1.07854689,2.36209812 C-0.0262030103,2.91585289 -0.0261809472,3.7006321 1.07860499,4.25441091 Z" id="Shape-2" stroke="url(#linearGradient-28)" filter="url(#filter-29)"></path>
                                                <path d="M1.54528822,2.03552084 C2.50579434,2.51697165 4.09429255,2.51698331 5.05476369,2.03554813 C5.90176372,1.61098395 5.90174754,1.03567363 5.05470443,0.61109581 C4.09419852,0.129645109 2.50570092,0.129633448 1.54524287,0.611069181 C0.698236547,1.03563024 0.698252721,1.61094056 1.54528954,2.0355215 Z" id="Shape-1" stroke="url(#linearGradient-30)" opacity="0.400000006"></path>
                                            </g>
                                        </g>
                                        <g id="2" transform="translate(13.200001, 6.947369)">
                                            <path d="M1.44986604,21.8424669 C-0.483245835,20.8734861 -0.483302961,19.3024694 1.44978035,18.3335134 C3.3828351,17.3645573 6.51697963,17.3645821 8.45012007,18.333563 C10.3832605,19.3025438 10.3832891,20.8735605 8.45023432,21.8425165 C6.51715101,22.8114726 3.38300648,22.8114478 1.44986604,21.8424669 Z" id="Shape-2" fill="url(#linearGradient-21)"></path>
                                            <path d="M1.44986604,21.764107 C1.26371371,21.6701062 1.29251915e-05,21.0012209 1.29251915e-05,20.00369 C1.29251912e-05,13.1157366 0.00233447501,3.01984132 1.29251926e-05,2.50524264 C-0.00288156148,1.86364581 0.480370645,1.22159951 1.44978035,0.732084507 C3.3828351,-0.244048987 6.51697963,-0.244024005 8.45012007,0.732134472 C9.4188431,1.22130079 9.90213298,1.86276711 9.89999332,2.50389108 C9.89827498,3.01877054 9.89827498,17.640319 9.89999332,20.001023 C9.89999332,21.0051308 8.63667288,21.6700112 8.45023432,21.764157 C6.51715101,22.7402905 3.38300648,22.7402655 1.44986604,21.764107 Z" id="Shape-1" fill="url(#linearGradient-22)" opacity="0.200000003"></path>
                                            <g id="Line" transform="translate(3.907895, 2.607696)">
                                                <rect fill="url(#linearGradient-23)" opacity="0.200000003" x="0.712105291" y="6.65546245" width="1" height="13.2330832" rx="0.330000013"></rect>
                                                <rect id="Blur-3" fill="url(#linearGradient-23)" filter="url(#filter-31)" x="0.712105291" y="6.65546245" width="1" height="13.2330832" rx="0.330000013"></rect>
                                                <rect id="Blur-2" fill="url(#linearGradient-23)" filter="url(#filter-32)" x="0.712105291" y="6.65546245" width="1" height="13.2330832" rx="0.5"></rect>
                                                <path d="M0.0521052652,19.8885457 L0.0521052652,0.26230539 C0.0521052652,0.130487384 0.549488509,0.038920833 1.04677829,0.038920833 C1.54406807,0.038920833 2.03210534,0.126223423 2.03210534,0.26230539 L2.03210534,19.5831968 C1.86005403,19.6347448 1.53732336,19.697255 1.06391332,19.7707275 C0.590503289,19.8442001 0.253233936,19.8834728 0.0521052652,19.8885457 Z" id="Blur-1" fill="url(#linearGradient-26)" opacity="0.800000012" filter="url(#filter-33)"></path>
                                            </g>
                                            <g id="Ovals" transform="translate(1.628290, 11.681115)" stroke-width="0.5">
                                                <path d="M1.10031419,8.45299512 C2.31857261,9.06364349 4.32495676,9.06365822 5.5431721,8.45302902 C6.6479138,7.89927019 6.64789174,7.11449097 5.54309761,6.56071623 C4.3248394,5.95006796 2.31845586,5.95005323 1.10025742,6.56068299 C-0.00449248307,7.11443775 -0.00447042001,7.89921696 1.10031551,8.45299578 Z" id="Shape-5" stroke="url(#linearGradient-28)" opacity="0.400000006"></path>
                                                <path d="M1.10031419,8.45299512 C2.31857261,9.06364349 4.32495676,9.06365822 5.5431721,8.45302902 C6.6479138,7.89927019 6.64789174,7.11449097 5.54309761,6.56071623 C4.3248394,5.95006796 2.31845586,5.95005323 1.10025742,6.56068299 C-0.00449248307,7.11443775 -0.00447042001,7.89921696 1.10031551,8.45299578 Z" id="Shape-4" stroke="url(#linearGradient-28)" filter="url(#filter-34)"></path>
                                                <path d="M1.56699874,6.2341057 C2.52750487,6.71555651 4.11600308,6.71556817 5.07647421,6.23413299 C5.92347424,5.80956882 5.92345807,5.23425849 5.07641496,4.80968067 C4.11590905,4.32822997 2.52741144,4.32821831 1.5669534,4.80965404 C0.719947074,5.2342151 0.719963248,5.80952543 1.56700007,6.23410636 Z" id="Shape-3" stroke="url(#linearGradient-30)" opacity="0.400000006"></path>
                                                <path d="M2.0336833,4.01521629 C2.73643713,4.36746953 3.9070494,4.36747812 4.60977633,4.01523696 C5.19903469,3.71986745 5.1990244,3.35402601 4.60973231,3.05864512 C3.9069787,2.70639198 2.73636703,2.70638339 2.03364938,3.0586251 C1.44438663,3.35399245 1.44439692,3.71983389 2.03368462,4.01521695 Z" id="Shape-2" stroke="url(#linearGradient-35)" opacity="0.400000006"></path>
                                                <path d="M1.56699874,2.26418073 C2.52750487,2.74563154 4.11600308,2.7456432 5.07647421,2.26420802 C5.92347424,1.83964385 5.92345807,1.26433352 5.07641496,0.839755704 C4.11590905,0.358305004 2.52741144,0.358293343 1.5669534,0.839729075 C0.719947074,1.26429013 0.719963248,1.83960046 1.56700007,2.26418139 Z" id="Shape-1" stroke="url(#linearGradient-30)" opacity="0.400000006"></path>
                                            </g>
                                        </g>
                                        <g id="1" transform="translate(0.000000, 0.330827)">
                                            <path d="M1.43078886,21.4493508 C-0.476887337,20.4946197 -0.476943712,18.9467062 1.43070429,17.9919995 C3.33832411,17.0372928 6.4312299,17.0373173 8.33893428,17.9920484 C10.2466387,18.9467795 10.2466668,20.494693 8.33904703,21.4493997 C6.43139903,22.4041064 3.33849324,22.4040819 1.43078886,21.4493508 Z" id="Shape-2" fill="url(#linearGradient-36)"></path>
                                            <path d="M1.43078886,21.4440466 C1.2470859,21.3514281 1.27551232e-05,20.6923794 1.27551232e-05,19.7095181 C1.27551229e-05,12.9228581 0.00230375824,2.97543189 1.27551243e-05,2.46840084 C-0.0028436462,1.83623925 0.474049978,1.20363481 1.43070429,0.721318558 C3.33832411,-0.240460032 6.4312299,-0.240435417 8.33893428,0.721367788 C9.29491095,1.20334049 9.77184176,1.83537348 9.76973025,2.46706915 C9.76803452,2.97437686 9.76803452,17.3809026 9.76973025,19.7068903 C9.76973025,20.6962319 8.52303245,21.3513346 8.33904703,21.4440959 C6.43139903,22.4058744 3.33849324,22.4058498 1.43078886,21.4440466 Z" id="Shape-1" fill="url(#linearGradient-37)" opacity="0.200000003"></path>
                                            <g id="Line" transform="translate(3.907895, 2.607696)">
                                                <rect fill="url(#linearGradient-38)" opacity="0.200000003" x="0.651315815" y="6.51923953" width="1" height="13.0384791" rx="0.5"></rect>
                                                <rect id="Blur-3" fill="url(#linearGradient-38)" filter="url(#filter-39)" x="0.651315815" y="6.51923953" width="1" height="13.0384791" rx="0.5"></rect>
                                                <rect id="Blur-2" fill="url(#linearGradient-38)" filter="url(#filter-40)" x="0.651315815" y="6.51923953" width="1" height="13.0384791" rx="0.5"></rect>
                                                <path d="M0,19.5577186 L0,0.22009949 C5.04298051e-18,0.0902199843 0.490838727,0 0.981585222,0 C1.47233172,0 1.95394745,0.0860187282 1.95394745,0.22009949 L1.95394745,19.2568602 C1.78415997,19.30765 1.46567575,19.369241 0.998494795,19.4416331 C0.53131384,19.5140252 0.198482241,19.5527203 0,19.5577186 Z" id="Blur-1" fill="url(#linearGradient-41)" opacity="0.800000012" filter="url(#filter-42)"></path>
                                            </g>
                                            <g id="Ovals" transform="translate(1.628290, 15.646175)" stroke-width="0.5">
                                                <path d="M1.06574503,4.18848833 C2.26712279,4.78973071 4.24614201,4.78974522 5.44747722,4.18852174 C6.53507488,3.64421163 6.53505322,2.87507706 5.44740373,2.33075121 C4.24602619,1.72950893 2.26700757,1.72949443 1.06568901,2.33071845 C-0.021916722,2.87502456 -0.0218950648,3.64415913 1.06574635,4.18848899 Z" id="Shape-3" stroke="url(#linearGradient-43)" opacity="0.400000006"></path>
                                                <path d="M1.06574503,4.18848833 C2.26712279,4.78973071 4.24614201,4.78974522 5.44747722,4.18852174 C6.53507488,3.64421163 6.53505322,2.87507706 5.44740373,2.33075121 C4.24602619,1.72950893 2.26700757,1.72949443 1.06568901,2.33071845 C-0.021916722,2.87502456 -0.0218950648,3.64415913 1.06574635,4.18848899 Z" id="Shape-2" stroke="url(#linearGradient-43)" filter="url(#filter-44)"></path>
                                                <path d="M1.526289,2.00222964 C2.47330594,2.47617442 4.03993772,2.47618591 4.9869201,2.00225654 C5.82016742,1.58524117 5.82015157,1.02249506 4.98686164,0.605466175 C4.03984492,0.1315215 2.47321374,0.131510018 1.52624425,0.605439935 C0.692990736,1.02245225 0.693006581,1.58519835 1.52629032,2.0022303 Z" id="Shape-1" stroke="url(#linearGradient-45)" opacity="0.400000006"></path>
                                            </g>
                                        </g>
                                    </g>
                                </g>
                                <g id="Part-1" transform="translate(33.000001, 0.000000)">
                                    <g id="Shape-4" transform="translate(0.000000, 6.616542)" fill-rule="nonzero">
                                        <path d="M4.16421812,32.298078 C1.36306258,30.6694025 -0.00649328832,28.4883355 2.31433312e-05,26.2046304 C0.000110325387,26.1740771 0.000443813883,19.5269639 0.00102347585,19.496375 C0.0525241026,16.7786741 2.04722098,13.9244578 5.89185911,11.6890607 L20.103323,3.42579127 C27.2256847,-0.71538048 37.9996511,-1.16524995 44.1678838,2.42114482 L61.8357845,12.694405 C64.6523686,14.3320511 66.0215393,16.5281906 65.9997466,18.8255974 C65.9995225,18.849224 65.9991512,25.489403 65.998633,25.5130505 C65.9391812,28.2256674 63.9447931,31.07267 60.1081435,33.3034223 L45.8966796,41.5666917 C38.7745489,45.7078635 28.0003515,46.1577329 21.8321188,42.5713382 L4.16421812,32.298078 Z" id="Fill" fill="url(#linearGradient-46)"></path>
                                        <path d="M4.16421812,32.298078 C1.36306258,30.6694025 -0.00649328832,28.4883355 2.31433312e-05,26.2046304 C0.000110325387,26.1740771 0.000443813883,19.5269639 0.00102347585,19.496375 C0.0525241026,16.7786741 2.04722098,13.9244578 5.89185911,11.6890607 L20.103323,3.42579127 C27.2256847,-0.71538048 37.9996511,-1.16524995 44.1678838,2.42114482 L61.8357845,12.694405 C64.6523686,14.3320511 66.0215393,16.5281906 65.9997466,18.8255974 C65.9995225,18.849224 65.9991512,25.489403 65.998633,25.5130505 C65.9391812,28.2256674 63.9447931,31.07267 60.1081435,33.3034223 L45.8966796,41.5666917 C38.7745489,45.7078635 28.0003515,46.1577329 21.8321188,42.5713382 L4.16421812,32.298078 Z" id="Gradient" fill="url(#linearGradient-47)" opacity="0.100000001"></path>
                                    </g>
                                    <g id="Shape-3" transform="translate(0.000000, 22.827069)" fill-rule="nonzero">
                                        <path d="M4.16421812,10.7943178 C1.36306258,9.16564224 -0.00649328832,6.98457526 2.31433315e-05,4.70087013 C8.12647017e-05,4.6805013 4.35013235e-05,3.33822755 -9.01468032e-05,0.674048885 L65.9990476,0.00327128528 C65.9991167,2.65818558 65.9989785,3.99352524 65.998633,4.00929027 C65.9391812,6.72190716 63.9447931,9.5689097 60.1081435,11.7996621 L45.8966796,20.0629315 C38.7745489,24.2041032 28.0003515,24.6539727 21.8321188,21.0675779 L4.16421812,10.7943178 Z" id="Fill-2" fill="url(#linearGradient-48)"></path>
                                        <path d="M4.16421812,10.7943178 C1.36306258,9.16564224 -0.00649328832,6.98457526 2.31433315e-05,4.70087013 C8.12647017e-05,4.6805013 4.35013235e-05,3.33822755 -9.01468032e-05,0.674048885 L65.9990476,0.00327128528 C65.9991167,2.65818558 65.9989785,3.99352524 65.998633,4.00929027 C65.9391812,6.72190716 63.9447931,9.5689097 60.1081435,11.7996621 L45.8966796,20.0629315 C38.7745489,24.2041032 28.0003515,24.6539727 21.8321188,21.0675779 L4.16421812,10.7943178 Z" id="Fill-1" fill="url(#linearGradient-49)" opacity="0.800000012"></path>
                                        <path d="M4.16421812,10.7943178 C1.36306258,9.16564224 -0.00649328832,6.98457526 2.31433315e-05,4.70087013 C8.12647017e-05,4.6805013 4.35013235e-05,3.33822755 -9.01468032e-05,0.674048885 L65.9990476,0.00327128528 C65.9991167,2.65818558 65.9989785,3.99352524 65.998633,4.00929027 C65.9391812,6.72190716 63.9447931,9.5689097 60.1081435,11.7996621 L45.8966796,20.0629315 C38.7745489,24.2041032 28.0003515,24.6539727 21.8321188,21.0675779 L4.16421812,10.7943178 Z" id="Gradient" fill="url(#linearGradient-50)" opacity="0.400000006"></path>
                                    </g>
                                    <g id="Shape-2">
                                        <path d="M4.16421812,30.6439426 C1.36306258,29.0152671 -0.00649328832,26.8342001 2.31433315e-05,24.550495 C0.000110325387,24.5199417 0.000443813883,21.1810993 0.00102347585,21.1505104 C0.0525241026,18.4328095 2.04722098,15.5785932 5.89185911,13.3431961 L20.103323,5.07992667 C27.2256847,0.938754925 37.9996511,0.488885455 44.1678838,4.07528022 L61.8357845,14.3485404 C64.6523686,15.9861865 66.0215393,18.182326 65.9997466,20.4797328 C65.9995225,20.5033594 65.9991512,23.8352676 65.998633,23.8589151 C65.9391812,26.571532 63.9447931,29.4185346 60.1081435,31.6492869 L45.8966796,39.9125563 C38.7745489,44.0537281 28.0003515,44.5035975 21.8321188,40.9172028 L4.16421812,30.6439426 Z" id="Fill" fill="url(#linearGradient-51)" fill-rule="nonzero"></path>
                                        <path d="M4.16421812,30.6439426 C1.36306258,29.0152671 -0.00649328832,26.8342001 2.31433315e-05,24.550495 C0.000110325387,24.5199417 0.000443813883,21.1810993 0.00102347585,21.1505104 C0.0525241026,18.4328095 2.04722098,15.5785932 5.89185911,13.3431961 L20.103323,5.07992667 C27.2256847,0.938754925 37.9996511,0.488885455 44.1678838,4.07528022 L61.8357845,14.3485404 C64.6523686,15.9861865 66.0215393,18.182326 65.9997466,20.4797328 C65.9995225,20.5033594 65.9991512,23.8352676 65.998633,23.8589151 C65.9391812,26.571532 63.9447931,29.4185346 60.1081435,31.6492869 L45.8966796,39.9125563 C38.7745489,44.0537281 28.0003515,44.5035975 21.8321188,40.9172028 L4.16421812,30.6439426 Z" id="Gradient" fill="url(#linearGradient-52)" fill-rule="nonzero" opacity="0.100000001"></path>
                                        <g id="Border">
                                            <mask id="mask-54" fill="white">
                                                <use xlink:href="#path-53"></use>
                                            </mask>
                                            <use id="Fill" fill="url(#linearGradient-12)" fill-rule="nonzero" xlink:href="#path-53"></use>
                                            <path d="M21.9577795,35.738673 C28.0446082,39.2777371 38.723354,38.8319001 45.7710155,34.7340285 L59.9824824,26.4707574 C66.9522537,22.4183066 67.6964202,16.3911401 61.7101182,12.9105252 L44.0422231,2.63726837 C37.9553994,-0.901792817 27.2768837,-0.455962518 20.2289871,3.64191284 L6.01752021,11.905184 C-0.952251125,15.9576348 -1.69641753,21.9848013 4.28988443,25.4654161 L21.9577852,35.7386763 Z" stroke="url(#linearGradient-16)" stroke-width="0.5" fill-rule="nonzero" mask="url(#mask-54)"></path>
                                        </g>
                                    </g>
                                    <g id="Shape-1" transform="translate(13.200001, 7.939850)">
                                        <mask id="mask-56" fill="white">
                                            <use xlink:href="#path-55"></use>
                                        </mask>
                                        <use id="Shape" fill="url(#linearGradient-17)" fill-rule="nonzero" opacity="0.600000024" xlink:href="#path-55"></use>
                                        <path d="M14.0328441,15.8998879 C13.500839,15.5798979 13.2270294,15.1568461 13.2019054,14.7104171 C13.2009144,14.6928081 13.2003103,11.3668921 13.2000926,11.3492153 C13.1930295,10.775845 13.5924284,10.1693531 14.3783723,9.69662213 L17.2206651,7.98698018 C18.6451375,7.13018602 20.7999308,7.03710958 22.0335773,7.77912229 L25.5671574,9.90462439 C26.1172577,10.2354982 26.3912996,10.6765639 26.3997971,11.1397264 C26.4000369,11.1527961 26.4000652,14.4741542 26.3998823,14.4872571 C26.3920125,15.0511354 25.9929853,15.6439335 25.2216292,16.1078902 L22.3793364,17.8175321 C20.9549103,18.6743263 18.8000708,18.7674027 17.5664243,18.02539 L14.0328441,15.8998879 Z" id="Fill-5" fill="url(#linearGradient-57)" fill-rule="nonzero" mask="url(#mask-56)"></path>
                                        <path d="M14.0328441,15.8998879 C13.500839,15.5798979 13.2270294,15.1568461 13.2019054,14.7104171 C13.2009144,14.6928081 13.2003103,11.3668921 13.2000926,11.3492153 C13.1930295,10.775845 13.5924284,10.1693531 14.3783723,9.69662213 L17.2206651,7.98698018 C18.6451375,7.13018602 20.7999308,7.03710958 22.0335773,7.77912229 L25.5671574,9.90462439 C26.1172577,10.2354982 26.3912996,10.6765639 26.3997971,11.1397264 C26.4000369,11.1527961 26.4000652,14.4741542 26.3998823,14.4872571 C26.3920125,15.0511354 25.9929853,15.6439335 25.2216292,16.1078902 L22.3793364,17.8175321 C20.9549103,18.6743263 18.8000708,18.7674027 17.5664243,18.02539 L14.0328441,15.8998879 Z" id="Fill-4" fill="url(#linearGradient-58)" fill-rule="nonzero" opacity="0.100000001" mask="url(#mask-56)"></path>
                                        <path d="M13.0992713,24.6951757 L2.49853087,18.5843571 C-1.20240872,16.4510706 -0.738301524,12.7245298 3.53511547,10.2612466 L12.0619938,5.34602596 C16.3354108,2.88274276 22.7997907,2.61514799 26.5007303,4.74843454 L37.1014707,10.8592531 C40.8024103,12.9925396 40.3383031,16.7190804 36.0648861,19.1823636 L27.5380078,24.0975842 C23.2647294,26.5608674 16.8002109,26.8284622 13.0992713,24.6951757" id="Fill-3" fill="url(#linearGradient-17)" fill-rule="nonzero" opacity="0.400000006" mask="url(#mask-56)"></path>
                                        <path d="M13.0992713,24.6951757 L2.49853087,18.5843571 C-1.20240872,16.4510706 -0.738301524,12.7245298 3.53511547,10.2612466 L12.0619938,5.34602596 C16.3354108,2.88274276 22.7997907,2.61514799 26.5007303,4.74843454 L37.1014707,10.8592531 C40.8024103,12.9925396 40.3383031,16.7190804 36.0648861,19.1823636 L27.5380078,24.0975842 C23.2647294,26.5608674 16.8002109,26.8284622 13.0992713,24.6951757" id="Fill-2" fill="url(#linearGradient-17)" fill-rule="nonzero" opacity="0.600000024" filter="url(#filter-59)" mask="url(#mask-56)"></path>
                                        <path d="M17.5664243,14.7171192 L14.0328441,12.5916171 C12.7991976,11.8496044 12.9539,10.5534163 14.3783723,9.69662213 L17.2206651,7.98698018 C18.6451375,7.13018602 20.7999308,7.03710958 22.0335773,7.77912229 L25.5671574,9.90462439 C26.800804,10.6466371 26.6461016,11.9428252 25.2216292,12.7996194 L22.3793364,14.5092613 C20.9549103,15.3660555 18.8000708,15.4591319 17.5664243,14.7171192" id="Fill-1" fill="url(#linearGradient-60)" fill-rule="nonzero" mask="url(#mask-56)"></path>
                                    </g>
                                </g>
                            </g>
                        </g>
                    </g>
                </g>
            </g>
        </g>
    </g>
</svg>