<?xml version="1.0" encoding="UTF-8"?>
<svg width="20px" height="20px" viewBox="0 0 20 20" version="1.1" xmlns="http://www.w3.org/2000/svg" xmlns:xlink="http://www.w3.org/1999/xlink">
    <!-- Generator: Sketch 52.2 (67145) - http://www.bohemiancoding.com/sketch -->
    <title>Shape</title>
    <desc>Created with Sketch.</desc>
    <g id="KIT" stroke="none" stroke-width="1" fill="none" fill-rule="evenodd">
        <g id="Style-Guide---KIT-Tablet" transform="translate(-205.000000, -7925.000000)" fill="#D6D6D7" fill-rule="nonzero">
            <g id="Menu-(States)" transform="translate(42.000000, 7925.000000)">
                <g id="Image">
                    <g id="Static">
                        <g id="Gradient" transform="translate(143.000000, 0.000000)">
                            <g id="Static" transform="translate(20.000000, 0.000000)">
                                <g id="Icon">
                                    <g id="Shape">
                                        <path d="M18.7185547,12.1007813 L8.53761719,17.9789453 L8.53761719,18.3373438 C8.53761719,18.9575391 8.33789062,19.5316406 8.00027344,20 L18.3373438,20 C19.2541406,20 20,19.2541406 20,18.3373438 L20,13.7188281 C20,12.9332422 19.4521484,12.2736328 18.7185547,12.1007813 Z"></path>
                                        <path d="M18.4139062,8.98777344 L16.6980469,6.01417969 C16.4019141,5.50125 15.8498047,5.18265625 15.2571484,5.18265625 C15.0946875,5.18265625 14.9335547,5.20757813 14.7787109,5.25433594 L8.53761719,16.0641016 L8.53761719,16.6075781 L17.8757031,11.2160156 C18.2234766,10.9921094 18.4721484,10.6517578 18.58,10.2494141 C18.6949219,9.82046875 18.6359375,9.37238281 18.4139062,8.98777344 Z"></path>
                                        <path d="M13.73125,3.71738281 C13.6162891,3.28839844 13.3411719,2.92984375 12.9565625,2.70785156 L9.98605469,0.992695312 C9.7334375,0.846875 9.44632812,0.769765625 9.15570312,0.769765625 C8.90511719,0.769765625 8.66203125,0.827265625 8.4421875,0.931835937 C8.50414062,1.16519531 8.53757812,1.41003906 8.53757812,1.66265625 L8.53757812,13.6869922 L13.5651172,4.9790625 C13.7871875,4.59445312 13.8462109,4.14640625 13.73125,3.71738281 Z"></path>
                                        <path d="M5.68734375,0 C6.60414062,0 7.35003906,0.745859375 7.35,1.66265625 L7.35,18.3373437 C7.35,19.2541406 6.60414062,20 5.68734375,20 L1.66265625,20 C0.745859375,20 0,19.2541406 0,18.3373438 L0,1.66265625 C0,0.745859375 0.745859375,0 1.66265625,0 L5.68734375,0 Z M3.67503906,17.4401172 C4.28988281,17.4401172 4.79015625,16.9398437 4.79015625,16.325 C4.79015625,15.7101562 4.28992187,15.2098828 3.67503906,15.2098828 C3.06015625,15.2098828 2.55988281,15.7101562 2.55988281,16.325 C2.55988281,16.9398437 3.06011719,17.4401172 3.67503906,17.4401172 Z"></path>
                                    </g>
                                </g>
                            </g>
                        </g>
                    </g>
                </g>
            </g>
        </g>
    </g>
</svg>