<?xml version="1.0" encoding="UTF-8"?>
<svg width="20px" height="18px" viewBox="0 0 20 18" version="1.1" xmlns="http://www.w3.org/2000/svg" xmlns:xlink="http://www.w3.org/1999/xlink">
    <!-- Generator: Sketch 52.2 (67145) - http://www.bohemiancoding.com/sketch -->
    <title>Shape</title>
    <desc>Created with Sketch.</desc>
    <g id="KIT" stroke="none" stroke-width="1" fill="none" fill-rule="evenodd">
        <g id="Style-Guide---KIT-Tablet" transform="translate(-109.000000, -7926.000000)" fill="#D6D6D7" fill-rule="nonzero">
            <g id="Menu-(States)" transform="translate(42.000000, 7925.000000)">
                <g id="Image">
                    <g id="Static">
                        <g id="Image" transform="translate(47.000000, 1.000000)">
                            <g id="Static" transform="translate(20.000000, 0.000000)">
                                <g id="Icon">
                                    <path d="M17.7390879,0 L2.26205022,0 C1.01449809,0 0,0.973692198 0,2.17287372 L0,15.8295689 C0,17.0273363 1.01449809,18 2.26205022,18 L17.739021,18 C18.9865731,18 20,17.0273363 20,15.8295689 L20,2.17287372 C20.000067,0.973692198 18.9866401,0 17.7390879,0 Z M12.9330597,3.23147794 C14.1395044,3.23147794 15.1179162,4.17090965 15.1179162,5.3291457 C15.1179162,6.48738175 14.1394374,7.42681346 12.9330597,7.42681346 C11.7262803,7.42681346 10.7482032,6.48738175 10.7482032,5.3291457 C10.7482032,4.17090965 11.7262803,3.23147794 12.9330597,3.23147794 Z M17.0296824,15.9924508 L9.99983262,15.9924508 L3.28317639,15.9924508 C2.67975322,15.9924508 2.41101467,15.5732901 2.68303379,15.0561688 L6.43265301,7.92574394 C6.70433738,7.4086869 7.2221311,7.36253486 7.58881796,7.82257679 L11.3591918,12.5532245 C11.7258786,13.0133307 12.366794,13.0524763 12.7909912,12.6402577 L13.7133656,11.743507 C14.1372281,11.3312883 14.7617406,11.3823255 15.1076728,11.8567659 L17.4961253,15.1323389 C17.841388,15.6074863 17.6331056,15.9924508 17.0296824,15.9924508 Z" id="Shape"></path>
                                </g>
                            </g>
                        </g>
                    </g>
                </g>
            </g>
        </g>
    </g>
</svg>