<?xml version="1.0" encoding="UTF-8" standalone="no"?>
<!DOCTYPE svg PUBLIC "-//W3C//DTD SVG 1.1//EN" "http://www.w3.org/Graphics/SVG/1.1/DTD/svg11.dtd">
<svg width="100%" height="100%" viewBox="0 0 15142 31600" version="1.1" xmlns="http://www.w3.org/2000/svg" xmlns:xlink="http://www.w3.org/1999/xlink" xml:space="preserve" xmlns:serif="http://www.serif.com/" style="fill-rule:evenodd;clip-rule:evenodd;">
    <g transform="matrix(4.16667,0,0,4.16667,0,0)">
        <g transform="matrix(4.16923,0,0,4.16923,0,0)">
            <g id="Flat">
                <g id="Apple-iPhone-SE---Red">
                    <g id="Shadow" transform="matrix(0.999386,0,0,0.999386,4.36289e-13,0)">
                        <g transform="matrix(1,0,0,1,60,1764)">
                            <g style="filter:url(#_Effect1);">
                                <g id="Outer-Shadow" opacity="0.12">
                                    <path id="path-1" d="M375.5,24.111C582.883,24.111 751,18.123 751,10.736C751,3.349 520.732,0 375.5,0C230.268,-0 0,3.349 0,10.736C0,18.123 168.117,24.111 375.5,24.111Z"/>
                                </g>
                            </g>
                        </g>
                        <g transform="matrix(1,0,0,1,60,1764)">
                            <g style="filter:url(#_Effect2);">
                                <g id="Middle-Shadow" opacity="0.08">
                                    <path id="path-3" d="M375.399,20.782C575.869,20.782 738.382,15.992 738.382,10.082C738.382,4.172 515.789,1.493 375.399,1.493C235.008,1.493 12.416,4.172 12.416,10.082C12.416,15.992 174.929,20.782 375.399,20.782Z"/>
                                </g>
                            </g>
                        </g>
                        <g transform="matrix(1,0,0,1,60,1764)">
                            <g style="filter:url(#_Effect3);">
                                <g id="Inner-Shadow" opacity="0.24">
                                    <path id="path-5" d="M376.001,14.812C562.645,14.812 713.951,12.416 713.951,9.461C713.951,6.506 506.709,5.167 376.001,5.167C245.292,5.167 38.051,6.506 38.051,9.461C38.051,12.416 189.356,14.812 376.001,14.812Z"/>
                                </g>
                            </g>
                        </g>
                    </g>
                    <g id="Device">
                        <g id="Body">
                            <path id="Combined-Shape" d="M719,0C787.797,0 867,29.789 867,149L867,375.102C865.855,376.27 865.115,377.837 865.012,379.574C865.525,378.74 866.49,378.267 867.592,378.424L868.655,378.576C870.295,378.81 871.624,380.35 871.624,381.991L871.624,506.009C871.624,507.661 870.291,509.19 868.655,509.424L867.592,509.576C866.488,509.734 865.524,509.259 865.013,508.426C865.115,510.165 865.854,511.733 867,512.901L867,1627C867,1676.58 852.846,1776 716,1776L155,1776C19.748,1776 5,1677.13 5,1627L5,674.898C5.786,674.096 6.382,673.106 6.711,672.001L4.009,672C2.347,672 1,670.651 1,668.995L1,543.005C1,541.345 2.35,540 4.009,540L7,540L7,510L4.009,510C2.347,510 1,508.661 1,507.002L1,381.998C1,380.342 2.35,379 4.009,379L6.93,379C6.715,377.492 6.018,376.138 5,375.1L5,297L3.009,297C1.347,297 0,295.664 0,293.992L0,230.008C0,228.347 1.35,227 3.009,227L5,227L5,149C5,61.467 50.008,0 155,0L719,0ZM719,16L155,16C108.403,16 74.394,28.773 52.364,52.55C31.63,74.928 21,107.71 21,149L21,1627C21,1659.22 27.232,1688.31 42.606,1711.44C63.197,1742.42 98.873,1760 155,1760L716,1760C772.817,1760 808.818,1742.33 829.493,1711.23C844.854,1688.13 851,1659.23 851,1627L851,149C851,98.229 835.983,63.678 808.904,42.37C786.224,24.522 754.921,16 719,16Z" style="fill:rgb(29,30,30);"/>
                            <g id="Antenna" transform="matrix(1,0,0,1,5,140)">
                                <g opacity="0.2">
                                    <path id="Top-Left" d="M0,2C0,2 5.212,0 16,0L16,25C5.528,25.889 0,28 0,28L0,2Z"/>
                                    <g id="Top-Right" transform="matrix(-1,0,0,1,1708,0)">
                                        <path d="M846,2C846,2 851.212,0 862,0L862,25C851.528,25.889 846,28 846,28L846,2Z"/>
                                    </g>
                                    <g id="Bottom-Left" transform="matrix(1,0,0,-1,0,2967)">
                                        <path d="M0,1472C0,1472 5.212,1470 16,1470L16,1496C4.626,1495.6 0,1497 0,1497L0,1472Z"/>
                                    </g>
                                    <g id="Bottom-Right" transform="matrix(-1,0,0,-1,1708,2967)">
                                        <path d="M846,1472C846,1472 851.212,1470 862,1470L862,1496C850.626,1495.6 846,1497 846,1497L846,1472Z"/>
                                    </g>
                                </g>
                            </g>
                            <g id="Plug" transform="matrix(1,0,0,1,377,1772)">
                                <g opacity="0.4">
                                    <path id="Lightning-Connector" d="M9.068,-0C13.04,0.042 19.996,0.008 19.996,0.008C21.103,0.003 22.896,-0 23.998,-0L109.105,-0C113.385,-0 118,4 118,4L0,4C0,4 5.097,-0.042 9.068,-0Z"/>
                                </g>
                            </g>
                        </g>
                        <g id="Front" transform="matrix(1,0,0,1,56,49)">
                            <path id="Home-Button" d="M380,1663C413.137,1663 440,1636.14 440,1603C440,1569.86 413.137,1543 380,1543C346.863,1543 320,1569.86 320,1603C320,1636.14 346.863,1663 380,1663ZM380,1671C342.445,1671 312,1640.56 312,1603C312,1565.44 342.445,1535 380,1535C417.555,1535 448,1565.44 448,1603C448,1640.56 417.555,1671 380,1671Z" style="fill:rgb(29,30,30);fill-rule:nonzero;"/>
                            <g id="Speaker" transform="matrix(1,0,0,1,305,61)">
                                <path id="Mask" d="M151,6.5C151,2.913 148.087,0 144.5,0L6.5,0C2.913,0 0,2.913 0,6.5C0,10.087 2.913,13 6.5,13L144.5,13C148.087,13 151,10.087 151,6.5Z" style="fill:rgb(29,30,30);"/>
                            </g>
                            <circle id="Sensor" cx="380" cy="10" r="10" style="fill:rgb(29,30,30);"/>
                            <g id="Camera" transform="matrix(1,0,0,1,229,53)">
                                <circle id="Oval-57" cx="14.5" cy="14.5" r="14.5" style="fill:rgb(29,30,30);"/>
                                <circle id="Mask1" serif:id="Mask" cx="14.5" cy="14.5" r="7.5" style="fill-opacity:0.2;"/>
                            </g>
                            <path id="Screen-Border" d="M755,167.5L5,167.5C4.31,167.5 3.685,167.78 3.232,168.232C2.78,168.685 2.5,169.31 2.5,170L2.5,1504C2.5,1504.69 2.78,1505.32 3.232,1505.77C3.685,1506.22 4.31,1506.5 5,1506.5L755,1506.5C755.69,1506.5 756.315,1506.22 756.768,1505.77C757.22,1505.32 757.5,1504.69 757.5,1504L757.5,170C757.5,169.31 757.22,168.685 756.768,168.232C756.315,167.78 755.69,167.5 755,167.5Z" style="fill:none;stroke:rgb(29,33,41);stroke-opacity:0.2;stroke-width:5px;"/>
                        </g>
                    </g>
                </g>
            </g>
        </g>
    </g>
    <defs>
        <filter id="_Effect1" filterUnits="userSpaceOnUse" x="-21.6" y="-21.6" width="794.2" height="67.311">
            <feGaussianBlur in="SourceGraphic" stdDeviation="3.6"/>
        </filter>
        <filter id="_Effect2" filterUnits="userSpaceOnUse" x="3.77601" y="-7.14699" width="743.246" height="36.569">
            <feGaussianBlur in="SourceGraphic" stdDeviation="1.44"/>
        </filter>
        <filter id="_Effect3" filterUnits="userSpaceOnUse" x="32.291" y="-0.592995" width="687.42" height="21.165">
            <feGaussianBlur in="SourceGraphic" stdDeviation="0.959999"/>
        </filter>
    </defs>
</svg>
