<?xml version="1.0" encoding="UTF-8"?>
<svg width="18px" height="18px" viewBox="0 0 18 18" version="1.1" xmlns="http://www.w3.org/2000/svg" xmlns:xlink="http://www.w3.org/1999/xlink">
    <!-- Generator: Sketch 52.2 (67145) - http://www.bohemiancoding.com/sketch -->
    <title>icon</title>
    <desc>Created with Sketch.</desc>
    <g id="KIT" stroke="none" stroke-width="1" fill="none" fill-rule="evenodd">
        <g id="Social-Networks---Desktop" transform="translate(-1631.000000, -385.000000)" fill="#CCCED3" fill-rule="nonzero">
            <g id="Settings-Panel" transform="translate(1610.000000, 186.000000)">
                <g id="Social-Networks" transform="translate(10.000000, 68.000000)">
                    <g id="Instagram-(Data-Input)" transform="translate(0.000000, 120.000000)">
                        <path d="M28.94586,16.28931 C28.9309065,15.5426888 28.7894582,14.8040085 28.52753,14.10468 C28.3015394,13.5041404 27.9472753,12.9601225 27.48944,12.51056 C27.0398775,12.0527247 26.4958596,11.6984606 25.89532,11.47247 C25.1959915,11.2105418 24.4573112,11.0690935 23.71069,11.05414 C22.75073,11.01038 22.44427,11 20,11 C17.55573,11 17.24927,11.01038 16.28931,11.05414 C15.5426888,11.0690935 14.8040085,11.2105418 14.10468,11.47247 C13.5041404,11.6984606 12.9601225,12.0527247 12.51056,12.51056 C12.0527247,12.9601225 11.6984606,13.5041404 11.47247,14.10468 C11.2105418,14.8040085 11.0690935,15.5426888 11.05414,16.28931 C11.01038,17.24927 11,17.55573 11,20 C11,22.44427 11.01038,22.75073 11.05414,23.71069 C11.0690935,24.4573112 11.2105418,25.1959915 11.47247,25.89532 C11.6984606,26.4958596 12.0527247,27.0398775 12.51056,27.48944 C12.9601061,27.9472953 13.5041287,28.3015625 14.10468,28.52753 C14.8040085,28.7894582 15.5426888,28.9309065 16.28931,28.94586 C17.24927,28.98969 17.55573,29 20,29 C22.44427,29 22.75073,28.98969 23.71069,28.94586 C24.4573112,28.9309065 25.1959915,28.7894582 25.89532,28.52753 C27.1042544,28.0599688 28.0599588,27.1042644 28.52752,25.89533 C28.7894482,25.1960015 28.9308965,24.4573212 28.94585,23.7107 C28.98962,22.75073 29,22.44427 29,20 C29,17.55573 28.98962,17.24927 28.94586,16.28931 Z M27.32593,23.63678 C27.3191752,24.2074749 27.2143342,24.7727584 27.01599,25.30792 C26.7132468,26.0928479 26.0928462,26.7132522 25.30792,27.016 C24.7727565,27.2143373 24.2074742,27.319178 23.63678,27.32594 C22.68787,27.3692 22.40326,27.37836 20,27.37836 C17.59674,27.37836 17.31213,27.3692 16.36322,27.32593 C15.7925264,27.3191712 15.2272441,27.2143339 14.69208,27.016 C14.3011503,26.8717562 13.9475296,26.6417088 13.65723,26.34278 C13.3582963,26.0524785 13.1282454,25.6988542 12.984,25.30792 C12.7856558,24.7727584 12.6808148,24.2074749 12.67406,23.63678 C12.6308,22.68774 12.62164,22.40314 12.62164,20 C12.62164,17.59686 12.6308,17.31226 12.67407,16.36322 C12.6808288,15.7925264 12.7856661,15.2272441 12.984,14.69208 C13.1282438,14.3011503 13.3582912,13.9475296 13.65722,13.65723 C13.9475215,13.3582963 14.3011458,13.1282454 14.69208,12.984 C15.2272435,12.7856627 15.7925258,12.680822 16.36322,12.67406 C17.31226,12.6308 17.59686,12.62164 20,12.62164 C22.40314,12.62164 22.68774,12.6308 23.63678,12.67407 C24.2074742,12.680832 24.7727565,12.7856727 25.30792,12.98401 C25.6988497,13.1282538 26.0524704,13.3583012 26.34277,13.65723 C26.6417025,13.9475286 26.8717533,14.3011493 27.016,14.69208 C27.2143373,15.2272435 27.319178,15.7925258 27.32594,16.36322 C27.36921,17.31222 27.37837,17.59692 27.37837,20 C27.37837,22.40308 27.3692,22.68774 27.32593,23.63678 Z M20,15.37836 C17.4475387,15.37836 15.37836,17.4475387 15.37836,20 C15.37836,22.5524613 17.4475387,24.62164 20,24.62164 C22.5524613,24.62164 24.62164,22.5524613 24.62164,20 C24.6216124,17.4475501 22.5524499,15.3783876 20,15.37836 Z M20,23 C18.3431458,23 17,21.6568542 17,20 C17,18.3431458 18.3431458,17 20,17 C21.6568542,17 23,18.3431458 23,20 C23,20.7956495 22.6839295,21.5587112 22.1213203,22.1213203 C21.5587112,22.6839295 20.7956495,23 20,23 Z M25.88422,15.1958 C25.88422,15.7922675 25.4006875,16.2758 24.80422,16.2758 C24.2077525,16.2758 23.72422,15.7922675 23.72422,15.1958 C23.72422,14.5993325 24.2077525,14.1158 24.80422,14.1158 C25.4006875,14.1158 25.88422,14.5993325 25.88422,15.1958 Z" id="icon"></path>
                    </g>
                </g>
            </g>
        </g>
    </g>
</svg>