<?xml version="1.0" encoding="UTF-8"?>
<svg width="18px" height="15px" viewBox="0 0 18 15" version="1.1" xmlns="http://www.w3.org/2000/svg" xmlns:xlink="http://www.w3.org/1999/xlink">
    <!-- Generator: Sketch 52.2 (67145) - http://www.bohemiancoding.com/sketch -->
    <title>icon</title>
    <desc>Created with Sketch.</desc>
    <g id="KIT" stroke="none" stroke-width="1" fill="none" fill-rule="evenodd">
        <g id="Social-Networks---Desktop" transform="translate(-1632.000000, -327.000000)" fill="#CCCED3" fill-rule="nonzero">
            <g id="Settings-Panel" transform="translate(1610.000000, 186.000000)">
                <g id="Social-Networks" transform="translate(10.000000, 68.000000)">
                    <g id="Twitter-(No-Data)" transform="translate(0.000000, 60.000000)">
                        <path d="M28.1569565,16.7339486 C28.1647826,16.8964687 28.1677174,17.0609952 28.1677174,17.2235152 C28.1677174,22.2295345 24.4532609,28 17.6611957,28 C15.5745652,28 13.6346739,27.3729936 12,26.2975522 C12.2895652,26.3326645 12.5830435,26.3507223 12.8804348,26.3507223 C14.6119565,26.3507223 16.203587,25.7447833 17.4665217,24.7305377 C15.851413,24.6994382 14.4867391,23.605939 14.0171739,22.1011236 C14.2421739,22.1442616 14.4740217,22.1673355 14.7117391,22.1673355 C15.0492391,22.1673355 15.3759783,22.122191 15.6851087,22.0359149 C13.9956522,21.6867978 12.7229348,20.1569021 12.7229348,18.3210273 C12.7229348,18.3049759 12.7229348,18.2899278 12.7229348,18.2738764 C13.2208696,18.5577849 13.7911957,18.7283307 14.3957609,18.7483949 C13.4047826,18.0682183 12.7522826,16.9105136 12.7522826,15.595305 C12.7522826,14.9020867 12.9342391,14.2510032 13.2531522,13.6912119 C15.0736957,15.9835474 17.7961957,17.4903692 20.865,17.6488764 C20.8023913,17.3709872 20.7701087,17.0830658 20.7701087,16.7851124 C20.7701087,14.6944222 22.4223913,13 24.4620652,13 C25.5244565,13 26.4841304,13.4584671 27.1581522,14.1948234 C27.9984783,14.0242777 28.788913,13.7092697 29.5030435,13.2758828 C29.2271739,14.1597111 28.6411957,14.9020867 27.8791304,15.3705859 C28.6265217,15.2782905 29.3367391,15.0766453 30,14.774679 C29.505,15.5351124 28.878913,16.201244 28.1569565,16.7339486 Z" id="icon"></path>
                    </g>
                </g>
            </g>
        </g>
    </g>
</svg>