<?xml version="1.0" encoding="UTF-8"?>
<svg width="20px" height="11px" viewBox="0 0 20 11" version="1.1" xmlns="http://www.w3.org/2000/svg" xmlns:xlink="http://www.w3.org/1999/xlink">
    <!-- Generator: Sketch 52.2 (67145) - http://www.bohemiancoding.com/sketch -->
    <title>icon</title>
    <desc>Created with Sketch.</desc>
    <g id="KIT" stroke="none" stroke-width="1" fill="none" fill-rule="evenodd">
        <g id="Social-Networks---Desktop" transform="translate(-1630.000000, -498.000000)" fill="#CCCED3">
            <g id="Settings-Panel" transform="translate(1610.000000, 186.000000)">
                <g id="Social-Networks" transform="translate(10.000000, 68.000000)">
                    <g id="Vkontakte" transform="translate(0.000000, 230.000000)">
                        <path d="M29.9706373,14.8151354 C29.9706373,14.8151354 29.8306852,14.4161201 28.9209969,14.5258493 L25.9220244,14.5458001 C25.7889959,14.5266168 25.6532566,14.5474555 25.532158,14.6056524 C25.4096906,14.6771946 25.3173532,14.7905996 25.2722471,14.9248646 C24.951224,15.7010442 24.5771376,16.4542968 24.1526307,17.1793011 C22.8230862,19.3639099 22.2832712,19.4836145 22.0633465,19.3439591 C21.5535212,19.0347223 21.6834767,18.0770855 21.6834767,17.3987595 C21.6834767,15.274003 22.0233602,14.386194 21.0336993,14.1567601 C20.5709574,14.0560814 20.0975708,14.0125283 19.6241822,14.0270802 C18.7867674,13.9520594 17.9426745,14.0332453 17.1350351,14.2664894 C16.7951515,14.4260955 16.5352406,14.7852093 16.6951858,14.80516 C17.0310889,14.8434496 17.3426457,14.9988978 17.5748844,15.2440769 C17.7775193,15.6496895 17.8803272,16.0976654 17.8747816,16.550852 C17.9947405,19.054673 17.464922,19.3639099 17.464922,19.3639099 C17.0550625,19.5733929 16.3453056,19.2242545 15.3056619,17.1593503 C14.9085456,16.4653221 14.5514211,15.7492568 14.2360283,15.0146431 C14.1835727,14.8846717 14.0972977,14.7710301 13.986114,14.6854554 C13.8479943,14.5924658 13.6909553,14.531146 13.5262715,14.5058985 L10.6772477,14.5258493 C10.4595887,14.5029083 10.2422047,14.5716006 10.0774532,14.7153816 C9.97791875,14.8657742 9.97402784,15.059907 10.0674566,15.2141507 C11.216933,17.9855623 12.8292656,20.5422861 14.8358228,22.7754908 C14.8358228,22.7754908 17.1550282,25.1197057 19.794124,24.9600996 L20.993713,24.9600996 C21.1977818,24.9481713 21.3916961,24.8672517 21.5435246,24.7306658 C21.6527651,24.5843837 21.7059532,24.4039276 21.6934732,24.2219213 C21.6734801,22.675737 22.4232232,22.4463032 22.4232232,22.4463032 C23.1529732,22.2268447 24.0926512,23.9426106 25.0923087,24.6009858 C25.4825642,24.8698872 25.9476964,25.00948 26.4218532,25.0000011 L29.0909387,24.9600996 C30.4904592,24.9501242 29.8306852,23.822906 29.8306852,23.822906 C29.3001167,22.9760768 28.627145,22.226916 27.8413668,21.608371 C26.1719388,20.1120636 26.3918635,20.3514728 28.4111716,17.7678487 C29.6407503,16.1917382 30.1305825,15.2341015 29.9706373,14.8151354 Z" id="icon"></path>
                    </g>
                </g>
            </g>
        </g>
    </g>
</svg>