<?xml version="1.0" encoding="UTF-8" standalone="no"?>
<!DOCTYPE svg PUBLIC "-//W3C//DTD SVG 1.1//EN" "http://www.w3.org/Graphics/SVG/1.1/DTD/svg11.dtd">
<svg width="100%" height="100%" viewBox="0 0 17259 34480" version="1.1" xmlns="http://www.w3.org/2000/svg" xmlns:xlink="http://www.w3.org/1999/xlink" xml:space="preserve" xmlns:serif="http://www.serif.com/" style="fill-rule:evenodd;clip-rule:evenodd;stroke-linejoin:round;stroke-miterlimit:2;">
    <g transform="matrix(4.16667,0,0,4.16667,0,0)">
        <g transform="matrix(4.16667,0,0,4.16667,25,0)">
            <g>
                <g id="Page-1">
                    <g id="iPhone-11---Flat">
                        <g id="Flat">
                            <g id="Apple-iPhone-11---Black">
                                <g id="Shadow" transform="matrix(1,0,0,1,23,1920)">
                                    <g style="filter:url(#_Effect1);">
                                        <g id="Outer-Shadow" opacity="0.12">
                                            <path id="path-1" d="M468,30C726.469,30 936,22.549 936,13.358C936,4.166 649.008,0 468,0C286.992,-0 0,4.166 0,13.358C0,22.549 209.531,30 468,30Z"/>
                                        </g>
                                    </g>
                                    <g style="filter:url(#_Effect2);">
                                        <g id="Middle-Shadow" opacity="0.08">
                                            <path id="path-3" d="M468.5,26C718.409,26 921,20.039 921,12.686C921,5.333 643.513,2 468.5,2C293.487,2 16,5.333 16,12.686C16,20.039 218.591,26 468.5,26Z"/>
                                        </g>
                                    </g>
                                    <g style="filter:url(#_Effect3);">
                                        <g id="Inner-Shadow" opacity="0.24">
                                            <path id="path-5" d="M469.5,19C702.288,19 891,16.02 891,12.343C891,8.667 632.523,7 469.5,7C306.477,7 48,8.667 48,12.343C48,16.02 236.712,19 469.5,19Z"/>
                                        </g>
                                    </g>
                                </g>
                                <g id="Device">
                                    <g id="Body">
                                        <g id="Phone-Shape">
                                            <path id="Combined-Shape" d="M796.599,0C841.049,0 866.959,5.003 894.023,19.477C919.922,33.328 940.672,54.078 954.523,79.977C968.997,107.041 974,132.951 974,177.401L974,441.02L974.201,441.072C975.791,441.51 977.612,442.49 978.61,443.85C978.828,444.147 979,445.086 979,445.357L979,649.169C979,649.459 978.758,650.922 978.609,651.277C977.763,653.3 976.301,653.806 974.002,654.96L974,1756.6C974,1801.05 968.997,1826.96 954.523,1854.02C940.672,1879.92 919.922,1900.67 894.023,1914.52C866.959,1929 841.049,1934 796.599,1934L181.401,1934C136.951,1934 111.041,1929 83.977,1914.52C58.078,1900.67 37.328,1879.92 23.477,1854.02C9.003,1826.96 4,1801.05 4,1756.6L4,698.462C2.265,697.601 1.107,696.97 0.391,695.24C0.253,694.907 0.034,693.608 0.004,693.19L0,693.11L0,567.401C0,567.127 0.172,566.179 0.39,565.879C1.224,564.731 2.633,563.851 4.001,563.335L4,530.462C2.265,529.601 1.107,528.97 0.391,527.24C0.253,526.907 0.034,525.608 0.004,525.19L0,525.11L0,399.401C0,399.127 0.172,398.179 0.39,397.879C1.224,396.731 2.633,395.851 4.001,395.335L4,336.885C1.787,336.404 0.111,334.471 0.005,332.126L0,331.89L0,269.11C0,266.66 1.714,264.612 4,264.115L4,177.401C4,132.951 9.003,107.041 23.477,79.977C37.328,54.078 58.078,33.328 83.977,19.477C111.041,5.003 136.951,0 181.401,0L796.599,0ZM246,71L181.401,71C144.403,71 130.987,74.852 117.461,82.086C103.935,89.32 93.32,99.935 86.086,113.461C78.852,126.987 75,140.403 75,177.401L75,1756.6C75,1793.6 78.852,1807.01 86.086,1820.54C93.32,1834.07 103.935,1844.68 117.461,1851.91C130.987,1859.15 144.403,1863 181.401,1863L796.599,1863C833.597,1863 847.013,1859.15 860.539,1851.91C874.065,1844.68 884.68,1834.07 891.914,1820.54C899.148,1807.01 903,1793.6 903,1756.6L903,177.401C903,140.403 899.148,126.987 891.914,113.461C884.68,99.935 874.065,89.32 860.539,82.086C847.013,74.852 833.597,71 796.599,71L732,71C724.82,71 719,76.82 719,84C718.243,96.082 715.95,103.875 712.188,110.91C707.743,119.221 701.221,125.743 692.91,130.188C684.598,134.633 675.264,137 659.074,137L318.926,137C302.736,137 293.402,134.633 285.09,130.188C276.779,125.743 270.257,119.221 265.812,110.91C262.049,103.874 259.671,96.163 259,84C259,76.82 253.18,71 246,71Z" style="fill:rgb(29,30,30);fill-rule:nonzero;"/>
                                            <path id="Combined-Shape1" serif:id="Combined-Shape" d="M796.599,20C837.949,20 860.77,24.374 884.591,37.114C907.004,49.1 924.9,66.996 936.886,89.409C949.626,113.23 954,136.051 954,177.401L954,1756.6C954,1797.95 949.626,1820.77 936.886,1844.59C924.9,1867 907.004,1884.9 884.591,1896.89C860.77,1909.63 837.949,1914 796.599,1914L181.401,1914C140.051,1914 117.23,1909.63 93.409,1896.89C70.996,1884.9 53.1,1867 41.114,1844.59C28.374,1820.77 24,1797.95 24,1756.6L24,177.401C24,136.051 28.374,113.23 41.114,89.409C53.1,66.996 70.996,49.1 93.409,37.114C117.23,24.374 140.051,20 181.401,20L796.599,20ZM246,71L181.401,71C144.403,71 130.987,74.852 117.461,82.086C103.935,89.32 93.32,99.935 86.086,113.461C78.852,126.987 75,140.403 75,177.401L75,1756.6C75,1793.6 78.852,1807.01 86.086,1820.54C93.32,1834.07 103.935,1844.68 117.461,1851.91C130.987,1859.15 144.403,1863 181.401,1863L796.599,1863C833.597,1863 847.013,1859.15 860.539,1851.91C874.065,1844.68 884.68,1834.07 891.914,1820.54C899.148,1807.01 903,1793.6 903,1756.6L903,177.401C903,140.403 899.148,126.987 891.914,113.461C884.68,99.935 874.065,89.32 860.539,82.086C847.013,74.852 833.597,71 796.599,71L732,71C724.82,71 719,76.82 719,84C718.243,96.082 715.95,103.875 712.188,110.91C707.743,119.221 701.221,125.743 692.91,130.188C684.598,134.633 675.264,137 659.074,137L318.926,137C302.736,137 293.402,134.633 285.09,130.188C276.779,125.743 270.257,119.221 265.812,110.91C262.049,103.874 259.671,96.163 259,84C259,76.82 253.18,71 246,71Z" style="fill:rgb(20,20,20);fill-rule:nonzero;"/>
                                        </g>
                                        <g id="Plug" transform="matrix(1,0,0,1,436,1931)">
                                            <g opacity="0.4">
                                                <path d="M14.4,0L93.6,0C100.8,0 105.6,1 108,3L0,3C2.4,1 7.2,0 14.4,0Z"/>
                                            </g>
                                        </g>
                                        <g id="Antenna-Bands" transform="matrix(1,0,0,1,4,190)">
                                            <g opacity="0.2">
                                                <rect id="Antenna-Band" x="0" y="0" width="20" height="19"/>
                                                <rect id="Antenna-Band1" serif:id="Antenna-Band" x="950" y="0" width="20" height="19"/>
                                                <rect id="Antenna-Band2" serif:id="Antenna-Band" x="0" y="1535" width="20" height="19"/>
                                                <rect id="Antenna-Band3" serif:id="Antenna-Band" x="950" y="1535" width="20" height="19"/>
                                            </g>
                                        </g>
                                    </g>
                                    <g id="Front" transform="matrix(1,0,0,1,433,73)">
                                        <g id="Speaker" transform="matrix(1,0,0,1,0,4)">
                                            <g opacity="0.4">
                                                <g>
                                                    <path id="Mask" d="M112,9C112,4.033 107.967,0 103,0L9,0C4.033,0 0,4.033 0,9C0,13.967 4.033,18 9,18L103,18C107.967,18 112,13.967 112,9Z"/>
                                                </g>
                                            </g>
                                        </g>
                                        <g id="Camera" transform="matrix(1,0,0,1,140,0)">
                                            <circle id="Oval-" cx="12.5" cy="12.5" r="12.5" style="fill-opacity:0.4;"/>
                                            <circle id="Mask1" serif:id="Mask" cx="12.5" cy="12.5" r="7.5" style="fill-opacity:0.4;"/>
                                        </g>
                                    </g>
                                </g>
                            </g>
                        </g>
                    </g>
                </g>
            </g>
        </g>
    </g>
    <defs>
        <filter id="_Effect1" filterUnits="userSpaceOnUse" x="-24.48" y="-24.48" width="984.96" height="78.96">
            <feGaussianBlur in="SourceGraphic" stdDeviation="4.08"/>
        </filter>
        <filter id="_Effect2" filterUnits="userSpaceOnUse" x="5.92001" y="-8.07999" width="925.16" height="44.16">
            <feGaussianBlur in="SourceGraphic" stdDeviation="1.68"/>
        </filter>
        <filter id="_Effect3" filterUnits="userSpaceOnUse" x="42.24" y="1.24" width="854.52" height="23.52">
            <feGaussianBlur in="SourceGraphic" stdDeviation="0.959999"/>
        </filter>
    </defs>
</svg>
