<?xml version="1.0" encoding="UTF-8" standalone="no"?>
<!DOCTYPE svg PUBLIC "-//W3C//DTD SVG 1.1//EN" "http://www.w3.org/Graphics/SVG/1.1/DTD/svg11.dtd">
<svg width="100%" height="100%" viewBox="0 0 6667 14317" version="1.1" xmlns="http://www.w3.org/2000/svg" xmlns:xlink="http://www.w3.org/1999/xlink" xml:space="preserve" xmlns:serif="http://www.serif.com/" style="fill-rule:evenodd;clip-rule:evenodd;stroke-linejoin:round;stroke-miterlimit:2;">
    <g transform="matrix(4.16667,0,0,4.16667,0,0)">
        <g transform="matrix(1,0,0,1,36,0)">
            <g id="Page-1">
                <g id="Galaxy-S20---Concept---Glass" serif:id="Galaxy-S20---Concept-/-Glass">
                    <g id="Glass">
                        <g id="Galaxy-S20---Black">
                            <g id="Shadow" transform="matrix(1,0,0,1,7,3282)">
                                <g style="filter:url(#_Effect1);">
                                    <g id="_3" serif:id="3" opacity="0.06">
                                        <ellipse id="path-1" cx="757" cy="47.5" rx="750" ry="47.5"/>
                                    </g>
                                </g>
                                <g style="filter:url(#_Effect2);">
                                    <g id="_2" serif:id="2" opacity="0.1">
                                        <ellipse id="path-3" cx="756.5" cy="48" rx="756.5" ry="22"/>
                                    </g>
                                </g>
                                <g style="filter:url(#_Effect3);">
                                    <g id="_1" serif:id="1" opacity="0.1">
                                        <ellipse id="path-5" cx="757" cy="48" rx="740" ry="17"/>
                                    </g>
                                </g>
                            </g>
                            <g id="Device">
                                <g id="Base">
                                    <path id="Combined-Shape" d="M1292.12,-0C1374.14,-0 1403.88,8.54 1433.87,24.576C1463.86,40.612 1487.39,64.145 1503.42,94.13C1519.46,124.115 1528,153.858 1528,235.877L1528,662.224C1533.05,662.727 1537,666.99 1537,672.175L1537,1075.17C1537,1080.36 1533.05,1084.62 1528,1085.13L1528,1303.05C1533.05,1303.55 1537,1307.82 1537,1313L1537,1517C1537,1522.18 1533.05,1526.45 1528,1526.95L1528,3100.41C1528,3181.98 1519.51,3211.56 1503.56,3241.38C1487.61,3271.2 1464.2,3294.61 1434.38,3310.56C1404.56,3326.51 1374.98,3335 1293.4,3335L234.595,3335C153.022,3335 123.441,3326.51 93.619,3310.56C63.796,3294.61 40.392,3271.2 24.443,3241.38C8.494,3211.56 -0,3181.98 -0,3100.41L-0,235.877C-0,153.858 8.54,124.115 24.576,94.13C40.612,64.145 64.145,40.612 94.13,24.576C124.115,8.54 153.858,-0 235.877,-0L1292.12,-0ZM232.446,57C166.919,57 143.157,63.823 119.202,76.634C95.246,89.446 76.446,108.246 63.634,132.202C50.823,156.157 44,179.919 44,245.446L44,3063.43C44,3130.74 51.008,3155.14 64.169,3179.75C77.329,3204.36 96.641,3223.67 121.248,3236.83C145.856,3249.99 170.264,3257 237.573,3257L1290.43,3257C1357.74,3257 1382.14,3249.99 1406.75,3236.83C1431.36,3223.67 1450.67,3204.36 1463.83,3179.75C1476.99,3155.14 1484,3130.74 1484,3063.43L1484,245.446C1484,179.919 1477.18,156.157 1464.37,132.202C1451.55,108.246 1432.75,89.446 1408.8,76.634C1384.84,63.823 1361.08,57 1295.55,57L232.446,57Z" style="fill:rgb(29,30,30);fill-opacity:0.6;"/>
                                    <path id="Combined-Shape1" serif:id="Combined-Shape" d="M1309.33,21C1381.54,21 1407.73,28.519 1434.12,42.638C1460.53,56.757 1481.24,77.475 1495.36,103.875C1509.48,130.275 1517,156.462 1517,228.675L1517,3097.51C1517,3174.18 1509.02,3201.98 1494.03,3230.01C1479.04,3258.04 1457.04,3280.04 1429.01,3295.03C1400.98,3310.02 1373.18,3318 1296.51,3318L231.494,3318C154.824,3318 127.021,3310.02 98.991,3295.03C70.962,3280.04 48.964,3258.04 33.973,3230.01C18.983,3201.98 11,3174.18 11,3097.51L11,228.675C11,156.462 18.519,130.275 32.638,103.875C46.757,77.475 67.475,56.757 93.875,42.638C120.275,28.519 146.462,21 218.675,21L1309.33,21ZM232.446,57C166.919,57 143.157,63.823 119.202,76.634C95.246,89.446 76.446,108.246 63.634,132.202C50.823,156.157 44,179.919 44,245.446L44,3063.43C44,3130.74 51.008,3155.14 64.169,3179.75C77.329,3204.36 96.641,3223.67 121.248,3236.83C145.856,3249.99 170.264,3257 237.573,3257L1290.43,3257C1357.74,3257 1382.14,3249.99 1406.75,3236.83C1431.36,3223.67 1450.67,3204.36 1463.83,3179.75C1476.99,3155.14 1484,3130.74 1484,3063.43L1484,245.446C1484,179.919 1477.18,156.157 1464.37,132.202C1451.55,108.246 1432.75,89.446 1408.8,76.634C1384.84,63.823 1361.08,57 1295.55,57L232.446,57Z" style="fill:rgb(20,20,20);fill-opacity:0.6;"/>
                                </g>
                                <g id="Antenna-Bands" transform="matrix(1,0,0,1,279,0)">
                                    <g opacity="0.2">
                                        <path id="Top-Antenna-Band-Copy-3" d="M0,3318L0,3335L22,3335L22,3318L0,3318Z"/>
                                        <path id="Top-Antenna-Band-Copy-4" d="M948,3318L948,3335L970,3335L970,3318L948,3318Z"/>
                                        <path id="Top-Antenna-Band-Copy" d="M255,0L255,21L277,21L277,0L255,0Z"/>
                                    </g>
                                </g>
                            </g>
                            <g id="Screen">
                            </g>
                            <g id="Camera" transform="matrix(1,0,0,1,724,88)">
                                <circle id="Base1" serif:id="Base" cx="40" cy="40" r="40" style="fill:rgb(20,20,20);fill-opacity:0.6;"/>
                                <circle id="Base2" serif:id="Base" cx="40" cy="40" r="25" style="fill-opacity:0.6;"/>
                            </g>
                        </g>
                    </g>
                </g>
            </g>
        </g>
    </g>
    <defs>
        <filter id="_Effect1" filterUnits="userSpaceOnUse" x="-161" y="-168" width="1836" height="431">
            <feGaussianBlur in="SourceGraphic" stdDeviation="28"/>
        </filter>
        <filter id="_Effect2" filterUnits="userSpaceOnUse" x="-72" y="-46" width="1657" height="188">
            <feGaussianBlur in="SourceGraphic" stdDeviation="12"/>
        </filter>
        <filter id="_Effect3" filterUnits="userSpaceOnUse" x="-31" y="-17" width="1576" height="130">
            <feGaussianBlur in="SourceGraphic" stdDeviation="8"/>
        </filter>
    </defs>
</svg>
