<?xml version="1.0" encoding="UTF-8"?>
<svg width="118px" height="127px" viewBox="0 0 118 127" version="1.1" xmlns="http://www.w3.org/2000/svg" xmlns:xlink="http://www.w3.org/1999/xlink">
    <!-- Generator: Sketch 52.5 (67469) - http://www.bohemiancoding.com/sketch -->
    <title>Icon</title>
    <desc>Created with Sketch.</desc>
    <defs>
        <linearGradient x1="87.097168%" y1="14.3432617%" x2="15.2547201%" y2="88.0452474%" id="linearGradient-1">
            <stop stop-color="#5E7ADB" offset="0%"></stop>
            <stop stop-color="#8359C1" offset="100%"></stop>
        </linearGradient>
        <filter x="-60.0%" y="-60.0%" width="220.0%" height="220.0%" filterUnits="objectBoundingBox" id="filter-2">
            <feGaussianBlur stdDeviation="12" in="SourceGraphic"></feGaussianBlur>
        </filter>
        <linearGradient x1="93.0653212%" y1="18.8398438%" x2="8.06966146%" y2="83.4111328%" id="linearGradient-3">
            <stop stop-color="#5E7ADB" offset="0%"></stop>
            <stop stop-color="#8359C1" offset="100%"></stop>
        </linearGradient>
    </defs>
    <g id="Page-1" stroke="none" stroke-width="1" fill="none" fill-rule="evenodd">
        <g id="Icon" transform="translate(-91.000000, -101.000000)">
            <g transform="translate(102.000000, 101.000000)">
                <circle id="Shadow" fill="url(#linearGradient-1)" filter="url(#filter-2)" cx="48" cy="68" r="30"></circle>
                <circle id="Outline" stroke="url(#linearGradient-3)" stroke-width="8" opacity="0.200000003" cx="48" cy="48" r="44"></circle>
                <circle id="Background" fill="url(#linearGradient-1)" opacity="0.900000036" cx="48" cy="48" r="40"></circle>
                <g transform="translate(28.000000, 28.000000)" fill="#FFFFFF">
                    <path d="M40,6.246 L40,37.679 C40.0007966,38.2944648 39.7567938,38.8849799 39.3217818,39.3203671 C38.8867698,39.7557543 38.2964652,40.000266 37.681,40 L2.315,40 C1.70022802,39.9992049 1.11095142,39.7542248 0.676804592,39.3189528 C0.242657764,38.8836807 -0.000796164547,38.293772 -2.27373675e-13,37.679 L-2.27373675e-13,6.246 L-2.27373675e-13,2.253 C0.0208279295,0.995624422 1.05455559,-0.00814660176 2.312,0.008 L37.692,0.008 C38.9478918,-0.00592620417 39.9791719,0.997203725 40,2.253 L40,6.246 Z" id="Bar" opacity="0.200000003"></path>
                    <path d="M36.714,38 L3.286,38 C2.94952371,38.0050758 2.62482953,37.8761917 2.38343314,37.6417352 C2.14203675,37.4072788 2.00373874,37.0864812 1.999,36.75 L1.999,8 L37.999,8 L37.999,36.75 C37.9891269,37.4499313 37.4139371,38.0094545 36.714,38 Z" id="Container" opacity="0.600000024"></path>
                    <path d="M33,3 C33.5522847,3 34,3.44771525 34,4 C34,4.55228475 33.5522847,5 33,5 C32.4477153,5 32,4.55228475 32,4 C31.9804221,3.72925469 32.0794745,3.46336591 32.2714202,3.27142018 C32.4633659,3.07947446 32.7292547,2.98042206 33,3 Z M37,3 C37.5522847,3 38,3.44771525 38,4 C38,4.55228475 37.5522847,5 37,5 C36.4477153,5 36,4.55228475 36,4 C35.9804221,3.72925469 36.0794745,3.46336591 36.2714202,3.27142018 C36.4633659,3.07947446 36.7292547,2.98042206 37,3 Z M3,3 L29,3 C29.5522847,3 30,3.44771525 30,4 C30,4.55228475 29.5522847,5 29,5 L3,5 C2.44771525,5 2,4.55228475 2,4 C2,3.44771525 2.44771525,3 3,3 Z" id="Btns" opacity="0.400000006"></path>
                    <path d="M25.5,30 C24.7693611,30.0276042 24.1542545,29.4585747 24.125,28.728 C23.9603972,26.5716063 22.1626668,24.9058714 20,24.9058714 C17.8373332,24.9058714 16.0396028,26.5716063 15.875,28.728 C15.8201324,29.4467979 15.2208889,30.0020429 14.5,30.0020429 C13.7791111,30.0020429 13.1798676,29.4467979 13.125,28.728 C13.4297531,25.1576971 16.4167141,22.4148347 20,22.4148347 C23.5832859,22.4148347 26.5702469,25.1576971 26.875,28.728 C26.8457455,29.4585747 26.2306389,30.0276042 25.5,30 Z M11,20 C9.8954305,20 9,19.1045695 9,18 C9,16.8954305 9.8954305,16 11,16 C12.1045695,16 13,16.8954305 13,18 C13,19.1045695 12.1045695,20 11,20 Z M29,20 C27.8954305,20 27,19.1045695 27,18 C27,16.8954305 27.8954305,16 29,16 C30.1045695,16 31,16.8954305 31,18 C31,19.1045695 30.1045695,20 29,20 Z" id="Combined-Shape"></path>
                </g>
            </g>
        </g>
    </g>
</svg>