<?xml version="1.0" encoding="UTF-8" standalone="no"?>
<!DOCTYPE svg PUBLIC "-//W3C//DTD SVG 1.1//EN" "http://www.w3.org/Graphics/SVG/1.1/DTD/svg11.dtd">
<svg width="100%" height="100%" viewBox="0 0 22484 46130" version="1.1" xmlns="http://www.w3.org/2000/svg" xmlns:xlink="http://www.w3.org/1999/xlink" xml:space="preserve" xmlns:serif="http://www.serif.com/" style="fill-rule:evenodd;clip-rule:evenodd;stroke-linejoin:round;stroke-miterlimit:2;">
    <g transform="matrix(4.16667,0,0,4.16667,0,0)">
        <g transform="matrix(4.16667,0,0,4.16667,0,0)">
            <g id="Page-1">
                <g id="iPhone-11-Pro---Flat">
                    <g id="Flat">
                        <g id="Apple-iPhone-11-Pro---Space-Grey">
                            <g id="Shadow" transform="matrix(1,0,0,1,85,2573)">
                                <g style="filter:url(#_Effect1);">
                                    <g id="Outer-Shadow" opacity="0.12">
                                        <path id="path-1" d="M562.5,36.649C873.16,36.649 1125,27.547 1125,16.318C1125,5.09 780.057,0 562.5,0C344.943,-0 0,5.09 0,16.318C0,27.547 251.84,36.649 562.5,36.649Z"/>
                                    </g>
                                </g>
                                <g style="filter:url(#_Effect2);">
                                    <g id="Middle-Shadow" opacity="0.08">
                                        <path id="path-3" d="M562.348,31.589C862.653,31.589 1106.1,24.307 1106.1,15.324C1106.1,6.342 772.654,2.27 562.348,2.27C352.043,2.27 18.598,6.342 18.598,15.324C18.598,24.307 262.044,31.589 562.348,31.589Z"/>
                                    </g>
                                </g>
                                <g style="filter:url(#_Effect3);">
                                    <g id="Inner-Shadow" opacity="0.24">
                                        <path id="path-5" d="M563.25,22.514C842.844,22.514 1069.5,18.873 1069.5,14.381C1069.5,9.89 759.052,7.854 563.25,7.854C367.448,7.854 57,9.89 57,14.381C57,18.873 283.656,22.514 563.25,22.514Z"/>
                                    </g>
                                </g>
                            </g>
                            <g id="Device">
                                <g id="Body">
                                    <g id="Phone-Shape">
                                        <path id="Combined-Shape" d="M1060,0C1218.59,0 1287,78.409 1287,227L1287,595L1288.02,595C1290.29,595.559 1293.01,596.99 1294.46,599.023C1294.76,599.441 1295,600.766 1295,601.149L1295,888.771C1295,889.18 1294.67,891.246 1294.46,891.746C1293.29,894.633 1291.24,895.331 1288.02,897L1287,897L1287,2363C1287,2506.59 1213.59,2590 1060,2590L235,2590C76.409,2590 8,2511.59 8,2363L8,960L6.981,960C3.868,958.389 1.856,957.682 0.662,955.037L0.537,954.746C0.346,954.277 0.041,952.432 0.004,951.867L0,951.771L0,776.149C0,775.766 0.237,774.441 0.536,774.023C1.926,772.078 4.477,770.684 6.683,770.078L6.981,770L8,770L8,723L6.981,723C3.868,721.389 1.856,720.682 0.662,718.037L0.537,717.746C0.346,717.277 0.041,715.432 0.004,714.867L0,714.771L0,539.149C0,538.766 0.237,537.441 0.536,537.023C1.926,535.078 4.477,533.684 6.683,533.078L6.981,533L8,533L8,450L6.981,450C3.206,450 0.131,446.995 0.004,443.241L0,443L0,357C0,353.215 2.997,350.131 6.741,350.004L6.981,350L8,350L8,227C8,78.409 76.409,0 235,0L1060,0ZM312,77L215,77C133.935,77 85,125.935 85,207L85,2383C85,2464.07 133.935,2513 215,2513L1080,2513C1161.07,2513 1210,2464.07 1210,2383L1210,207C1210,125.935 1161.07,77 1080,77L984,77C961.69,77 961.021,89.368 961.001,101.843L961,104C961,131.794 939.794,167 891,167L405,167C356.206,167 335,131.794 335,104L335,103C335,90.145 335,77 312,77Z" style="fill:rgb(61,74,69);"/>
                                        <path id="Combined-Shape1" serif:id="Combined-Shape" d="M1057,22C1200.42,22 1265,87.098 1265,230L1265,2360C1265,2497.87 1195.45,2568 1057,2568L238,2568C94.575,2568 30,2502.9 30,2360L30,230C30,87.098 94.575,22 238,22L1057,22ZM312,77L215,77C133.935,77 85,125.935 85,207L85,2383C85,2464.07 133.935,2513 215,2513L1080,2513C1161.07,2513 1210,2464.07 1210,2383L1210,207C1210,125.935 1161.07,77 1080,77L984,77C961.69,77 961.021,89.368 961.001,101.843L961,104C961,131.794 939.794,167 891,167L405,167C356.206,167 335,131.794 335,104L335,103C335,90.145 335,77 312,77Z" style="fill:rgb(20,20,20);"/>
                                    </g>
                                    <g id="Plug" transform="matrix(1,0,0,1,573,2586)">
                                        <g opacity="0.4">
                                            <path d="M20,0L130,0C140,0 146.667,1.333 150,4L0,4C3.333,1.333 10,0 20,0Z"/>
                                        </g>
                                    </g>
                                    <g id="Antenna-Bands" transform="matrix(1,0,0,1,8,0)">
                                        <g opacity="0.2">
                                            <rect id="Antenna-Band" x="0" y="248" width="22" height="18"/>
                                            <rect id="Antenna-Band1" serif:id="Antenna-Band" x="1257" y="248" width="22" height="18"/>
                                            <g id="Antenna-Band2" serif:id="Antenna-Band" transform="matrix(-3.82857e-16,-1,1,-3.82857e-16,1011,1033)">
                                                <rect x="1011" y="2" width="22" height="18"/>
                                            </g>
                                            <g id="Antenna-Band3" serif:id="Antenna-Band" transform="matrix(-3.82857e-16,-1,1,-3.82857e-16,-2322,2836)">
                                                <rect x="246" y="2570" width="22" height="18"/>
                                            </g>
                                            <rect id="Antenna-Band4" serif:id="Antenna-Band" x="0" y="2324" width="22" height="18"/>
                                            <rect id="Antenna-Band5" serif:id="Antenna-Band" x="1257" y="2324" width="22" height="18"/>
                                        </g>
                                    </g>
                                </g>
                                <g id="Front" transform="matrix(1,0,0,1,570,84)">
                                    <g id="Speaker" transform="matrix(1,0,0,1,0,9)">
                                        <g opacity="0.4">
                                            <g>
                                                <path id="Mask" d="M156,10.5C156,4.705 151.295,0 145.5,0L10.5,0C4.705,0 0,4.705 0,10.5C0,16.295 4.705,21 10.5,21L145.5,21C151.295,21 156,16.295 156,10.5Z"/>
                                            </g>
                                        </g>
                                    </g>
                                    <g id="Camera" transform="matrix(1,0,0,1,196,0)">
                                        <circle id="Oval-" cx="19" cy="19" r="19" style="fill-opacity:0.4;"/>
                                        <circle id="Mask1" serif:id="Mask" cx="19" cy="19" r="10" style="fill-opacity:0.4;"/>
                                    </g>
                                </g>
                            </g>
                        </g>
                    </g>
                </g>
            </g>
        </g>
    </g>
    <defs>
        <filter id="_Effect1" filterUnits="userSpaceOnUse" x="-31.68" y="-31.68" width="1188.36" height="100.009">
            <feGaussianBlur in="SourceGraphic" stdDeviation="5.28"/>
        </filter>
        <filter id="_Effect2" filterUnits="userSpaceOnUse" x="5.63801" y="-10.69" width="1113.42" height="55.239">
            <feGaussianBlur in="SourceGraphic" stdDeviation="2.16"/>
        </filter>
        <filter id="_Effect3" filterUnits="userSpaceOnUse" x="48.36" y="-0.785993" width="1029.78" height="31.94">
            <feGaussianBlur in="SourceGraphic" stdDeviation="1.44"/>
        </filter>
    </defs>
</svg>
