<?xml version="1.0" encoding="UTF-8" standalone="no"?>
<!DOCTYPE svg PUBLIC "-//W3C//DTD SVG 1.1//EN" "http://www.w3.org/Graphics/SVG/1.1/DTD/svg11.dtd">
<svg width="100%" height="100%" viewBox="0 0 20609 44342" version="1.1" xmlns="http://www.w3.org/2000/svg" xmlns:xlink="http://www.w3.org/1999/xlink" xml:space="preserve" xmlns:serif="http://www.serif.com/" style="fill-rule:evenodd;clip-rule:evenodd;">
    <g transform="matrix(4.16667,0,0,4.16667,0,0)">
        <g transform="matrix(4.16667,0,0,4.16667,37.5,0)">
            <g>
                <g id="Page-1">
                    <g id="Pixel-4---Concept---Line" serif:id="Pixel-4---Concept-/-Line">
                        <g id="Google-Pixel-4-Just-Black">
                            <g id="Shadow" transform="matrix(1,0,0,1,18.7447,2480.5)">
                                <g style="filter:url(#_Effect1);">
                                    <g id="Outer-Shadow" opacity="0.12">
                                        <path id="path-1" d="M565.376,37.504C877.213,37.504 1130.01,28.189 1130.01,16.699C1130.01,5.208 783.757,0 565.376,0C346.995,-0 0.746,5.208 0.746,16.699C0.746,28.189 253.54,37.504 565.376,37.504Z"/>
                                    </g>
                                </g>
                                <g style="filter:url(#_Effect2);">
                                    <g id="Middle-Shadow" opacity="0.08">
                                        <path id="path-3" d="M565.255,31.253C866.532,31.253 1110.76,23.987 1110.76,15.025C1110.76,6.063 776.241,2 565.255,2C354.269,2 19.746,6.063 19.746,15.025C19.746,23.987 263.979,31.253 565.255,31.253Z"/>
                                    </g>
                                </g>
                                <g style="filter:url(#_Effect3);">
                                    <g id="Inner-Shadow" opacity="0.24">
                                        <path id="path-5" d="M565.763,23.001C846.333,23.001 1073.78,19.276 1073.78,14.679C1073.78,10.083 762.248,8 565.763,8C369.278,8 57.746,10.083 57.746,14.679C57.746,19.276 285.193,23.001 565.763,23.001Z"/>
                                    </g>
                                </g>
                            </g>
                            <g id="Device">
                                <path id="Combined-Shape" d="M1016,0C1099.95,-0 1168,68.053 1168,152L1168,608L1175.75,608C1176.99,608 1178,609.007 1178,610.25L1178,757.75C1178,758.993 1176.99,760 1175.75,760L1168,760L1168,918L1175.75,918C1176.99,918 1178,919.007 1178,920.25L1178,1225.75C1178,1226.99 1176.99,1228 1175.75,1228L1168,1228L1168,2344C1168,2427.95 1099.95,2496 1016,2496L152,2496C68.053,2496 -0,2427.95 0,2344L0,152C-0,68.053 68.053,0 152,0L1016,0ZM1016,16L152,16C76.889,16 16,76.889 16,152L16,2344C16,2419.11 76.889,2480 152,2480L1016,2480C1091.11,2480 1152,2419.11 1152,2344L1152,152C1152,76.889 1091.11,16 1016,16Z" style="fill:rgb(29,30,30);"/>
                                <g id="Sensor" transform="matrix(1,0,0,1,382,65)">
                                    <path id="Base" d="M28,13.875C28,6.217 21.783,0 14.125,0L13.875,0C6.217,0 0,6.217 0,13.875L0,48.125C0,55.783 6.217,62 13.875,62L14.125,62C21.783,62 28,55.783 28,48.125L28,13.875Z" style="fill:rgb(29,30,30);"/>
                                    <path id="Top-Sensor" d="M25,13.5C25,7.705 20.295,3 14.5,3L13.5,3C7.705,3 3,7.705 3,13.5L3,14.5C3,20.295 7.705,25 13.5,25L14.5,25C20.295,25 25,20.295 25,14.5L25,13.5Z" style="fill-opacity:0.4;"/>
                                    <path id="Bottom-Sensor" d="M25,47.5C25,41.705 20.295,37 14.5,37L13.5,37C7.705,37 3,41.705 3,47.5L3,48.5C3,54.295 7.705,59 13.5,59L14.5,59C20.295,59 25,54.295 25,48.5L25,47.5Z" style="fill-opacity:0.4;"/>
                                </g>
                                <g id="Front-Camera" transform="matrix(1,0,0,1,293,63)">
                                    <circle id="Base1" serif:id="Base" cx="32" cy="32" r="32" style="fill:rgb(29,30,30);"/>
                                    <circle id="Ring" cx="32" cy="32" r="17" style="fill-opacity:0.4;"/>
                                </g>
                                <path id="Speaker" d="M646,93C646,87.481 641.519,83 636,83L533,83C527.481,83 523,87.481 523,93C523,98.519 527.481,103 533,103L636,103C641.519,103 646,98.519 646,93Z" style="fill:rgb(29,30,30);"/>
                            </g>
                            <g id="Screen" transform="matrix(1,0,0,1,44,145)">
                                <path d="M1077,103C1077,76.478 1066.46,51.043 1047.71,32.289C1028.96,13.536 1003.52,3 977,3L103,3C76.478,3 51.043,13.536 32.289,32.289C13.536,51.043 3,76.478 3,103L3,2177C3,2203.52 13.536,2228.96 32.289,2247.71C51.043,2266.46 76.478,2277 103,2277L977,2277C1003.52,2277 1028.96,2266.46 1047.71,2247.71C1066.46,2228.96 1077,2203.52 1077,2177L1077,103Z" style="fill:none;stroke:rgb(29,33,41);stroke-opacity:0.2;stroke-width:6px;"/>
                            </g>
                        </g>
                    </g>
                </g>
            </g>
        </g>
    </g>
    <defs>
        <filter id="_Effect1" filterUnits="userSpaceOnUse" x="-23.734" y="-24.48" width="1178.22" height="86.464">
            <feGaussianBlur in="SourceGraphic" stdDeviation="4.08"/>
        </filter>
        <filter id="_Effect2" filterUnits="userSpaceOnUse" x="9.66601" y="-8.07999" width="1111.17" height="49.413">
            <feGaussianBlur in="SourceGraphic" stdDeviation="1.68"/>
        </filter>
        <filter id="_Effect3" filterUnits="userSpaceOnUse" x="51.986" y="2.24" width="1027.55" height="26.521">
            <feGaussianBlur in="SourceGraphic" stdDeviation="0.959999"/>
        </filter>
    </defs>
</svg>
