<?xml version="1.0" encoding="UTF-8"?>
<svg width="142px" height="120px" viewBox="0 0 142 120" version="1.1" xmlns="http://www.w3.org/2000/svg" xmlns:xlink="http://www.w3.org/1999/xlink">
    <!-- Generator: Sketch 52.5 (67469) - http://www.bohemiancoding.com/sketch -->
    <title>Icon</title>
    <desc>Created with Sketch.</desc>
    <defs>
        <linearGradient x1="100%" y1="19.8910981%" x2="0%" y2="84.1135855%" id="linearGradient-1">
            <stop stop-color="#5E7ADB" offset="0%"></stop>
            <stop stop-color="#8359C1" offset="100%"></stop>
        </linearGradient>
        <filter x="-25.9%" y="-18.7%" width="151.8%" height="137.5%" filterUnits="objectBoundingBox" id="filter-2">
            <feGaussianBlur stdDeviation="4" in="SourceGraphic"></feGaussianBlur>
        </filter>
    </defs>
    <g id="KIT" stroke="none" stroke-width="1" fill="none" fill-rule="evenodd">
        <g id="Section-is-unavailable---Desktop" transform="translate(-1668.000000, -463.000000)">
            <g id="Section-is-unavailable" transform="translate(1560.000000, 170.000000)">
                <g id="Icon" transform="translate(108.000000, 292.000000)">
                    <g id="Elements">
                        <g id="Triangle" transform="translate(0.000000, 61.000000)" fill="#9578D9" opacity="0.7">
                            <polygon points="8.13 8.99166667 0 7.25045455 6.37 0.983863636"></polygon>
                        </g>
                        <g id="Plus" transform="translate(97.000000, 0.984848)" fill="#9578D9" opacity="0.8">
                            <path d="M5.20899996,3.4235972 L8.67,1.45560606 L9.67,3.16136364 L6.20899996,5.12935477 L8.21,8.54257576 L6.47,9.52742424 L4.47100004,6.11761492 L1.01,8.08560606 L0.01,6.37984848 L3.47100004,4.41185735 L1.47,0.998636364 L3.21,0.0137878788 L5.20899996,3.4235972 Z"></path>
                        </g>
                        <g id="Ellipse-7" transform="translate(134.000000, 56.969697)" opacity="0.6" stroke="#9578D9" stroke-width="2">
                            <ellipse id="Ellipse" cx="4" cy="3.93939394" rx="3" ry="2.93939394"></ellipse>
                        </g>
                        <g id="Ellipse-6" transform="translate(38.000000, 26.984848)" fill="#9578D9" fill-rule="nonzero" opacity="0.4">
                            <ellipse id="Ellipse" cx="1.5" cy="1.47727273" rx="1.5" ry="1.47727273"></ellipse>
                        </g>
                        <g id="Ellipse-5" transform="translate(20.000000, 56.984848)" fill="#9578D9" fill-rule="nonzero" opacity="0.4">
                            <ellipse id="Ellipse" cx="1.5" cy="1.47727273" rx="1.5" ry="1.47727273"></ellipse>
                        </g>
                        <g id="Ellipse-4" transform="translate(27.000000, 117.984848)" fill="#9578D9" fill-rule="nonzero" opacity="0.4">
                            <ellipse id="Ellipse" cx="1.5" cy="1.47727273" rx="1.5" ry="1.47727273"></ellipse>
                        </g>
                        <g id="Ellipse-3" transform="translate(118.000000, 51.984848)" fill="#9578D9" fill-rule="nonzero" opacity="0.4">
                            <ellipse id="Ellipse" cx="1.5" cy="1.47727273" rx="1.5" ry="1.47727273"></ellipse>
                        </g>
                        <g id="Ellipse-2" transform="translate(24.000000, 11.984848)" fill="#9578D9" fill-rule="nonzero" opacity="0.6">
                            <ellipse id="Ellipse" cx="2.5" cy="2.46212121" rx="2.5" ry="2.46212121"></ellipse>
                        </g>
                        <g id="Ellipse-1" transform="translate(115.000000, 107.984848)" fill="#9578D9" fill-rule="nonzero" opacity="0.4">
                            <ellipse id="Ellipse" cx="1.5" cy="1.47727273" rx="1.5" ry="1.47727273"></ellipse>
                        </g>
                    </g>
                    <g id="Shadow" transform="translate(51.000000, 46.984848)" fill="url(#linearGradient-1)" fill-rule="nonzero" opacity="0.4">
                        <path d="M45.69,57.1443172 L31.11,33.8748944 L31.11,14.3493441 L32.42,14.3493441 C32.7163278,14.3504069 33.0009119,14.2335452 33.2110107,14.0245233 C33.4211094,13.8155013 33.5394708,13.5314827 33.54,13.2350844 L33.54,5.91737902 C33.5397362,5.62080728 33.4214919,5.33653144 33.2113642,5.12729314 C33.0012366,4.91805484 32.7165008,4.80105602 32.42,4.80211911 L14.88,4.80211911 C14.5834992,4.80105602 14.2987634,4.91805484 14.0886358,5.12729314 C13.8785081,5.33653144 13.7602638,5.62080728 13.76,5.91737902 L13.76,13.2350844 C13.7605292,13.5314827 13.8788906,13.8155013 14.0889893,14.0245233 C14.2990881,14.2335452 14.5836722,14.3504069 14.88,14.3493441 L16.19,14.3493441 L16.19,19.0044289 C16.19,19.623132 16.6914411,20.12469 17.31,20.12469 C17.9285589,20.12469 18.43,19.623132 18.43,19.0044289 L18.43,14.353345 L25.96,14.353345 C26.3661331,14.3655146 26.7467325,14.1557444 26.9533927,13.8058291 C27.1600529,13.4559139 27.1600529,13.0212565 26.9533927,12.6713413 C26.7467325,12.321426 26.3661331,12.1116558 25.96,12.1238254 L16,12.1238254 L16,7.03663986 L31.3,7.03663986 L31.3,12.1238254 L29.99,12.1238254 C29.6934992,12.1227623 29.4087634,12.2397611 29.1986358,12.4489994 C28.9885081,12.6582377 28.8702638,12.9425136 28.87,13.2390853 L28.87,34.1989699 C28.8706528,34.4076739 28.9295281,34.6120536 29.04,34.7891075 L42.72,56.6231958 L38.87,56.6231958 C38.2542025,56.6231958 37.755,57.1225147 37.755,57.7384557 C37.755,58.3543967 38.2542025,58.8537156 38.87,58.8537156 L44.04,58.8537156 C44.2495779,59.5419398 44.1209654,60.2887776 43.6932582,60.867204 C43.265551,61.4456305 42.5892729,61.7873179 41.87,61.7883995 L5.43,61.7883995 C4.6032945,61.7950895 3.83938903,61.3481582 3.44,60.6241282 C3.13347068,60.0856606 3.06811848,59.4428809 3.26,58.8537156 L34.47,58.8537156 C35.0857975,58.8537156 35.585,58.3543967 35.585,57.7384557 C35.585,57.1225147 35.0857975,56.6231958 34.47,56.6231958 L4.57,56.6231958 L17.93,35.3182308 L26.18,35.3182308 C26.7957975,35.3182308 27.295,34.8189119 27.295,34.2029709 C27.295,33.5870298 26.7957975,33.087711 26.18,33.087711 L18.43,33.087711 L18.43,22.725296 C18.43,22.1065929 17.9285589,21.605035 17.31,21.605035 C16.6914411,21.605035 16.19,22.1065929 16.19,22.725296 L16.19,33.8828963 L1.6,57.1523191 C0.740200909,58.5412197 0.700248691,60.2870517 1.49561243,61.7138473 C2.29097616,63.1406428 3.79678288,64.0243935 5.43,64.0229203 L41.87,64.0229203 C43.5085635,64.0344298 45.0214232,63.1460896 45.81,61.7093811 C46.6214441,60.2836738 46.5752252,58.5254041 45.69,57.1443172 Z M21.71,38.7000189 L18.35,38.7000189 C17.9438669,38.6878492 17.5632675,38.8976194 17.3566073,39.2475347 C17.1499471,39.59745 17.1499471,40.0321073 17.3566073,40.3820226 C17.5632675,40.7319379 17.9438669,40.9417081 18.35,40.9295385 L21.71,40.9295385 C22.1161331,40.9417081 22.4967325,40.7319379 22.7033927,40.3820226 C22.9100529,40.0321073 22.9100529,39.59745 22.7033927,39.2475347 C22.4967325,38.8976194 22.1161331,38.6878492 21.71,38.7000189 Z M19.24,42.9370063 L15.88,42.9370063 C15.2642025,42.9370063 14.765,43.4363252 14.765,44.0522662 C14.765,44.6682072 15.2642025,45.1675261 15.88,45.1675261 L19.24,45.1675261 C19.6383512,45.1675262 20.006443,44.9549589 20.2056186,44.6098963 C20.4047943,44.2648336 20.4047943,43.8396988 20.2056186,43.4946361 C20.006443,43.1495735 19.6383512,42.9370062 19.24,42.9370063 Z M16.78,47.1739937 L13.42,47.1739937 C12.8042025,47.1739937 12.305,47.6733126 12.305,48.2892536 C12.305,48.9051947 12.8042025,49.4045135 13.42,49.4045135 L16.78,49.4045135 C17.1783512,49.4045137 17.546443,49.1919463 17.7456186,48.8468837 C17.9447943,48.501821 17.9447943,48.0766862 17.7456186,47.7316236 C17.546443,47.3865609 17.1783512,47.1739936 16.78,47.1739937 Z M41.11,29.680917 C38.4961731,29.6930568 36.3859407,31.8201715 36.3940226,34.4346234 C36.4021046,37.0490753 38.5254473,39.163097 41.1392993,39.1590692 C43.7531513,39.1550413 45.8699718,37.0344858 45.87,34.4200214 C45.8628293,31.7970668 43.7323484,29.6759384 41.11,29.680917 Z M41.11,36.9286061 C39.7256356,36.9225351 38.607786,35.7960787 38.6120119,34.4113848 C38.6162377,33.0266908 39.7409419,31.9070815 41.1253175,31.9094642 C42.5096932,31.9118469 43.6305385,33.0353211 43.63,34.4200214 C43.6250388,35.8081012 42.4977641,36.9302694 41.11,36.9286061 Z M9.25,14.7234312 C6.92957439,14.7361203 5.05758198,16.6256792 5.06602787,18.946665 C5.07447376,21.2676508 6.96016831,23.1435293 9.28062479,23.1393227 C11.6010813,23.1351161 13.4799653,21.2524131 13.48,18.9314119 C13.4768226,17.8126494 13.0293126,16.7410014 12.2359749,15.9523561 C11.4426371,15.1637109 10.3685001,14.7227123 9.25,14.7264319 L9.25,14.7234312 Z M9.25,20.909873 C8.15916736,20.9032535 7.27961086,20.0145566 7.28401613,18.9234585 C7.2884214,17.8323604 8.17512524,16.9507981 9.26597576,16.9529912 C10.3568263,16.9551843 11.2399799,17.8403049 11.24,18.9314119 C11.239472,19.4583274 11.0293543,19.9633782 10.6560122,20.3351185 C10.28267,20.7068588 9.77678969,20.9147339 9.25,20.9128737 L9.25,20.909873 Z M3.33,35.4132529 C1.49284928,35.4237346 0.01104778,36.9200312 0.0180240156,38.7576268 C0.0250002511,40.5952224 1.51811992,42.0802197 3.35529724,42.0767457 C5.19247456,42.0732717 6.67997011,40.5826382 6.68,38.7450294 C6.67894186,37.8579576 6.32520905,37.007727 5.69678855,36.3817869 C5.06836806,35.7558468 4.21686172,35.4055952 3.33,35.4082517 L3.33,35.4132529 Z M3.33,39.8452858 C2.7238191,39.8397735 2.23635446,39.3447579 2.24002011,38.7384217 C2.24368577,38.1320855 2.73709985,37.6430027 3.34330307,37.6448234 C3.94950629,37.6466441 4.43997495,38.1386821 4.44,38.7450294 C4.43947915,39.0382299 4.32198003,39.3190952 4.1135805,39.5252899 C3.90518097,39.7314845 3.62312057,39.8459512 3.33,39.8432853 L3.33,39.8452858 Z M11.91,28.5486531 C12.5251391,28.5514123 13.021832,29.0519463 13.019995,29.6672322 C13.0181581,30.2825181 12.5184854,30.7800761 11.9033408,30.7791605 C11.2881962,30.7782449 10.7900062,30.2792017 10.79,29.6639131 C10.7897321,29.3669947 10.9077419,29.0822041 11.1179274,28.8725327 C11.3281129,28.6628614 11.6131526,28.5455883 11.91,28.5466527 L11.91,28.5486531 Z M28.4,-2.0474669e-13 C29.0151391,0.00275914197 29.511832,0.503293163 29.509995,1.11857907 C29.5081581,1.73386498 29.0084854,2.23142296 28.3933408,2.23050737 C27.7781962,2.22959177 27.2800062,1.73054856 27.28,1.11525991 C27.2802638,0.818688168 27.3985081,0.534412329 27.6086358,0.325174028 C27.8187634,0.115935726 28.1034992,-0.00106309892 28.4,-2.0474669e-13 Z M36.2,19.1874716 C36.8151391,19.1902307 37.311832,19.6907647 37.309995,20.3060506 C37.3081581,20.9213365 36.8084854,21.4188945 36.1933408,21.4179789 C35.5781962,21.4170633 35.0800062,20.9180201 35.08,20.3027315 C35.0797294,20.0059954 35.1978027,19.7214081 35.4080468,19.5120538 C35.6182908,19.3026996 35.9033372,19.1858732 36.2,19.1874716 Z" id="icon" filter="url(#filter-2)"></path>
                    </g>
                    <g transform="translate(51.000000, 39.984848)" fill="url(#linearGradient-1)" fill-rule="nonzero" id="icon" opacity="0.800000012">
                        <path d="M45.69,57.1443172 L31.11,33.8748944 L31.11,14.3493441 L32.42,14.3493441 C32.7163278,14.3504069 33.0009119,14.2335452 33.2110107,14.0245233 C33.4211094,13.8155013 33.5394708,13.5314827 33.54,13.2350844 L33.54,5.91737902 C33.5397362,5.62080728 33.4214919,5.33653144 33.2113642,5.12729314 C33.0012366,4.91805484 32.7165008,4.80105602 32.42,4.80211911 L14.88,4.80211911 C14.5834992,4.80105602 14.2987634,4.91805484 14.0886358,5.12729314 C13.8785081,5.33653144 13.7602638,5.62080728 13.76,5.91737902 L13.76,13.2350844 C13.7605292,13.5314827 13.8788906,13.8155013 14.0889893,14.0245233 C14.2990881,14.2335452 14.5836722,14.3504069 14.88,14.3493441 L16.19,14.3493441 L16.19,19.0044289 C16.19,19.623132 16.6914411,20.12469 17.31,20.12469 C17.9285589,20.12469 18.43,19.623132 18.43,19.0044289 L18.43,14.353345 L25.96,14.353345 C26.3661331,14.3655146 26.7467325,14.1557444 26.9533927,13.8058291 C27.1600529,13.4559139 27.1600529,13.0212565 26.9533927,12.6713413 C26.7467325,12.321426 26.3661331,12.1116558 25.96,12.1238254 L16,12.1238254 L16,7.03663986 L31.3,7.03663986 L31.3,12.1238254 L29.99,12.1238254 C29.6934992,12.1227623 29.4087634,12.2397611 29.1986358,12.4489994 C28.9885081,12.6582377 28.8702638,12.9425136 28.87,13.2390853 L28.87,34.1989699 C28.8706528,34.4076739 28.9295281,34.6120536 29.04,34.7891075 L42.72,56.6231958 L38.87,56.6231958 C38.2542025,56.6231958 37.755,57.1225147 37.755,57.7384557 C37.755,58.3543967 38.2542025,58.8537156 38.87,58.8537156 L44.04,58.8537156 C44.2495779,59.5419398 44.1209654,60.2887776 43.6932582,60.867204 C43.265551,61.4456305 42.5892729,61.7873179 41.87,61.7883995 L5.43,61.7883995 C4.6032945,61.7950895 3.83938903,61.3481582 3.44,60.6241282 C3.13347068,60.0856606 3.06811848,59.4428809 3.26,58.8537156 L34.47,58.8537156 C35.0857975,58.8537156 35.585,58.3543967 35.585,57.7384557 C35.585,57.1225147 35.0857975,56.6231958 34.47,56.6231958 L4.57,56.6231958 L17.93,35.3182308 L26.18,35.3182308 C26.7957975,35.3182308 27.295,34.8189119 27.295,34.2029709 C27.295,33.5870298 26.7957975,33.087711 26.18,33.087711 L18.43,33.087711 L18.43,22.725296 C18.43,22.1065929 17.9285589,21.605035 17.31,21.605035 C16.6914411,21.605035 16.19,22.1065929 16.19,22.725296 L16.19,33.8828963 L1.6,57.1523191 C0.740200909,58.5412197 0.700248691,60.2870517 1.49561243,61.7138473 C2.29097616,63.1406428 3.79678288,64.0243935 5.43,64.0229203 L41.87,64.0229203 C43.5085635,64.0344298 45.0214232,63.1460896 45.81,61.7093811 C46.6214441,60.2836738 46.5752252,58.5254041 45.69,57.1443172 Z M21.71,38.7000189 L18.35,38.7000189 C17.9438669,38.6878492 17.5632675,38.8976194 17.3566073,39.2475347 C17.1499471,39.59745 17.1499471,40.0321073 17.3566073,40.3820226 C17.5632675,40.7319379 17.9438669,40.9417081 18.35,40.9295385 L21.71,40.9295385 C22.1161331,40.9417081 22.4967325,40.7319379 22.7033927,40.3820226 C22.9100529,40.0321073 22.9100529,39.59745 22.7033927,39.2475347 C22.4967325,38.8976194 22.1161331,38.6878492 21.71,38.7000189 Z M19.24,42.9370063 L15.88,42.9370063 C15.2642025,42.9370063 14.765,43.4363252 14.765,44.0522662 C14.765,44.6682072 15.2642025,45.1675261 15.88,45.1675261 L19.24,45.1675261 C19.6383512,45.1675262 20.006443,44.9549589 20.2056186,44.6098963 C20.4047943,44.2648336 20.4047943,43.8396988 20.2056186,43.4946361 C20.006443,43.1495735 19.6383512,42.9370062 19.24,42.9370063 Z M16.78,47.1739937 L13.42,47.1739937 C12.8042025,47.1739937 12.305,47.6733126 12.305,48.2892536 C12.305,48.9051947 12.8042025,49.4045135 13.42,49.4045135 L16.78,49.4045135 C17.1783512,49.4045137 17.546443,49.1919463 17.7456186,48.8468837 C17.9447943,48.501821 17.9447943,48.0766862 17.7456186,47.7316236 C17.546443,47.3865609 17.1783512,47.1739936 16.78,47.1739937 Z M41.11,29.680917 C38.4961731,29.6930568 36.3859407,31.8201715 36.3940226,34.4346234 C36.4021046,37.0490753 38.5254473,39.163097 41.1392993,39.1590692 C43.7531513,39.1550413 45.8699718,37.0344858 45.87,34.4200214 C45.8628293,31.7970668 43.7323484,29.6759384 41.11,29.680917 Z M41.11,36.9286061 C39.7256356,36.9225351 38.607786,35.7960787 38.6120119,34.4113848 C38.6162377,33.0266908 39.7409419,31.9070815 41.1253175,31.9094642 C42.5096932,31.9118469 43.6305385,33.0353211 43.63,34.4200214 C43.6250388,35.8081012 42.4977641,36.9302694 41.11,36.9286061 Z M9.25,14.7234312 C6.92957439,14.7361203 5.05758198,16.6256792 5.06602787,18.946665 C5.07447376,21.2676508 6.96016831,23.1435293 9.28062479,23.1393227 C11.6010813,23.1351161 13.4799653,21.2524131 13.48,18.9314119 C13.4768226,17.8126494 13.0293126,16.7410014 12.2359749,15.9523561 C11.4426371,15.1637109 10.3685001,14.7227123 9.25,14.7264319 L9.25,14.7234312 Z M9.25,20.909873 C8.15916736,20.9032535 7.27961086,20.0145566 7.28401613,18.9234585 C7.2884214,17.8323604 8.17512524,16.9507981 9.26597576,16.9529912 C10.3568263,16.9551843 11.2399799,17.8403049 11.24,18.9314119 C11.239472,19.4583274 11.0293543,19.9633782 10.6560122,20.3351185 C10.28267,20.7068588 9.77678969,20.9147339 9.25,20.9128737 L9.25,20.909873 Z M3.33,35.4132529 C1.49284928,35.4237346 0.01104778,36.9200312 0.0180240156,38.7576268 C0.0250002511,40.5952224 1.51811992,42.0802197 3.35529724,42.0767457 C5.19247456,42.0732717 6.67997011,40.5826382 6.68,38.7450294 C6.67894186,37.8579576 6.32520905,37.007727 5.69678855,36.3817869 C5.06836806,35.7558468 4.21686172,35.4055952 3.33,35.4082517 L3.33,35.4132529 Z M3.33,39.8452858 C2.7238191,39.8397735 2.23635446,39.3447579 2.24002011,38.7384217 C2.24368577,38.1320855 2.73709985,37.6430027 3.34330307,37.6448234 C3.94950629,37.6466441 4.43997495,38.1386821 4.44,38.7450294 C4.43947915,39.0382299 4.32198003,39.3190952 4.1135805,39.5252899 C3.90518097,39.7314845 3.62312057,39.8459512 3.33,39.8432853 L3.33,39.8452858 Z M11.91,28.5486531 C12.5251391,28.5514123 13.021832,29.0519463 13.019995,29.6672322 C13.0181581,30.2825181 12.5184854,30.7800761 11.9033408,30.7791605 C11.2881962,30.7782449 10.7900062,30.2792017 10.79,29.6639131 C10.7897321,29.3669947 10.9077419,29.0822041 11.1179274,28.8725327 C11.3281129,28.6628614 11.6131526,28.5455883 11.91,28.5466527 L11.91,28.5486531 Z M28.4,-5.73856351e-17 C29.0151391,0.00275914197 29.511832,0.503293163 29.509995,1.11857907 C29.5081581,1.73386498 29.0084854,2.23142296 28.3933408,2.23050737 C27.7781962,2.22959177 27.2800062,1.73054856 27.28,1.11525991 C27.2802638,0.818688168 27.3985081,0.534412329 27.6086358,0.325174028 C27.8187634,0.115935726 28.1034992,-0.00106309892 28.4,-5.73856351e-17 Z M36.2,19.1874716 C36.8151391,19.1902307 37.311832,19.6907647 37.309995,20.3060506 C37.3081581,20.9213365 36.8084854,21.4188945 36.1933408,21.4179789 C35.5781962,21.4170633 35.0800062,20.9180201 35.08,20.3027315 C35.0797294,20.0059954 35.1978027,19.7214081 35.4080468,19.5120538 C35.6182908,19.3026996 35.9033372,19.1858732 36.2,19.1874716 Z"></path>
                    </g>
                </g>
            </g>
        </g>
    </g>
</svg>