<?xml version="1.0" encoding="UTF-8" standalone="no"?>
<!DOCTYPE svg PUBLIC "-//W3C//DTD SVG 1.1//EN" "http://www.w3.org/Graphics/SVG/1.1/DTD/svg11.dtd">
<svg width="100%" height="100%" viewBox="0 0 1000 567" version="1.1" xmlns="http://www.w3.org/2000/svg" xmlns:xlink="http://www.w3.org/1999/xlink" xml:space="preserve" xmlns:serif="http://www.serif.com/" style="fill-rule:evenodd;clip-rule:evenodd;stroke-linejoin:round;stroke-miterlimit:2;">
    <g transform="matrix(4.16667,0,0,4.16667,0,0)">
        <g id="_6---Sketch---Violet---240" serif:id="6---Sketch---Violet---240">
            <rect id="Background" x="0" y="0" width="240" height="136" style="fill:rgb(155,147,242);"/>
            <g id="Group-9" transform="matrix(1,0,0,1,159,32)">
                <g id="Rectangle-Copy-9">
                    <path id="path-1" d="M44,6C44,2.689 41.311,0 38,0L6,0C2.689,0 0,2.689 0,6L0,80C0,83.311 2.689,86 6,86L38,86C41.311,86 44,83.311 44,80L44,6Z" style="fill:rgb(155,147,242);"/>
                    <path id="path-11" serif:id="path-1" d="M44,6C44,2.689 41.311,0 38,0L6,0C2.689,0 0,2.689 0,6L0,80C0,83.311 2.689,86 6,86L38,86C41.311,86 44,83.311 44,80L44,6Z" style="fill:white;fill-opacity:0.4;"/>
                </g>
                <path id="Mask" d="M10.348,2.5C10.677,2.5 10.944,2.767 10.944,3.097C10.975,3.655 11.084,4.009 11.257,4.332C11.461,4.713 11.76,5.013 12.142,5.217C12.523,5.421 12.952,5.529 13.695,5.529L30.305,5.529C31.048,5.529 31.477,5.421 31.858,5.217C32.24,5.013 32.539,4.713 32.743,4.332C32.916,4.009 33.021,3.651 33.056,3.097C33.056,2.767 33.323,2.5 33.652,2.5L36.617,2.5C38.315,2.5 38.931,2.677 39.551,3.009C40.172,3.341 40.659,3.828 40.991,4.449C41.323,5.07 41.5,5.685 41.5,7.384L41.5,78.616C41.5,80.315 41.323,80.93 40.991,81.551C40.659,82.172 40.172,82.659 39.551,82.991C38.931,83.323 38.315,83.5 36.617,83.5L7.383,83.5C5.685,83.5 5.069,83.323 4.449,82.991C3.828,82.659 3.341,82.172 3.009,81.551C2.677,80.93 2.5,80.315 2.5,78.616L2.5,7.384C2.5,5.685 2.677,5.07 3.009,4.449C3.341,3.828 3.828,3.341 4.449,3.009C5.069,2.677 5.685,2.5 7.383,2.5L10.348,2.5Z" style="fill:white;"/>
            </g>
            <path id="Rectangle" d="M23.879,8.364L25.636,10.121C26.121,10.607 26.121,11.393 25.636,11.879L23.879,13.636C23.393,14.121 22.607,14.121 22.121,13.636L20.364,11.879C19.879,11.393 19.879,10.607 20.364,10.121L22.121,8.364C22.607,7.879 23.393,7.879 23.879,8.364Z" style="fill:white;fill-opacity:0.8;"/>
            <g id="Group" transform="matrix(1,0,0,1,192,10)">
                <g opacity="0.6">
                    <path id="Rectangle-Copy-7" d="M12,1C12,0.448 11.552,0 11,0L1,0C0.448,0 0,0.448 0,1C0,1.552 0.448,2 1,2L11,2C11.552,2 12,1.552 12,1Z" style="fill:white;"/>
                    <path id="Rectangle-Copy-8" d="M28,1C28,0.448 27.552,0 27,0L17,0C16.448,0 16,0.448 16,1C16,1.552 16.448,2 17,2L27,2C27.552,2 28,1.552 28,1Z" style="fill:white;"/>
                </g>
            </g>
            <g id="Group-3" transform="matrix(1,0,0,1,37.5,89.6477)">
                <path id="Rectangle-Copy-5" d="M22.5,3.852C22.5,1.921 20.932,0.352 19,0.352L4,0.352C2.068,0.352 0.5,1.921 0.5,3.852C0.5,5.784 2.068,7.352 4,7.352L19,7.352C20.932,7.352 22.5,5.784 22.5,3.852Z" style="fill:white;"/>
                <path id="Rectangle-Copy-6" d="M48.5,3.852C48.5,1.921 46.932,0.352 45,0.352L30,0.352C28.068,0.352 26.5,1.921 26.5,3.852C26.5,5.784 28.068,7.352 30,7.352L45,7.352C46.932,7.352 48.5,5.784 48.5,3.852Z" style="fill:white;"/>
            </g>
            <g id="Group-5" transform="matrix(1,0,0,1,37.5,67.4847)">
                <g opacity="0.8">
                    <path id="Rectangle-Copy-15" d="M57.5,0.515L77.5,0.515C78.605,0.515 79.5,1.411 79.5,2.515C79.5,3.62 78.605,4.515 77.5,4.515L57.5,4.515C56.395,4.515 55.5,3.62 55.5,2.515C55.5,1.411 56.395,0.515 57.5,0.515Z" style="fill:white;"/>
                    <path id="Rectangle-Copy-16" d="M2.5,0.515L49.5,0.515C50.605,0.515 51.5,1.411 51.5,2.515C51.5,3.62 50.605,4.515 49.5,4.515L2.5,4.515C1.395,4.515 0.5,3.62 0.5,2.515C0.5,1.411 1.395,0.515 2.5,0.515Z" style="fill:white;"/>
                    <path id="Rectangle-Copy-18" d="M2.5,8.515L15.5,8.515C16.605,8.515 17.5,9.411 17.5,10.515C17.5,11.62 16.605,12.515 15.5,12.515L2.5,12.515C1.395,12.515 0.5,11.62 0.5,10.515C0.5,9.411 1.395,8.515 2.5,8.515Z" style="fill:white;"/>
                    <path id="Rectangle-Copy-17" d="M23.5,8.515L60.5,8.515C61.605,8.515 62.5,9.411 62.5,10.515C62.5,11.62 61.605,12.515 60.5,12.515L23.5,12.515C22.395,12.515 21.5,11.62 21.5,10.515C21.5,9.411 22.395,8.515 23.5,8.515Z" style="fill:white;"/>
                </g>
            </g>
            <g id="Rectangle-Copy-10" transform="matrix(1,0,0,1,37.5,61.1884)">
                <path d="M1.5,0.812L25.5,0.812C26.052,0.812 26.5,1.259 26.5,1.812C26.5,2.364 26.052,2.812 25.5,2.812L1.5,2.812C0.948,2.812 0.5,2.364 0.5,1.812C0.5,1.259 0.948,0.812 1.5,0.812Z" style="fill:white;fill-opacity:0.6;"/>
            </g>
        </g>
    </g>
</svg>
